<svg width="141" height="39" viewBox="0 0 141 39" fill="none" xmlns="http://www.w3.org/2000/svg">
<g clip-path="url(#clip0)">
<path d="M7.93322 30.1978C7.93322 32.3147 7.09749 34.3448 5.60988 35.8417C4.12228 37.3385 2.10465 38.1795 0.000854492 38.1795H15.8656C13.7618 38.1795 11.7442 37.3385 10.2566 35.8417C8.76895 34.3448 7.93322 32.3147 7.93322 30.1978Z" fill="black"/>
<path d="M7.93321 8.80302C7.9331 7.75478 8.1382 6.71679 8.53679 5.74831C8.93538 4.77984 9.51965 3.89985 10.2563 3.15859C10.9929 2.41734 11.8673 1.82934 12.8298 1.42817C13.7923 1.02701 14.8238 0.820526 15.8656 0.820526H0C1.04184 0.820415 2.07349 1.02681 3.03604 1.42793C3.99859 1.82905 4.87319 2.41703 5.60987 3.1583C6.34656 3.89956 6.93092 4.77959 7.32956 5.74812C7.7282 6.71665 7.93332 7.75471 7.93321 8.80302Z" fill="black"/>
<path d="M35.9096 38.1566C33.1816 38.1566 30.4602 38.221 27.7322 38.1329C27.5048 38.127 27.2833 38.1092 27.0676 38.0863C24.7093 37.8456 22.8766 36.6727 21.6772 34.409C19.7653 30.7903 17.6731 27.2715 15.8193 23.6239C14.8229 21.6594 13.5452 20.2806 12.2641 19.7534C11.9262 19.6005 11.5622 19.5142 11.192 19.4992C11.3255 19.4978 11.4584 19.4822 11.5887 19.4526C12.9817 19.1653 14.4523 17.7228 15.5751 15.5346C17.4693 11.8167 19.5968 8.21486 21.561 4.53252C22.9086 2.01633 25.0294 0.895953 27.7684 0.843408C28.7985 0.826459 29.826 0.820526 30.862 0.820526C32.6223 0.820526 34.3826 0.844256 36.1547 0.87307C33.5783 1.23071 31.9872 2.72653 30.8275 5.00797C28.9391 8.7259 26.8293 12.3328 24.8474 16.0101C23.8738 17.8161 22.3763 18.8839 20.3885 19.5C23.1394 20.0687 24.5383 22.0103 25.7217 24.3095C27.5056 27.7579 29.4925 31.0953 31.2806 34.5438C32.2955 36.5142 33.8116 37.6574 35.9096 38.1566Z" fill="url(#paint0_linear)"/>
</g>
<path d="M63.4307 20.7056L61.0181 23.152V26.2564H59.7695V14.4462H61.0181V21.5829L67.9524 14.4462H69.3865L64.2743 19.7945L69.7408 26.2564H68.2561L63.4307 20.7056ZM76.4987 26.3576C75.3289 26.3576 74.266 26.0989 73.31 25.5815C72.3651 25.0529 71.6228 24.333 71.0829 23.4219C70.5542 22.5109 70.2899 21.4873 70.2899 20.3513C70.2899 19.2152 70.5542 18.1917 71.0829 17.2806C71.6228 16.3695 72.3651 15.6553 73.31 15.1379C74.266 14.6092 75.3289 14.3449 76.4987 14.3449C77.6685 14.3449 78.7202 14.6036 79.6537 15.121C80.5986 15.6384 81.3409 16.3583 81.8808 17.2806C82.4207 18.1917 82.6907 19.2152 82.6907 20.3513C82.6907 21.4873 82.4207 22.5165 81.8808 23.4388C81.3409 24.3499 80.5986 25.0641 79.6537 25.5815C78.7202 26.0989 77.6685 26.3576 76.4987 26.3576ZM76.4987 25.2441C77.4323 25.2441 78.2759 25.036 79.0295 24.6198C79.7831 24.1924 80.3736 23.6075 80.801 22.8652C81.2284 22.1116 81.4422 21.2736 81.4422 20.3513C81.4422 19.429 81.2284 18.5966 80.801 17.8543C80.3736 17.1006 79.7831 16.5158 79.0295 16.0996C78.2759 15.6722 77.4323 15.4585 76.4987 15.4585C75.5651 15.4585 74.7159 15.6722 73.9511 16.0996C73.1975 16.5158 72.6013 17.1006 72.1627 17.8543C71.7353 18.5966 71.5215 19.429 71.5215 20.3513C71.5215 21.2736 71.7353 22.1116 72.1627 22.8652C72.6013 23.6075 73.1975 24.1924 73.9511 24.6198C74.7159 25.036 75.5651 25.2441 76.4987 25.2441ZM93.8069 20.3513H95.0048V24.856C94.4537 25.3397 93.8013 25.7109 93.0477 25.9696C92.2941 26.2283 91.5011 26.3576 90.6688 26.3576C89.4878 26.3576 88.4248 26.0989 87.48 25.5815C86.5352 25.0641 85.7928 24.3499 85.2529 23.4388C84.713 22.5165 84.4431 21.4873 84.4431 20.3513C84.4431 19.2152 84.713 18.1917 85.2529 17.2806C85.7928 16.3583 86.5352 15.6384 87.48 15.121C88.4248 14.6036 89.4934 14.3449 90.6857 14.3449C91.5855 14.3449 92.4122 14.4911 93.1658 14.7836C93.9194 15.0648 94.5549 15.4866 95.0723 16.049L94.2962 16.8419C93.3627 15.9196 92.176 15.4585 90.7363 15.4585C89.7802 15.4585 88.9141 15.6722 88.138 16.0996C87.3732 16.5158 86.7714 17.1006 86.3327 17.8543C85.8941 18.5966 85.6747 19.429 85.6747 20.3513C85.6747 21.2736 85.8941 22.1059 86.3327 22.8483C86.7714 23.5907 87.3732 24.1756 88.138 24.603C88.9029 25.0304 89.7633 25.2441 90.7194 25.2441C91.9342 25.2441 92.9634 24.9404 93.8069 24.333V20.3513ZM108.408 14.4462V26.2564H107.379L99.7869 16.6732V26.2564H98.5384V14.4462H99.5676L107.177 24.0293V14.4462H108.408ZM112.263 14.4462H113.512V26.2564H112.263V14.4462ZM119.649 15.5259H115.499V14.4462H125.048V15.5259H120.898V26.2564H119.649V15.5259ZM127.043 14.4462H128.291V26.2564H127.043V14.4462ZM133.382 15.5259V20.1657H139.49V21.2455H133.382V26.2564H132.134V14.4462H140.232V15.5259H133.382Z" fill="black"/>
<defs>
<linearGradient id="paint0_linear" x1="20.1653" y1="4.07403" x2="38.9416" y2="36.3948" gradientUnits="userSpaceOnUse">
<stop stop-color="#2C3E50"/>
<stop offset="0.17" stop-color="#2F4759"/>
<stop offset="0.46" stop-color="#376171"/>
<stop offset="0.82" stop-color="#458A99"/>
<stop offset="1" stop-color="#4CA1AF"/>
</linearGradient>
<clipPath id="clip0">
<rect width="36.1538" height="37.359" fill="white" transform="translate(0 0.820526)"/>
</clipPath>
</defs>
</svg>
