<svg width="42" height="42" viewBox="0 0 42 42" fill="none" xmlns="http://www.w3.org/2000/svg">
<path d="M21.0234 10.2812C19.7525 10.2812 18.5102 10.6581 17.4535 11.3642C16.3968 12.0703 15.5731 13.0738 15.0868 14.248C14.6004 15.4222 14.4732 16.7142 14.7211 17.9606C14.9691 19.2071 15.5811 20.3521 16.4797 21.2507C17.3784 22.1494 18.5234 22.7614 19.7698 23.0093C21.0163 23.2573 22.3083 23.13 23.4825 22.6437C24.6566 22.1573 25.6602 21.3337 26.3663 20.277C27.0724 19.2203 27.4492 17.9779 27.4492 16.707C27.4492 15.0028 26.7722 13.3684 25.5672 12.1633C24.3621 10.9583 22.7277 10.2813 21.0234 10.2812ZM21.0234 20.5625C20.2609 20.5625 19.5155 20.3364 18.8815 19.9127C18.2474 19.4891 17.7533 18.887 17.4615 18.1825C17.1696 17.478 17.0933 16.7028 17.2421 15.9549C17.3908 15.207 17.758 14.52 18.2972 13.9808C18.8364 13.4416 19.5234 13.0744 20.2713 12.9256C21.0192 12.7769 21.7944 12.8532 22.4989 13.145C23.2034 13.4369 23.8055 13.931 24.2291 14.565C24.6528 15.1991 24.8789 15.9445 24.8789 16.707C24.8779 17.7293 24.4714 18.7093 23.7485 19.4321C23.0257 20.155 22.0457 20.5615 21.0234 20.5625Z" fill="#6F5ADE"/>
<path d="M21.0234 2.57031C17.4649 2.57031 13.9863 3.62554 11.0275 5.60254C8.06872 7.57955 5.76262 10.3895 4.40083 13.6772C3.03905 16.9648 2.68274 20.5825 3.37697 24.0726C4.07121 27.5627 5.78479 30.7686 8.30105 33.2849C10.8173 35.8011 14.0232 37.5147 17.5133 38.209C21.0035 38.9032 24.6211 38.5469 27.9088 37.1851C31.1964 35.8233 34.0064 33.5172 35.9834 30.5584C37.9604 27.5996 39.0156 24.121 39.0156 20.5625C39.0102 15.7923 37.1128 11.2191 33.7398 7.84611C30.3668 4.4731 25.7936 2.57575 21.0234 2.57031ZM13.3125 33.8986V32.1289C13.3135 31.1067 13.7201 30.1266 14.4429 29.4038C15.1657 28.681 16.1458 28.2745 17.168 28.2734H24.8789C25.9011 28.2745 26.8812 28.681 27.604 29.4038C28.3268 30.1266 28.7334 31.1067 28.7344 32.1289V33.8986C26.3943 35.265 23.7332 35.985 21.0234 35.985C18.3137 35.985 15.6526 35.265 13.3125 33.8986ZM31.2944 32.0338C31.2688 30.3481 30.582 28.7399 29.382 27.5558C28.182 26.3716 26.5648 25.7063 24.8789 25.7031H17.168C15.4821 25.7063 13.8649 26.3716 12.6649 27.5558C11.4649 28.7399 10.7781 30.3481 10.7525 32.0338C8.42193 29.9528 6.77843 27.213 6.0396 24.1772C5.30077 21.1414 5.50146 17.9528 6.61509 15.0336C7.72873 12.1144 9.70279 9.60226 12.2759 7.8299C14.8489 6.05754 17.8997 5.10853 21.0241 5.10853C24.1485 5.10853 27.1992 6.05754 29.7723 7.8299C32.3454 9.60226 34.3194 12.1144 35.4331 15.0336C36.5467 17.9528 36.7474 21.1414 36.0086 24.1772C35.2697 27.213 33.6262 29.9528 31.2957 32.0338H31.2944Z" fill="#6F5ADE"/>
</svg>
