<svg width="24" height="24" viewBox="0 0 24 24" fill="none" xmlns="http://www.w3.org/2000/svg">
<path d="M20.4014 3.48906C19.3011 2.37858 17.9909 1.49819 16.5469 0.899179C15.1029 0.300172 13.5542 -0.00546639 11.991 7.39956e-05C5.44048 7.39956e-05 0.102 5.33706 0.0959997 11.889C0.0959997 13.9875 0.644998 16.029 1.68149 17.8365L0 24L6.30598 22.347C8.05048 23.2964 10.0049 23.794 11.991 23.7945H11.997C18.5489 23.7945 23.8859 18.4575 23.8919 11.8995C23.8934 10.3366 23.5857 8.78883 22.9863 7.34537C22.387 5.90191 21.508 4.59131 20.3999 3.48906H20.4014ZM11.991 21.7815C10.2195 21.7821 8.48053 21.3054 6.95698 20.4015L6.59698 20.1855L2.85599 21.1665L3.85499 17.517L3.62099 17.1405C2.6307 15.566 2.10696 13.7431 2.11049 11.883C2.11049 6.44405 6.54598 2.00707 11.997 2.00707C13.2956 2.00474 14.5818 2.25948 15.7815 2.7566C16.9812 3.25373 18.0706 3.9834 18.9869 4.90356C19.9065 5.82013 20.6355 6.90969 21.1318 8.1094C21.6282 9.3091 21.8821 10.5952 21.8789 11.8935C21.8729 17.352 17.4374 21.7815 11.991 21.7815ZM17.4134 14.3805C17.1179 14.232 15.6585 13.5135 15.384 13.4115C15.111 13.314 14.9115 13.263 14.7165 13.56C14.517 13.8555 13.947 14.529 13.776 14.7225C13.605 14.922 13.428 14.9445 13.131 14.7975C12.8355 14.6475 11.877 14.3355 10.743 13.32C9.85797 12.5325 9.26547 11.5575 9.08847 11.262C8.91747 10.965 9.07197 10.806 9.22047 10.6575C9.35097 10.5255 9.51597 10.3095 9.66447 10.1385C9.81447 9.96754 9.86397 9.84154 9.96147 9.64354C10.059 9.44254 10.0125 9.27154 9.93897 9.12304C9.86397 8.97455 9.27147 7.50905 9.02097 6.91805C8.78097 6.33455 8.53647 6.41555 8.35347 6.40805C8.18247 6.39755 7.98298 6.39755 7.78348 6.39755C7.63282 6.4013 7.48457 6.43614 7.34802 6.4999C7.21147 6.56366 7.08957 6.65495 6.98998 6.76805C6.71698 7.06505 5.95348 7.78355 5.95348 9.24904C5.95348 10.7145 7.01848 12.123 7.16848 12.3225C7.31548 12.522 9.25947 15.5205 12.243 16.8105C12.948 17.118 13.503 17.2995 13.9365 17.4375C14.649 17.6655 15.2925 17.631 15.8055 17.5575C16.3754 17.4705 17.5619 16.8375 17.8124 16.143C18.0584 15.447 18.0584 14.853 17.9834 14.7285C17.9099 14.6025 17.7104 14.529 17.4134 14.3805Z" fill="#283847"/>
</svg>
