<svg xmlns="http://www.w3.org/2000/svg" width="59.048" height="65.917" viewBox="0 0 59.048 65.917"><g transform="translate(-656.192 129.686) rotate(-21)"><path d="M695.8,168.646a36.545,36.545,0,0,1-2.106-37.865,1.7,1.7,0,0,0-1.891-2.46,89.224,89.224,0,0,1-35.169,1.593,1.7,1.7,0,0,0-2.057,1.168,63.427,63.427,0,0,0,2.023,30.131c2.525,7.829,6.664,18.22,15.08,21.176a1.35,1.35,0,0,0,1.419-.237c.025.02.048.044.073.062l.383.283a.728.728,0,0,0,.761,0l.345-.246a.655.655,0,0,0,.271-.659l.027.023,1.305-.6a19.006,19.006,0,0,0,2.57-1.273c1.906-.99,3.792-2.018,5.685-3.033q5.363-2.873,10.69-5.81A1.656,1.656,0,0,0,695.8,168.646Zm-15.908,7.227c-1.682.978-5.074,2.183-6.517,4.049a1.63,1.63,0,0,0-.833-.654c-7.688-2.809-11.5-14.206-13.471-21.35a59.743,59.743,0,0,1-1.492-24.52,93.458,93.458,0,0,0,31.669-1.074,39.655,39.655,0,0,0,2.8,36.587Q685.947,172.355,679.892,175.873Z" fill="#8e8f94"/><path d="M692.933,179.466c-5.084,1.946-9.916,4.892-14.912,7.114-.461.205-.132.992.346.821,4.988-1.787,10.694-3.761,15.028-6.837C693.906,180.2,693.617,179.2,692.933,179.466Z" transform="translate(-6.007 -12.718)" fill="#8e8f94"/><path d="M687.321,169.109c-2.664,1.428-5.075,3.168-7.87,4.373a43.008,43.008,0,0,1-8.63,2.545c-.554.112-.439,1.054.135,1,5.863-.567,12.816-2.721,17.125-6.931A.63.63,0,0,0,687.321,169.109Z" transform="translate(-4.182 -10.134)" fill="#8e8f94"/><path d="M686.5,162.855c-3.021.585-5.943,1.8-8.9,2.672-.893.262-6.17,1.962-7.826,2.268a.226.226,0,0,0,0-.189l-.077-.2a.312.312,0,0,0-.369-.21c-.416.068-.455.1-.667.453a.4.4,0,0,0,.062.479c1.446,1.5,4.991-.163,6.682-.557,3.862-.9,8.029-1.76,11.553-3.623C687.6,163.618,687.142,162.731,686.5,162.855Z" transform="translate(-3.724 -8.596)" fill="#8e8f94"/><path d="M685.6,156.446a72.936,72.936,0,0,0-10.008,1.352,95.147,95.147,0,0,0-11.071,2.035.365.365,0,0,0,.1.714,95.3,95.3,0,0,0,11.191-1.153,73.119,73.119,0,0,0,9.987-1.508A.737.737,0,0,0,685.6,156.446Z" transform="translate(-2.642 -7.005)" fill="#8e8f94"/><path d="M684.824,147.849c-4.832-.143-9.821.721-14.634,1.183-2.223.213-7.131-.408-8.7,1.465a.618.618,0,0,0-.159.6c.177.453.234.578.685.778a.547.547,0,0,0,.625-.081l.2-.167a.417.417,0,0,0-.05-.687c.57.08,1.409.2,1.549.2.97,0,1.959-.13,2.927-.195q3.293-.219,6.586-.44a92.457,92.457,0,0,0,11.2-.981C686.022,149.334,685.754,147.877,684.824,147.849Z" transform="translate(-1.904 -4.864)" fill="#8e8f94"/></g></svg>