<svg xmlns="http://www.w3.org/2000/svg" width="146.317" height="109.319" viewBox="0 0 146.317 109.319"><g transform="translate(-20.88 -14.653) rotate(-2)"><path d="M160.856,26.066c-2.658-4.469-7.718-5.519-12.548-5.646-8.631-.226-17.322.177-25.955.282q-28.8.353-57.594.79c-9.93.141-19.862.233-29.79.439-5.217.107-11.129.384-13.169,6.018a1.725,1.725,0,0,0-.078.988,1.262,1.262,0,0,0-.825,1.158c-1.019,17.244-.8,34.476-.248,51.741q.433,13.428,1.247,26.839c.288,4.805.2,10.637,4.53,13.756,4.866,3.5,12.736,2.019,18.3,1.955l25.768-.3,52.525-.611c8.584-.1,17.188-.028,25.768-.3,5-.158,9.214-1.511,11.021-6.587,2.227-6.257,1.2-14.236,1.38-20.763l.713-26.4.687-25.42C162.747,38.324,163.925,31.225,160.856,26.066ZM25.36,28.93c2.068-4.979,15.251-3.1,19.539-3.163l21.846-.3q21.846-.3,43.692-.6,9.93-.153,19.86-.312c6.976-.109,15.577-1.536,22.419.209,7.4,1.887,6.206,10.362,6.029,16.316q-.091,3.055-.182,6.113a1.6,1.6,0,0,0-.826-.169c-22.642,1.137-45.321,1.88-67.991,2.065q-16.76.138-33.518-.1c-5.416-.073-10.844-.089-16.253-.364-5.434-.276-10.743-1.4-16.141-1.84-.09-5.544-.189-11.088-.334-16.63A1.966,1.966,0,0,0,25.36,28.93ZM156.822,105.6c-.091,3.046.241,6.723-.951,9.6-1.925,4.648-6.826,3.852-11.044,3.9l-21.8.275c-29.057.367-58.153,1.213-87.212,1.1-4.307-.016-8.07-.312-9.339-5.318-.918-3.621-.681-7.767-.887-11.461q-.667-11.925-1.059-23.861c-.35-10.454-.5-20.913-.665-31.37,8.448,3.9,19.391,3.31,28.423,3.475q17.742.324,35.489.25,35.005-.146,69.963-1.771a1.753,1.753,0,0,0,.735-.192q-.2,6.663-.4,13.325Q157.448,84.584,156.822,105.6Z" fill="#f3e8e8"/><path d="M36.2,35.612a4.53,4.53,0,0,0-1.294-2.747c-1.08-1.061-3.45-.866-4.866-.982A1.218,1.218,0,0,0,28.7,33.4a.718.718,0,0,0-.585.294,4.855,4.855,0,0,0-.1,5.7,4.414,4.414,0,0,0,5.722,1.413A5.377,5.377,0,0,0,36.2,35.612ZM31.922,38.6c-1.926.425-3.249-2.33-2.38-3.8a.811.811,0,0,0,.064-.189,1.565,1.565,0,0,0,.437.127c.978.124,1.959.217,2.94.311C33.8,36.181,33.451,38.258,31.922,38.6Z" fill="#f3e8e8"/><path d="M135.03,28.538c-10.251-.094-20.772,1.711-31.024,2.3-21.193,1.213-42.388.9-63.587,1.674a.8.8,0,0,0-.666,1.238.8.8,0,0,0-.146.361c-.2,1.786-.366,3.566-.5,5.358a1.434,1.434,0,0,0,1.415,1.415c17,.574,34.02.461,51.026.258,16.918-.2,34.155.042,51-1.612a1.426,1.426,0,0,0,1.279-1.07,1.445,1.445,0,0,0,.339-.591C145.974,31.858,140.308,28.587,135.03,28.538Zm-93.282,9.52c-.16-1.281-.323-2.561-.509-3.84,16.224,1.293,32.622.861,48.868.223q11.917-.468,23.818-1.3,5.949-.417,11.892-.925c3.061-.261,17.437-2.992,15.652,4.537-16.619-.081-33.3,1.139-49.924,1.372C74.944,38.356,58.348,38.131,41.748,38.058Z" fill="#f3e8e8"/><path d="M70.892,76.858a1.722,1.722,0,0,0-3.366.455,16.784,16.784,0,0,1-.349,3.489L64.056,77.1a1.842,1.842,0,0,0-2.22-.286c-1.657,1-1.93,2.421-2.151,4.221-.029.237-.043,1.609-.316,1.633.241-.021-.606-1.581-.658-1.684a31.06,31.06,0,0,0-2.343-3.652.524.524,0,0,0-.967.262c-.165,2.556.817,7.712,4.026,8.214a3.09,3.09,0,0,0,2.979-1.365,8.553,8.553,0,0,0,.672-2.823l3.3,3.944a1.863,1.863,0,0,0,2.9-.374A10.216,10.216,0,0,0,70.892,76.858Z" fill="#f3e8e8"/><path d="M90.916,76.268a1.3,1.3,0,0,0-2.015.26,6.567,6.567,0,0,0-.839,2.58,5.992,5.992,0,0,1-.52,1.34,27.6,27.6,0,0,0-3.364-3.38c-1.1-.918-3.229-.424-3.107,1.288a6.787,6.787,0,0,1-.62,3.469A4.725,4.725,0,0,1,79.066,78c.073-1.276-2.042-1.6-2.262-.306a7.642,7.642,0,0,0,3.433,7.821,1.655,1.655,0,0,0,2-.258,8.76,8.76,0,0,0,1.938-3.127,23.476,23.476,0,0,1,1.806,2.24,1.87,1.87,0,0,0,2.89.372C90.886,82.807,93.22,78.757,90.916,76.268Z" fill="#f3e8e8"/><path d="M113.844,77.448a3.46,3.46,0,0,0-1.306,1.049c-.4.62-.162,1.664-.528,2.189-1.51,2.169-3.546-1.916-4.917-3a1.921,1.921,0,0,0-2.622,0,7.9,7.9,0,0,0-2.211,3.06c-.988-1.144-1.969-2.295-2.956-3.44-.823-.953-2.407.285-1.74,1.343,1.489,2.359,3.017,4.7,4.442,7.1.836,1.408,3.479.929,3.294-.892a4.949,4.949,0,0,1,.575-3.131c1.755,2.079,3.215,4.619,6.426,4.163,3.4-.483,3.545-4.425,3.871-7.109C116.318,77.579,114.763,76.91,113.844,77.448Z" fill="#f3e8e8"/></g></svg>