<svg xmlns="http://www.w3.org/2000/svg" xmlns:xlink="http://www.w3.org/1999/xlink" width="1921.141" height="751.261" viewBox="0 0 1921.141 751.261"><defs><linearGradient id="a" x1="-0.193" y1="0.5" x2="1.278" y2="0.5" gradientUnits="objectBoundingBox"><stop offset="0" stop-color="#6f6f6f"/><stop offset="0.108" stop-color="#5d5d5d"/><stop offset="0.22" stop-color="#363636"/><stop offset="0.338" stop-color="#131313"/><stop offset="0.402" stop-color="#060606"/><stop offset="0.465" stop-color="#0c0c0c"/><stop offset="0.556" stop-color="#1e1e1e"/><stop offset="0.66" stop-color="#3c3c3c"/><stop offset="0.752" stop-color="#5d5d5d"/><stop offset="1" stop-color="#6f6f6f"/></linearGradient><linearGradient id="b" x1="-0.178" y1="0.5" x2="1.252" y2="0.5" xlink:href="#a"/><linearGradient id="c" x1="-0.163" y1="0.5" x2="1.227" y2="0.5" xlink:href="#a"/><linearGradient id="d" x1="-0.148" y1="0.5" x2="1.203" y2="0.5" xlink:href="#a"/><linearGradient id="e" x1="-0.134" y1="0.5" x2="1.179" y2="0.5" xlink:href="#a"/><linearGradient id="f" x1="-0.12" y1="0.5" x2="1.155" y2="0.5" xlink:href="#a"/><linearGradient id="g" x1="-0.111" y1="0.5" x2="1.131" y2="0.5" xlink:href="#a"/><linearGradient id="h" x1="-0.103" y1="0.5" x2="1.108" y2="0.5" xlink:href="#a"/><linearGradient id="i" x1="-0.095" y1="0.5" x2="1.085" y2="0.5" xlink:href="#a"/><linearGradient id="j" x1="-0.087" y1="0.5" x2="1.069" y2="0.5" xlink:href="#a"/><linearGradient id="k" x1="-0.078" y1="0.5" x2="1.066" y2="0.5" xlink:href="#a"/></defs><g transform="translate(0 -171.257)"><path d="M1902,254.085a106.791,106.791,0,0,1-13.962,9.893,104.1,104.1,0,0,1-32.3,12.549c-17,3.509-34.452,3.953-51.333,4.386-13.226.34-25.722.661-38.014,2.335-26.378,3.589-49.435,14.149-73.845,25.33-19.638,8.994-39.941,18.3-62.138,23.61-32.25,7.722-51.577-3.323-72.038-15.02-11.3-6.461-22.982-13.142-37.184-16.53a105.959,105.959,0,0,0-15.951-2.662c-18.517-1.526-31.416,3.889-46.349,10.146-3.289,1.378-6.661,2.792-10.2,4.176a186.943,186.943,0,0,1-33.426,10.081c-26.769,5.223-47.948,6.588-66.656,4.3a125.268,125.268,0,0,1-43.413-13.547c-10.743-5.658-20.644-13.074-31.158-23.347-6.4-6.295-12.57-13.192-18.538-19.86-11.109-12.423-22.6-25.268-36.652-35.553-15.872-11.681-38.085-12.975-59.568-14.223-16.881-.982-32.819-1.909-45.677-7.546-15.581-6.829-24.4-16.379-32.936-25.617-14.726-15.944-28.642-31.007-75.107-32.968-4.647-.195-9.439-.263-14.236-.192-54.248.763-101.8,24.675-141.162,47.964-5.1,3.015-10.2,6.1-15.344,9.217l-8.023,4.849c-35.88,21.624-76.544,46.135-127.067,53.77-44.277,6.687-71.457-10.977-100.236-29.682-13.5-8.775-27.462-17.849-43.355-24.175-54.231-21.457-133.574-28.048-203.582-33.864-29.248-2.428-56.872-4.723-81.6-7.916-28.9-3.771-64.854-8.469-88.741-25.284q-2.037-1.436-3.916-2.947c-16.121-12.972-23.766-30-31.154-46.463C143.22,90.59,139.18,81.59,133.927,73.26,120.517,52.007,102.6,36.86,79.139,26.949c-28.8-12.24-62.421-15.326-98.28-16.815V8.321C16.2,9.813,51.253,13.009,80.347,25.373c23.912,10.1,42.155,25.512,55.784,47.117,5.316,8.423,9.381,17.476,13.31,26.235,7.313,16.28,14.871,33.117,30.639,45.8q1.819,1.469,3.8,2.866c23.355,16.438,58.916,21.083,87.487,24.814,24.655,3.184,52.246,5.476,81.457,7.9,70.219,5.834,149.812,12.444,204.45,34.065,16.146,6.424,30.216,15.567,43.82,24.41,28.305,18.4,55.053,35.779,98.143,29.268,49.937-7.546,90.356-31.906,126.02-53.4l8.015-4.843c5.154-3.12,10.266-6.214,15.365-9.232,39.68-23.477,87.657-47.584,142.632-48.356,4.871-.071,9.713,0,14.423.195,47.661,2.011,62.566,18.149,76.98,33.753,8.385,9.074,17.047,18.455,32.167,25.083,12.367,5.421,28.036,6.332,44.622,7.3,21.923,1.273,44.589,2.591,61.092,14.739,14.232,10.412,25.793,23.338,36.972,35.838,5.947,6.65,12.093,13.522,18.451,19.771,10.357,10.118,20.087,17.417,30.623,22.964a122.43,122.43,0,0,0,42.4,13.238c18.359,2.249,39.211.893,65.643-4.269a183.908,183.908,0,0,0,32.907-9.933c3.513-1.374,6.865-2.78,10.137-4.148,15.3-6.412,28.521-11.947,47.811-10.372a109.337,109.337,0,0,1,16.428,2.737c14.61,3.487,26.466,10.267,37.928,16.821,19.938,11.4,38.766,22.164,69.8,14.736,21.914-5.248,42.093-14.492,61.607-23.431,23.53-10.776,47.857-21.92,74.684-25.571,12.467-1.7,25.635-2.035,38.372-2.36,16.74-.429,34.049-.874,50.764-4.321a101.331,101.331,0,0,0,31.441-12.225A106.7,106.7,0,0,0,1902,251.346Z" transform="translate(19.141 587.759)" opacity="0.7" fill="url(#a)" style="mix-blend-mode:screen;isolation:isolate"/><path d="M1902,237.324a134.394,134.394,0,0,1-15.054,8.135,169.073,169.073,0,0,1-33,11.632c-16.57,3.87-33.339,5.7-49.555,7.465-13.272,1.445-25.809,2.811-37.7,5.2-24.082,4.834-45.2,15.755-67.553,27.319-19.888,10.288-40.456,20.926-63.6,27.118-33.476,8.951-55.049-2.375-77.881-14.365-10.5-5.513-21.349-11.212-33.517-14.81a146.578,146.578,0,0,0-15.2-3.765c-16.86-3.049-27.6.052-41.2,3.987-3.239.933-6.615,1.912-10.249,2.854A277.4,277.4,0,0,1,1424.18,305c-20.805,2.832-45.041,5.2-67.088,1.269a114.544,114.544,0,0,1-41.378-16c-9.7-6.119-18.7-14.044-28.322-24.95-4.165-4.719-8.135-9.578-12.342-14.714-12.263-14.992-24.942-30.494-42.093-41.688-17.9-11.684-41.312-11.218-63.949-10.767-14.668.29-28.53.568-39.725-2.619-15.5-4.414-24.556-11.576-34.144-19.159-15.369-12.154-31.262-24.722-76.166-28.422-4.572-.38-9.365-.692-14.236-.924C948.421,144.3,900.028,165.4,860.124,186.408c-6.462,3.4-12.807,6.891-19.526,10.585l-8.484,4.664c-38.654,21.268-78.62,43.26-127.324,49.959-42.151,5.816-68.637-10.248-96.685-27.236-13.081-7.922-26.611-16.114-41.873-21.871-53.637-20.243-130.755-26.507-198.8-32.036-26.408-2.147-51.353-4.17-74-6.872-27.6-3.364-61.964-7.549-85.228-22.34q-1.993-1.274-3.833-2.61c-16.026-11.595-24.344-26.828-32.388-41.567-4.132-7.57-8.409-15.4-13.688-22.671C144.62,55.566,126.937,42.075,104.238,33.17,72.083,20.553,32.466,18.481-5.844,16.476q-6.615-.347-13.3-.717V13.94c4.506.253,9,.494,13.467.726,38.563,2.02,78.438,4.1,111.05,16.9,23.143,9.078,41.15,22.81,55.062,41.984,5.34,7.357,9.639,15.236,13.8,22.853,7.948,14.563,16.167,29.62,31.827,40.946q1.794,1.3,3.721,2.536c22.745,14.458,56.727,18.6,84.036,21.926,22.583,2.693,47.5,4.716,73.874,6.857,68.251,5.547,145.609,11.83,199.641,32.221,15.494,5.844,29.124,14.1,42.309,22.084,27.6,16.713,53.683,32.5,94.7,26.859,48.143-6.625,87.885-28.49,126.315-49.635l8.48-4.664c6.732-3.7,13.09-7.2,19.572-10.606,40.253-21.188,89.156-42.484,146.178-39.714,4.909.238,9.738.547,14.348.93,45.8,3.774,62.732,17.167,77.674,28.984,9.39,7.425,18.26,14.443,33.239,18.7,10.743,3.061,24.364,2.792,38.787,2.5,22.035-.439,47.005-.936,65.622,11.215,17.433,11.379,30.212,27,42.57,42.108,4.194,5.13,8.156,9.97,12.3,14.665,9.493,10.755,18.343,18.56,27.861,24.558a111.667,111.667,0,0,0,40.365,15.625c21.607,3.848,45.531,1.507,66.083-1.291a274.507,274.507,0,0,0,32.952-6.832c3.6-.936,6.956-1.906,10.166-2.835,13.447-3.889,25.058-7.249,42.653-4.055a149.258,149.258,0,0,1,15.527,3.839c12.438,3.679,23.409,9.439,34.02,15.014,22.3,11.712,43.359,22.779,75.651,14.14,22.845-6.112,43.281-16.679,63.04-26.9,22.533-11.657,43.816-22.665,68.309-27.582,12.031-2.412,24.634-3.787,37.981-5.241,16.121-1.757,32.795-3.577,49.177-7.4a166.226,166.226,0,0,0,32.442-11.443A132,132,0,0,0,1902,234.943Z" transform="translate(19.141 577.751)" opacity="0.7" fill="url(#b)" style="mix-blend-mode:screen;isolation:isolate"/><path d="M1902,223.123c-4.655,1.915-9.813,3.852-16.162,6.038l-3.783,1.307c-8.792,3.045-18.758,6.5-29.892,9.411-15.033,3.916-30.1,6.866-44.659,9.717-14.481,2.839-28.156,5.516-40.494,8.889-21.873,5.973-41.063,17.157-61.386,29-20.062,11.691-40.81,23.78-64.954,30.939-35.3,10.464-60.855-2.131-85.564-14.31-8.995-4.438-18.3-9.022-28.01-12.491-4.925-1.751-10.029-3.561-14.46-4.88-15.98-4.744-24.746-3.543-38.023-1.727-2.6.355-5.353.735-8.347,1.09-2.313.275-4.763.587-7.342.911-7.562.964-16.134,2.051-25.822,2.823-22.645,1.8-46.5,3.157-67.52-1.764a103.652,103.652,0,0,1-39.327-18.458c-11.109-8.333-19.46-18.566-25.494-26.55-2.392-3.163-4.78-6.434-7.2-9.754-12.87-17.633-26.179-35.869-46.478-47.633-20.386-11.826-46.428-8.991-69.393-6.5-12.051,1.31-23.434,2.545-32.649,1.476-16.52-1.927-26.349-7.237-37.732-13.386-15.672-8.463-33.438-18.059-74.908-23.18q-7.132-.876-14.236-1.656C959.26,135.961,908.1,155.5,870.1,173.248c-7.762,3.626-15.444,7.468-23.575,11.533l-1.935.967q-5.332,2.673-10.627,5.359c-37.815,19.113-76.922,38.877-124.094,44.73-40.033,4.97-65.884-9.495-93.259-24.805-12.633-7.064-25.693-14.365-40.261-19.557-53-18.9-127.669-24.836-193.549-30.074-23.762-1.89-46.208-3.675-66.881-5.955-26.279-2.9-58.978-6.511-81.706-19.4q-1.944-1.1-3.758-2.267c-15.959-10.214-24.983-23.656-33.712-36.656A212.651,212.651,0,0,0,182.672,77.8c-13.966-16.472-31.408-28.308-53.33-36.177C100.306,31.191,65.31,28.624,31.465,26.144,14.638,24.909-2.551,23.627-19.141,21.4V19.55C-2.5,21.808,14.783,23.1,31.706,24.34c34.053,2.5,69.268,5.078,98.7,15.647,22.342,8.021,40.116,20.073,54.327,36.842a213.4,213.4,0,0,1,14.19,19.483c9.016,13.429,17.529,26.112,33.114,36.091,1.175.751,2.388,1.489,3.65,2.2,22.226,12.6,54.588,16.172,80.589,19.042,20.619,2.279,43.044,4.062,66.777,5.949,66.075,5.254,140.97,11.209,194.346,30.241,14.784,5.272,27.944,12.63,40.668,19.746,26.952,15.07,52.421,29.3,91.4,24.465,46.644-5.788,83.791-24.564,123.122-44.443q5.307-2.678,10.631-5.359l1.939-.967c8.148-4.077,15.847-7.926,23.642-11.567,38.359-17.917,90.045-37.641,149.716-31.066q7.126.783,14.277,1.659c42.039,5.192,60.838,15.344,75.942,23.5,11.129,6.011,20.739,11.2,36.673,13.056,8.849,1.035,20.054-.185,31.922-1.476,23.451-2.548,50.033-5.439,71.245,6.86,20.7,12,34.132,30.4,47.122,48.2,2.421,3.314,4.8,6.576,7.189,9.732,5.959,7.885,14.194,17.982,25.1,26.164a101.066,101.066,0,0,0,38.326,18.007c20.564,4.812,44.144,3.472,66.528,1.686,9.614-.766,18.148-1.847,25.677-2.8,2.587-.327,5.042-.642,7.363-.917,2.974-.352,5.71-.729,8.293-1.081,13.189-1.8,22.728-3.113,39.369,1.825,4.506,1.337,9.643,3.163,14.614,4.93,9.859,3.521,19.232,8.142,28.3,12.611,25.295,12.475,49.194,24.258,83.309,14.137,23.82-7.061,44.427-19.069,64.36-30.68,20.469-11.931,39.813-23.2,62.043-29.274,12.446-3.4,26.179-6.091,40.718-8.936,14.518-2.845,29.526-5.785,44.472-9.674,11.017-2.888,20.926-6.319,29.667-9.346l3.792-1.31c6.823-2.35,12.263-4.411,17.184-6.471Z" transform="translate(19.141 565.516)" opacity="0.7" fill="url(#c)" style="mix-blend-mode:screen;isolation:isolate"/><path d="M1902,215.421c-4.825.886-10.274,1.909-17.284,3.558-6.9,1.625-14.431,3.886-22.4,6.282-3.845,1.155-7.824,2.35-11.943,3.54-8.065,2.317-16.146,4.574-24.09,6.792-21.719,6.069-42.234,11.8-58.961,17.741-19.718,7-37.01,18.34-55.323,30.34-20.162,13.216-41.013,26.881-66.2,35.1-38.16,12.453-67.645-1.7-96.17-15.394-6.4-3.076-13.031-6.258-19.572-9.031-3.177-1.337-6.1-2.635-8.808-3.842-1.719-.763-3.351-1.492-4.917-2.171-16.968-7.345-23.692-7.558-39.933-8.08l-1.4-.043c-6.271-.2-13.708.028-22.321.29-3.393.1-6.943.21-10.652.3l-.685.015c-23.048.553-46.872,1.127-67.267-4.809a92.856,92.856,0,0,1-37.28-20.923c-9.581-8.6-16.553-18.609-22.662-28.144l-3.044-4.772c-12.35-19.455-26.354-41.5-49.887-53.6-23.517-12.1-52.591-5.887-75.95-.9-8.991,1.918-17.483,3.731-24.414,4.2-19.834,1.35-30.751-2.437-47.3-8.173-15.079-5.226-33.845-11.728-67.719-17.33-4.742-.788-9.485-1.575-14.232-2.391-47.745-8.182-94.476-1.328-151.518,22.235-8.455,3.49-16.7,7.215-26.59,11.718-5.743,2.628-11.445,5.291-17.13,7.944-38.8,18.115-75.456,35.226-121.411,40.3-37.907,4.2-63.164-8.7-89.887-22.35-12.164-6.214-24.742-12.636-38.592-17.266-53-17.707-126.016-23.338-190.438-28.308-20.365-1.572-39.589-3.055-57.62-4.843-26.312-2.616-56.137-5.581-78.172-16.45-1.271-.624-2.492-1.273-3.684-1.93-15.951-8.83-25.727-20.475-35.178-31.733-4.46-5.312-9.078-10.8-14.3-15.981-14.244-14.1-31.453-24.274-52.616-31.124C128.719,47.874,98.391,45.02,69.06,42.258c-26.844-2.53-54.6-5.143-78.758-11.947-3.256-.92-6.387-1.989-9.443-3.147V25.089c3.331,1.306,6.732,2.517,10.307,3.524,23.883,6.733,51.5,9.331,78.2,11.845,29.5,2.777,60.008,5.649,86.054,14.078,21.561,6.977,39.09,17.346,53.592,31.7,5.295,5.238,9.933,10.764,14.423,16.11,9.763,11.629,18.982,22.612,34.564,31.239,1.159.639,2.346,1.266,3.576,1.872,21.57,10.64,51.1,13.575,77.15,16.166,17.99,1.785,37.2,3.268,57.545,4.834,64.6,4.985,137.835,10.634,191.186,28.462,14.053,4.695,26.723,11.165,38.978,17.423,26.32,13.439,51.167,26.136,88.147,22.053,45.448-5.022,81.889-22.035,120.472-40.044,5.689-2.656,11.4-5.322,17.151-7.953,9.921-4.516,18.181-8.25,26.677-11.762,57.616-23.8,104.883-30.71,153.254-22.414q7.114,1.218,14.211,2.388c34.14,5.646,53.035,12.194,68.218,17.457,16.188,5.612,26.877,9.331,46.05,8.009,6.7-.454,15.083-2.245,23.962-4.139,23.849-5.093,53.546-11.431,78.01,1.149,24.074,12.376,38.222,34.661,50.705,54.32l3.036,4.769c6.047,9.427,12.932,19.316,22.342,27.764a90.391,90.391,0,0,0,36.287,20.391c19.938,5.8,43.517,5.232,66.3,4.686l.681-.015c3.7-.09,7.251-.2,10.635-.3,8.671-.263,16.162-.5,22.525-.287l1.4.043c16.179.516,23.567.754,41.055,8.324q2.361,1.024,4.942,2.181c2.7,1.2,5.6,2.489,8.763,3.824,6.6,2.8,13.255,6,19.692,9.084,27.973,13.433,56.9,27.322,93.866,15.255,24.838-8.108,45.547-21.679,65.568-34.8,18.443-12.089,35.859-23.5,55.88-30.618,16.827-5.977,37.388-11.718,59.156-17.8,7.94-2.215,16.013-4.469,24.07-6.783,4.107-1.186,8.073-2.378,11.91-3.533,8.015-2.409,15.581-4.686,22.575-6.329,7.363-1.733,13.019-2.78,18.019-3.7Z" transform="translate(19.141 547.15)" opacity="0.7" fill="url(#d)" style="mix-blend-mode:screen;isolation:isolate"/><path d="M1902,228.859a87.986,87.986,0,0,0-18.413.618c-10.7,1.433-22.658,5.044-35,8.935a783.219,783.219,0,0,0-80.95,30.454c-17.591,7.9-33.019,19.264-49.347,31.3-20.187,14.878-41.059,30.263-67.354,39.658-43.093,15.4-79.738-2.944-112.067-19.131l-5.847-2.922c-4.921-2.431-9.145-4.877-12.973-7.16l-3.061-1.825c-13.609-8.126-18.193-10.866-33.264-13.806-8.476-1.656-19.863-2.122-32.782-2.52l-6.516-.188c-21.362-.6-43.451-1.211-61.856-7.635-13.688-4.778-24.884-12.206-35.228-23.381-8.6-9.288-14.747-20.218-19.834-29.735-11.217-20.978-25.174-47.087-52.184-59.367-27.479-12.5-59.809-1.421-83.413,6.662-5.569,1.909-10.83,3.709-15.261,4.914-26.773,7.28-39.813,4.052-71.312-3.74-11.927-2.953-26.777-6.628-46.1-10.653-4.975-1.035-9.626-2.057-14.219-3.126-49.551-11.505-97.35-7.289-154.982,13.664-8.625,3.135-17.3,6.641-27.662,10.943-7.807,3.252-15.615,6.634-23.164,9.905-38.168,16.534-74.214,32.153-119.206,36.5-35.805,3.453-60.477-7.885-86.59-19.891-11.669-5.368-23.737-10.915-36.843-14.977-53.7-16.648-125.863-21.976-189.533-26.677-16.2-1.2-31.5-2.326-46.154-3.6-25.012-2.184-53.367-4.658-74.63-13.5-1.233-.513-2.429-1.047-3.6-1.591-16.038-7.444-26.644-17.284-36.9-26.8-4.51-4.188-9.169-8.515-14.281-12.639C216.978,105.838,200,97.31,179.562,91.47c-22.143-6.326-47.67-9.232-72.358-12.04-28.347-3.225-57.661-6.56-82.047-15.1-18.671-6.539-32.637-17.3-44.3-30.439V30.6C-7.285,44.55,6.943,55.941,26.195,62.687,50.26,71.116,79.4,74.43,107.573,77.639c24.813,2.823,50.473,5.742,72.865,12.138,20.789,5.943,38.073,14.625,52.832,26.541,5.166,4.17,9.855,8.525,14.389,12.731,10.594,9.831,20.6,19.119,36.291,26.4,1.134.525,2.3,1.044,3.5,1.544,20.839,8.667,47.724,11.014,73.724,13.281,14.63,1.276,29.917,2.4,46.108,3.6,63.841,4.713,136.2,10.054,190.231,26.8,13.285,4.12,25.436,9.708,37.184,15.11,25.735,11.836,50.037,23.014,85,19.635,44.5-4.3,80.344-19.829,118.292-36.267,7.558-3.277,15.37-6.662,23.2-9.924,10.4-4.315,19.107-7.836,27.778-10.986,58.23-21.176,106.585-25.42,156.78-13.766,4.572,1.063,9.2,2.079,14.149,3.11,19.377,4.034,34.252,7.719,46.208,10.677,31.827,7.879,43.729,10.823,69.7,3.759,4.34-1.18,9.556-2.968,15.079-4.858,24.107-8.256,57.126-19.557,85.705-6.566,27.7,12.6,41.827,39.019,53.181,60.247,5.037,9.423,11.117,20.243,19.576,29.376,10.087,10.9,20.972,18.133,34.257,22.77,17.952,6.267,39.792,6.875,60.909,7.462l6.528.188c13.061.4,24.585.877,33.3,2.579,15.573,3.039,20.639,6.063,34.169,14.146l3.061,1.825c3.787,2.255,7.957,4.67,12.8,7.064l5.86,2.925c31.786,15.916,67.811,33.963,109.646,19,25.926-9.266,46.652-24.539,66.7-39.312,16.437-12.114,31.964-23.557,49.8-31.563a786.321,786.321,0,0,1,81.258-30.575c12.471-3.932,24.572-7.583,35.515-9.05a92.011,92.011,0,0,1,18.849-.655Z" transform="translate(19.141 508.091)" opacity="0.7" fill="url(#e)" style="mix-blend-mode:screen;isolation:isolate"/><path d="M1902,290.595a50.249,50.249,0,0,0-19.547-2.854c-12.109.482-25.415,4.562-35.656,8.061-23.1,7.861-49.63,20.1-78.849,36.372-15.469,8.611-29.049,19.872-43.426,31.795-20.141,16.7-40.972,33.978-68.455,44.684-45.942,17.889-90.535-2.666-120.082-19.687a97.5,97.5,0,0,1-12.2-8.312c-4.78-3.784-8.16-7-11.146-9.84-5.83-5.553-10.046-9.563-20.174-13.328-8.654-3.215-20.781-4.59-32.6-5.6-3.571-.306-7.209-.578-10.88-.852-20.158-1.517-41-3.086-57.915-9.995-13.335-5.451-23.875-13.664-33.173-25.846-7.188-9.417-11.956-19.758-17.01-31.322-10.93-25.024-24.73-49.659-51.441-60.362-32.678-13.105-69.522,5.748-91.532,17.012-1.96,1-3.8,1.943-5.5,2.792-35.867,17.9-50.319,14.263-119.745-3.234-4.747-1.2-9.526-2.5-14.207-3.864-51.333-15-100.2-13.436-158.45,5.093-10.166,3.231-20.228,6.949-28.733,10.162-9.763,3.7-19.435,7.607-28.8,11.385-37.633,15.193-73.18,29.543-117.4,33.188-33.729,2.783-57.886-7.033-83.438-17.423-11.129-4.525-22.637-9.2-34.95-12.7-55.789-15.836-128.653-20.842-192.938-25.265-10.4-.71-20.56-1.412-30.378-2.134l-1.171-.09c-24.381-1.8-49.593-3.663-69.9-10.467-1.2-.4-2.371-.825-3.522-1.248-16.32-6.063-27.392-13.757-39.115-21.9-4.385-3.049-8.924-6.2-13.754-9.257-14.717-9.306-31.478-16.188-51.241-21.037-18.131-4.448-38.563-7.116-58.318-9.7-30.349-3.966-61.735-8.068-86.349-18.708-33.139-14.328-47.122-42.88-61.922-73.109C-7.218,62.167-12.675,51.073-19.141,40.4V36.068C-11.645,47.891-5.541,60.3.381,72.384c14.647,29.911,28.48,58.163,60.851,72.16,24.244,10.48,55.411,14.554,85.552,18.492,19.842,2.594,40.357,5.272,58.658,9.763,20.07,4.923,37.1,11.913,52.059,21.377,4.871,3.079,9.427,6.248,13.837,9.312,11.59,8.055,22.537,15.663,38.538,21.608q1.676.621,3.434,1.217c19.946,6.681,44.954,8.531,69.14,10.316l1.175.086c9.809.726,19.967,1.421,30.357,2.137,64.443,4.429,137.486,9.451,193.582,25.376,12.471,3.543,24.053,8.247,35.253,12.8,25.207,10.248,49,19.922,82,17.21,43.745-3.6,79.09-17.871,116.51-32.978,9.369-3.784,19.057-7.7,28.849-11.41,8.538-3.225,18.65-6.959,28.879-10.214,58.882-18.723,108.321-20.3,160.3-5.109,4.643,1.356,9.385,2.647,14.094,3.833,68.488,17.262,82.732,20.848,117.607,3.447,1.694-.849,3.526-1.785,5.478-2.783,22.475-11.5,60.083-30.738,94.073-17.114,27.467,11,41.516,36.014,52.6,61.4,5.013,11.468,9.734,21.716,16.811,30.985,9.066,11.879,19.3,19.869,32.221,25.151,16.482,6.733,37.072,8.281,56.989,9.779,3.684.278,7.334.553,10.914.856,12.039,1.025,24.418,2.437,33.413,5.779,10.619,3.947,14.975,8.092,21,13.831,2.957,2.808,6.3,6,11,9.72a95.444,95.444,0,0,0,11.914,8.114c29.019,16.716,72.761,36.925,117.457,19.514,27.1-10.551,47.774-27.7,67.773-44.285,14.46-11.99,28.114-23.316,43.779-32.039,29.36-16.348,56.038-28.654,79.293-36.564,10.436-3.57,24.02-7.728,36.545-8.225A52.867,52.867,0,0,1,1902,288.6Z" transform="translate(19.141 421.254)" opacity="0.7" fill="url(#f)" style="mix-blend-mode:screen;isolation:isolate"/><path d="M1902,335.666c-5.286-3.4-11.241-6.471-20.664-6.922-10.141-.473-21.661,1.8-36.333,7.2-28.409,10.418-55.942,28.067-76.752,42.274-13.334,9.105-25.074,20.089-37.5,31.717-20.041,18.745-40.764,38.126-69.551,50.3-43.285,18.294-91.523,3.042-122.241-17.321a66.61,66.61,0,0,1-11.412-9.467,77.155,77.155,0,0,1-10.764-14.486c-3.758-6.137-7.01-11.437-15.527-16.237-8.634-4.862-21.254-7.1-32.458-8.654-4.647-.646-9.427-1.214-14.261-1.791-19.265-2.3-39.19-4.679-54.954-12.083-13.04-6.122-22.928-15.116-31.113-28.3-6.3-10.155-10.241-21.522-14.053-32.517l-.137-.392c-7.371-21.287-20.652-50.805-50.705-61.362-26.769-9.417-58.006-.247-95.464,28.017-34.929,26.359-55.452,27.693-122.013,7.941-4.676-1.39-9.452-2.937-14.186-4.6-53.056-18.68-102.989-19.749-161.925-3.481-8.546,2.357-18.019,5.343-29.8,9.386-11.624,4-23.036,8.312-34.074,12.481-37.2,14.044-72.329,27.307-115.95,30.256-31.781,2.14-55.435-6.162-80.5-14.949-10.515-3.688-21.383-7.5-32.832-10.424-61.362-15.681-142.1-20.456-206.971-24.3l-7.679-.454c-21.993-1.291-44.738-2.625-63.8-7.391-1.171-.29-2.313-.6-3.438-.9-17.072-4.7-29.46-10.745-42.579-17.142-3.887-1.893-7.824-3.814-11.96-5.736-14.834-6.885-31.383-12.12-50.593-16-13.4-2.706-28.123-4.787-42.354-6.8-33.235-4.7-67.6-9.569-92.595-22.878C66.8,195.7,56.735,169.932,46.079,142.65c-6.761-17.306-13.75-35.2-25.722-51.191C14.683,83.848,8.105,77.177,1.748,70.727L-.35,68.6C-8.938,59.855-14.988,52.572-19.141,46V41.484c.025.043.037.083.062.127C-15.067,49-8.489,57.236,1.619,67.528l2.093,2.128c6.408,6.5,13.027,13.213,18.775,20.923,12.105,16.163,19.136,34.164,25.934,51.565C58.956,169.117,68.9,194.595,96.277,209.17c24.555,13.074,58.654,17.9,91.631,22.569,14.277,2.023,29.045,4.114,42.533,6.838,19.443,3.926,36.212,9.226,51.25,16.209,4.149,1.927,8.106,3.855,12.006,5.757,13,6.338,25.274,12.324,42.088,16.957,1.1.3,2.222.6,3.368.89,18.775,4.692,41.366,6.02,63.214,7.3l7.679.454c65.008,3.845,145.912,8.63,207.569,24.388,11.574,2.956,22.5,6.789,33.081,10.5,24.759,8.682,48.147,16.867,79.239,14.782C773.09,332.9,808.019,319.71,845,305.747c11.059-4.176,22.492-8.491,34.157-12.512,11.848-4.065,21.37-7.061,29.979-9.439,59.593-16.45,110.119-15.36,163.815,3.543,4.688,1.649,9.414,3.184,14.049,4.559,69.268,20.561,86.727,17.105,119.367-7.53,38.281-28.885,70.415-38.167,98.247-28.385,30.98,10.884,44.53,40.909,52.026,62.548l.137.392c3.783,10.918,7.691,22.2,13.9,32.208,7.982,12.855,17.579,21.605,30.2,27.532,15.345,7.2,35.016,9.553,54.04,11.823,4.854.581,9.659,1.152,14.319,1.8,11.486,1.591,24.447,3.9,33.488,8.991,9.007,5.075,12.375,10.569,16.275,16.932a75.417,75.417,0,0,0,10.523,14.18,64.691,64.691,0,0,0,11.055,9.167c30.079,19.947,77.25,34.926,119.413,17.1,28.38-11.993,48.949-31.236,68.845-49.845,12.492-11.684,24.294-22.723,37.766-31.924,20.93-14.291,48.633-32.048,77.321-42.565,15.07-5.547,27.039-7.892,37.57-7.388A40.563,40.563,0,0,1,1902,333.288Z" transform="translate(19.141 351.662)" opacity="0.7" fill="url(#g)" style="mix-blend-mode:screen;isolation:isolate"/><path d="M1902,468.055c-5.565-5.424-11.354-10.251-21.773-11.61-10.573-1.378-22.67.707-37.014,6.356-28.189,11.073-54.709,31.563-74.667,48.177-11.167,9.3-21.08,19.8-31.569,30.911-19.871,21.046-40.419,42.812-70.651,56.634-42.9,19.61-95.053,7.32-124.392-14.958a52.935,52.935,0,0,1-10.606-10.616c-4.784-6.458-6.794-12.441-8.737-18.223-2.533-7.539-4.722-14.053-12.5-20.061-6.665-5.146-16.341-8.648-32.363-11.712-5.465-1.044-11.026-1.94-16.914-2.891-18.613-3-37.861-6.1-52.719-14-12.745-6.776-21.977-16.552-29.053-30.763-5.008-10.183-7.928-21.336-10.747-32.125l-.619-2.369c-8.92-33.963-25.735-54.944-49.979-62.366-42.516-13-82.67,24.45-93.961,36.242-31.349,32.734-55.531,42.63-124.21,19.106-4.659-1.594-9.418-3.391-14.161-5.34-55.448-22.8-104.916-26.4-165.4-12.052-9.124,2.165-19.227,4.979-30.884,8.608-13.389,4.185-26.412,8.8-39,13.263-36.86,13.065-71.673,25.4-114.849,27.64-29.942,1.551-54.377-5.59-78.031-12.5-9.747-2.845-19.821-5.785-30.241-8.126-64.8-14.56-144.367-19.332-198.582-21.658l-8.052-.334c-19-.772-38.65-1.572-55.859-4.333-1.134-.182-2.247-.377-3.347-.568-19.5-3.435-34.584-8.021-50.552-12.88l-5.639-1.711a366.823,366.823,0,0,0-49.983-10.955c-7.247-1.127-14.6-2.15-22.392-3.234-37.857-5.272-77-10.724-102.84-27.733-23.762-15.635-30.448-39.383-37.529-64.528-5.32-18.881-10.818-38.4-23.97-55.441-6.4-8.324-14.286-15.341-21.246-21.534-11.815-10.514-19.211-17.676-24.726-23.953-6.781-7.706-9.933-14.5-10.889-23.424-.864-8.108.909-17.046,2.969-27.4.44-2.227.9-4.519,1.337-6.878,2.7-14.35,5.432-41.552-6.59-62.53a55.1,55.1,0,0,0-18.534-19.2c-3.123-2.536-6.387-5.05-9.672-7.567V46.793c3.891,2.956,7.7,5.915,11.358,8.892a56.816,56.816,0,0,1,19.09,19.792c12.251,21.38,9.5,48.958,6.765,63.49-.444,2.366-.9,4.661-1.341,6.894-2.039,10.239-3.791,19.085-2.953,26.989.918,8.6,3.958,15.144,10.5,22.575,5.461,6.214,12.807,13.324,24.56,23.78,7.022,6.251,14.983,13.337,21.487,21.8,13.343,17.284,18.887,36.953,24.24,55.97,7,24.842,13.6,48.307,36.76,63.546,25.336,16.676,64.144,22.081,101.673,27.3,7.8,1.087,15.174,2.113,22.442,3.243a370.358,370.358,0,0,1,50.4,11.051l5.644,1.714c16.565,5.038,30.872,9.393,50.191,12.793,1.084.188,2.184.38,3.3.559,17.018,2.73,36.569,3.524,55.477,4.3l8.061.334c54.339,2.329,134.1,7.116,199.143,21.729,10.515,2.363,20.639,5.319,30.427,8.176,24.481,7.147,47.616,13.911,76.972,12.376,42.716-2.212,77.325-14.48,113.969-27.467,12.62-4.472,25.668-9.1,39.111-13.3,11.728-3.651,21.894-6.486,31.084-8.667,61.2-14.514,111.237-10.872,167.328,12.194,4.684,1.927,9.394,3.7,13.995,5.282,66.146,22.655,89.256,14.847,121.2-18.513,11.557-12.067,52.686-50.395,96.88-36.863,25.05,7.666,42.358,29.1,51.445,63.694l.619,2.369c2.8,10.718,5.7,21.8,10.64,31.844,6.9,13.853,15.855,23.356,28.185,29.917,14.448,7.685,33.443,10.745,51.81,13.7,5.656.911,11.5,1.853,17.01,2.906,16.491,3.154,26.515,6.807,33.513,12.213,8.227,6.356,10.6,13.408,13.11,20.876,1.906,5.674,3.875,11.536,8.5,17.791a51.011,51.011,0,0,0,10.212,10.22c27.961,21.232,80.008,33.592,121.378,14.684,29.8-13.627,50.2-35.235,69.929-56.13,10.536-11.159,20.485-21.7,31.748-31.078,20.1-16.728,46.814-37.364,75.344-48.572,14.842-5.847,27.466-7.99,38.575-6.539,10.029,1.306,16.129,5.64,21.354,10.471Z" transform="translate(19.141 195.361)" opacity="0.7" fill="url(#h)" style="mix-blend-mode:screen;isolation:isolate"/><path d="M1879.783,457c10.914,2.261,17,8.451,22.217,15.091v3.648c-5.718-7.6-11.391-14.612-22.874-16.994-11.063-2.286-23.4-.488-37.707,5.516-21.727,9.1-46.15,27.291-72.586,54.076-8.991,9.1-17.06,18.847-25.6,29.166-19.626,23.7-39.921,48.208-71.777,63.914-42.695,21.046-99.9,10.48-126.54-12.6a44.789,44.789,0,0,1-9.78-11.759c-4.165-7.345-5.245-14.544-6.287-21.506-1.308-8.738-2.546-16.994-9.879-24.336-6.317-6.323-16.279-10.884-32.309-14.782-6.117-1.489-12.7-2.811-19.074-4.092-18.119-3.641-36.852-7.407-50.975-15.82-12.562-7.484-21.134-18.041-26.985-33.218-3.862-10.134-5.835-21.046-7.741-31.6l-.814-4.479c-4.456-24.15-16.615-54.75-49.248-63.373-37.25-9.85-73.11,17.809-92.508,44.48-29.211,40.162-58.006,56.875-126.361,30.256-4.635-1.807-9.39-3.852-14.128-6.078-57.034-26.8-107.549-32.968-168.894-20.626-9.755,1.961-20.207,4.522-31.951,7.833-15.062,4.256-29.572,9.1-43.6,13.791-36.623,12.231-71.212,23.786-114.085,25.278-28.443.995-52.915-4.648-76.6-10.1-8.625-1.986-17.55-4.043-26.6-5.77-55.07-10.514-121.2-17.185-186.219-18.782-5.826-.142-11.711-.244-17.587-.343-14.31-.244-29.107-.494-42.72-1.4l-3.26-.229c-20.345-1.483-37.637-3.373-57.819-6.319-15.7-2.292-32.329-4.1-49.406-5.893-44.24-4.655-89.6-10.98-115.522-32.258-19.987-16.4-23.7-38.71-27.641-62.32-3.343-20.055-6.8-40.792-20.851-58.422-5.81-7.314-12.9-13.368-21.773-20.206-4.884-3.765-9.473-7.2-13.762-10.412-5.274-3.944-10.253-7.672-14.7-11.218C55.7,217.042,49.9,210.08,46.448,201.846c-4.3-10.261-3.962-22.062-3.131-35.316,1.325-21.163,1.3-43.21-7.716-61.057A60.8,60.8,0,0,0,19.322,85.582C8.143,74.967-5.159,64.688-19.141,54.656v-2.53C-4.478,62.587,9.5,73.311,21.178,84.406a62.461,62.461,0,0,1,16.7,20.425c9.178,18.158,9.207,40.424,7.87,61.785-.818,13.077-1.154,24.712,3.027,34.692,3.335,7.956,8.966,14.708,18.833,22.575,4.419,3.521,9.385,7.24,14.643,11.175,4.3,3.221,8.9,6.659,13.791,10.433,7.774,6,15.835,12.636,22.114,20.54,14.315,17.957,17.8,38.883,21.175,59.123,3.887,23.319,7.558,45.345,27.026,61.325,25.374,20.83,70.261,27.072,114.06,31.68,17.109,1.8,33.77,3.608,49.53,5.912,20.1,2.934,37.325,4.812,57.591,6.288l3.239.229c13.534.9,28.285,1.146,42.558,1.39,5.88.1,11.773.2,17.612.343,65.186,1.6,131.506,8.293,186.743,18.838,9.111,1.739,18.065,3.8,26.719,5.794,24.568,5.658,47.728,11.008,75.763,10.026,42.413-1.479,76.8-12.963,113.2-25.123,14.065-4.7,28.609-9.556,43.741-13.831,11.819-3.33,22.346-5.912,32.18-7.888,62.072-12.481,113.163-6.251,170.833,20.842,4.68,2.2,9.381,4.222,13.957,6.007,66.586,25.926,94.617,9.624,123.084-29.512,19.855-27.3,56.773-55.546,95.464-45.326,33.787,8.926,46.3,40.187,50.847,64.834l.818,4.485c1.9,10.492,3.854,21.339,7.67,31.344,5.7,14.8,14.016,25.061,26.162,32.3,13.725,8.176,32.209,11.891,50.087,15.487,6.4,1.285,13.019,2.616,19.194,4.117,11.138,2.709,25.008,6.909,33.513,15.425,7.724,7.737,9,16.228,10.34,25.216,1.026,6.832,2.085,13.9,6.113,21a42.948,42.948,0,0,0,9.381,11.28c25.967,22.489,81.731,32.786,123.346,12.265,31.407-15.48,51.557-39.819,71.046-63.351,8.193-9.9,16.665-20.126,25.71-29.29,26.644-26.992,51.328-45.354,73.355-54.583C1855.115,456.431,1868.063,454.569,1879.783,457Z" transform="translate(19.141 164.454)" opacity="0.7" fill="url(#i)" style="mix-blend-mode:screen;isolation:isolate"/><path d="M1838.371,462.828c14.788-6.585,28.43-8.207,40.535-4.821,11.923,3.333,17.89,11.672,23.094,20.311V482.8c-.133-.222-.266-.442-.395-.664-5.743-9.757-11.175-18.974-23.554-22.436-11.545-3.228-24.111-1.693-38.43,4.682-30.975,13.775-59.638,46.528-70.518,59.969-6.823,8.426-13.335,17.485-19.63,26.244-19.269,26.8-39.194,54.512-72.89,72.376-39.522,20.95-102.059,15.984-128.678-10.233a40.531,40.531,0,0,1-8.949-12.9c-3.48-8.123-3.613-16.438-3.746-24.481-.166-10.356-.324-20.141-7.33-28.916-6.009-7.524-15.964-13.034-32.275-17.862-6.6-1.933-13.758-3.651-20.685-5.306-17.8-4.266-36.212-8.673-49.788-17.627-12.417-8.231-20.336-19.567-24.913-35.671-2.828-10.02-3.945-20.66-5.025-30.951q-.349-3.377-.718-6.712c-1.819-16.487-10.187-55.766-48.533-64.386-39.908-9.053-73.994,22.76-91.075,52.742-17.176,30.155-35.614,46.762-58.027,52.275-19.614,4.818-42.662,1.257-70.452-10.894-4.485-1.961-9.227-4.253-14.094-6.814-58.359-30.936-109.92-39.655-172.382-29.2-10.382,1.739-21.183,4.046-33.027,7.058-16.653,4.241-32.537,9.263-47.9,14.121-36.478,11.53-70.938,22.427-113.633,23.119-28.164.463-53.862-3.83-78.724-7.975-6.428-1.072-12.882-2.147-19.4-3.15-43.6-6.709-109.069-15.653-173.856-15.907-18.858-.065-38.343.537-56.694,1.177l-3.169.1c-6.59.229-12.965.5-19.232.757-13.667.578-26.582,1.118-40.216,1.189-14.556.065-31.549.077-48.833-.8-35.29-1.8-82.3-9.087-105.817-33.558-16.57-17.241-17.653-39.529-18.7-61.084-1.022-20.92-2.072-42.549-16.8-60.417-6.62-8.052-15.39-14.319-22.288-18.881-7.658-5.056-15.274-9.47-22.637-13.738-3.264-1.893-6.466-3.75-9.568-5.6-10.286-6.146-20.785-13.2-27.836-23.125-8-11.264-9.821-24.113-10.6-36.32-.22-3.385-.378-6.854-.544-10.372-.768-16.676-1.57-33.923-8.31-49.221a71.033,71.033,0,0,0-14.016-20.583C30.821,93.366,6.112,76.218-19.141,59.82V57.414C6.789,74.207,32.316,91.76,50.127,111.8A72.779,72.779,0,0,1,64.45,132.848c6.852,15.545,7.654,32.919,8.434,49.724.158,3.509.32,6.968.536,10.35.764,11.993,2.542,24.607,10.324,35.557,6.84,9.63,17.118,16.534,27.2,22.56,3.094,1.847,6.283,3.694,9.539,5.581,7.392,4.29,15.041,8.719,22.757,13.816,7.027,4.645,15.959,11.036,22.749,19.292,15.058,18.272,16.125,40.146,17.151,61.3,1.084,22.266,2.11,43.3,18.251,60.093,22.965,23.9,69.231,31.029,104,32.8,17.2.877,34.136.871,48.65.8,13.571-.068,26.457-.608,40.1-1.18,6.271-.266,12.654-.534,19.252-.76l3.173-.105c18.376-.636,37.849-1.245,56.818-1.18,65,.256,130.63,9.223,174.338,15.947,6.528,1,12.994,2.082,19.435,3.157,25.859,4.309,50.27,8.4,78.143,7.932,42.226-.686,76.469-11.514,112.727-22.973,15.4-4.871,31.329-9.908,48.064-14.168,11.927-3.033,22.811-5.359,33.28-7.113,63.222-10.6,115.356-1.773,174.33,29.49,4.809,2.53,9.493,4.794,13.92,6.733,27.147,11.873,49.535,15.388,68.45,10.73,21.7-5.334,39.663-21.624,56.548-51.262,17.471-30.673,52.558-63.166,94.023-53.767,39.784,8.942,48.4,49.119,50.253,65.971.253,2.224.49,4.466.727,6.721,1.072,10.236,2.18,20.814,4.979,30.72,4.464,15.706,12.134,26.729,24.144,34.692,13.189,8.7,31.354,13.047,48.916,17.253,6.96,1.668,14.161,3.391,20.834,5.347,11.345,3.357,25.4,8.509,33.475,18.621,7.338,9.195,7.5,19.215,7.675,29.821.129,7.91.261,16.086,3.63,23.953a38.7,38.7,0,0,0,8.567,12.351c25.88,25.494,86.789,30.278,125.323,9.847,33.226-17.618,53.01-45.138,72.151-71.753,6.312-8.781,12.84-17.859,19.693-26.322C1780.651,506.579,1808.056,476.31,1838.371,462.828Z" transform="translate(19.141 134.883)" opacity="0.7" fill="url(#j)" style="mix-blend-mode:screen;isolation:isolate"/><path d="M1767.172,526.226c5.394-8.176,49.709-73.13,95.576-73.124a46.229,46.229,0,0,1,15.27,2.564c13.094,4.553,18.779,15.446,23.982,26.278v5.371q-.8-1.635-1.578-3.277c-5.486-11.462-10.664-22.288-23.438-26.729-39.564-13.763-86.266,37.351-107.62,69.717-4.726,7.153-9.323,14.625-13.766,21.849-18.741,30.457-38.118,61.952-73.886,82.3-25.893,14.73-65.755,19.215-96.943,10.906-22.276-5.93-37.184-17.581-41.976-32.792-2.782-8.84-1.993-18.189-1.229-27.236,1.013-12.049,1.972-23.427-4.755-33.719-9.987-15.292-31.677-21.281-54.638-27.628-17.462-4.824-35.519-9.813-48.509-19.27-23.8-17.337-24.659-43.748-25.49-69.288-.087-2.721-.174-5.421-.291-8.083-.582-13.324-5.752-57.412-47.819-65.405-42.047-8-74.58,27.875-89.654,61.016-16.919,37.187-38.127,58.132-64.842,64.034-22.741,5.025-49.593-1.4-79.8-19.085-70.249-41.144-129.114-49.978-209.986-31.5-18.135,4.145-35.282,9.3-51.864,14.294-36.092,10.854-70.2,21.117-112.271,21.117-.411,0-.822,0-1.233,0-42.23-.2-83.077-5.106-122.578-9.853-60.02-7.212-122.084-14.671-188.125-5.044-10.71,1.56-21.57,3.472-32.064,5.319-25.1,4.417-51.054,8.982-77.263,9.186-33.679.219-76.827-8.756-96.108-34.862-13.376-18.115-11.856-39.711-10.386-60.6,1.52-21.543,3.09-43.825-12.122-61.653-11.3-13.238-30.079-21.679-48.243-29.846-17.168-7.719-34.925-15.7-46.8-27.782C100.306,236.692,98.022,215.5,95.816,195c-1.333-12.379-2.712-25.179-7.151-37C74.205,119.5,29.426,93.317-13.879,68c-1.769-1.035-3.5-2.06-5.262-3.092V62.594c2.263,1.328,4.493,2.65,6.769,3.981,43.613,25.5,88.712,51.865,103.384,90.942,4.5,11.987,5.893,24.876,7.234,37.339,2.28,21.179,4.431,41.181,20.448,57.48,11.59,11.792,29.132,19.678,46.092,27.3,18.409,8.275,37.441,16.83,49.044,30.429,15.627,18.316,14.036,40.888,12.5,62.718-1.449,20.635-2.953,41.969,10.091,59.633,18.5,25.043,59.638,33.926,92.524,33.926.473,0,.951,0,1.42-.006,25.938-.2,51.756-4.744,76.727-9.136,10.519-1.853,21.4-3.765,32.155-5.334,66.461-9.689,128.745-2.2,188.985,5.031,39.41,4.735,80.161,9.63,122.2,9.831.407,0,.806,0,1.213,0,41.594,0,75.5-10.2,111.361-20.987,16.628-5,33.824-10.177,52.063-14.344,80.668-18.439,142.154-9.226,212.212,31.8,29.543,17.3,55.651,23.613,77.591,18.77,25.9-5.72,46.578-26.288,63.222-62.876,15.411-33.876,48.882-70.486,92.57-62.193,43.712,8.305,49.057,53.462,49.655,67.1.116,2.669.2,5.374.295,8.1.814,25.179,1.657,51.216,24.751,68.034,12.62,9.189,30.432,14.112,47.653,18.869,23.434,6.474,45.568,12.589,55.988,28.533,7.006,10.724,5.98,22.875,4.992,34.627-.752,8.914-1.532,18.13,1.171,26.708,4.593,14.594,18.953,25.781,40.423,31.5,30.465,8.108,69.376,3.734,94.638-10.644,35.286-20.073,54.534-51.361,73.151-81.618C1757.832,540.885,1762.438,533.4,1767.172,526.226Z" transform="translate(19.141 108.663)" opacity="0.7" fill="url(#k)" style="mix-blend-mode:screen;isolation:isolate"/></g></svg>