<svg xmlns="http://www.w3.org/2000/svg" width="96.717" height="95.43" viewBox="0 0 96.717 95.43"><g transform="matrix(0.921, -0.391, 0.391, 0.921, -369.9, -34.668)"><path d="M389.718,271.725a1.032,1.032,0,0,0,.238-1.206c-3.542-7.863-7.023-15.757-10.651-23.581a2.87,2.87,0,0,0,2.383-2.549,78.849,78.849,0,0,0,.626-9.142q.334-5.561.581-11.127.233-5.138.39-10.278c.069-2.269.7-5.481-.775-7.466-1.194-1.61-3.248-1.675-5.082-1.825-3.676-.3-7.359-.534-11.041-.729q-10.2-.541-20.419-.585-5.108-.021-10.215.082c-2.715.054-6-.3-8.557.854-1.992.9-2.76,2.584-2.956,4.68-.36,3.855-.393,7.775-.468,11.644a197.593,197.593,0,0,0,.8,23.712.544.544,0,0,0,.4.48.855.855,0,0,0-.277.685.464.464,0,0,0-.577.344,158.278,158.278,0,0,1-8.439,22.984.97.97,0,0,0,.1,1.019c-.047.859-.114,1.717-.152,2.577a.735.735,0,0,0,.723.723c24.248,1.071,48.563,1.7,72.829,2.266a.868.868,0,0,0,.848-.848A6.142,6.142,0,0,0,389.718,271.725Zm-72.834-1.674c23.717.422,47.43,1.252,71.145,1.835a5.238,5.238,0,0,1,.337,1.678c-23.765-.838-47.578-1.621-71.355-1.977C316.968,271.075,316.927,270.563,316.884,270.051Zm9.034-61.2c.424-3.777,3.858-3.7,6.857-3.778q4.467-.11,8.937-.117,8.938-.021,17.872.325c5.951.229,11.911.542,17.844,1.06,1.877.164,3.66.183,4.079,2.417a18.114,18.114,0,0,1,.009,3.8q-.134,4.5-.328,8.994-.4,9.208-1.066,18.4c-.094,1.317.152,3.379-.634,4.482-.63.883-.939.726-2.037.828-.706.065-1.417.1-2.124.149q-4.675.312-9.358.473a308.556,308.556,0,0,1-40.407-1.358c-.01,0-.019,0-.028,0a.492.492,0,0,0,.1-.316c-.122-5.926-.279-11.854-.262-17.782A163.343,163.343,0,0,1,325.918,208.853Zm-.852,37.291a.937.937,0,0,0,.5.207,283.832,283.832,0,0,0,41.684,1.414c3.4-.131,6.81-.3,10.206-.572l.177-.015a.927.927,0,0,0,.075.448c3.26,7.5,6.656,14.94,10.007,22.4-23.294-.6-46.6-.969-69.889-1.72A92.058,92.058,0,0,0,325.066,246.143Z" fill="#8e8f94"/><path d="M392.294,231.007c.549-4.732,1.645-10.506.229-15.181.808,0,.776-1.314-.085-1.4a314.774,314.774,0,0,0-49.38-1.121.639.639,0,0,0-.626.627c-.135,10.789-.526,21.627-.151,32.415-.264.042-.529.08-.791.128-.385.072-.255.611.087.64.293.025.589.04.883.059a.339.339,0,0,0,.278.019c3.81.218,7.718-.066,11.521-.111,4.089-.048,8.177-.063,12.266-.016,8.324.1,16.625.513,24.931,1.043.907.058.964-1.221.206-1.479C391.1,241.408,391.691,236.206,392.294,231.007ZM366.1,245.542c-4.228-.041-8.462-.021-12.689.107a96.81,96.81,0,0,0-10.434.583c.642-10.541.56-21.149.7-31.706a316.306,316.306,0,0,1,47.584,1.183c0,.018-.009.032-.009.051-.02,2.792.363,5.542.21,8.355-.147,2.69-.484,5.364-.773,8.041-.52,4.8-.9,9.638.105,14.378C382.583,245.905,374.335,245.621,366.1,245.542Z" transform="translate(-14.607 -5.45)" fill="#8e8f94"/><path d="M391.634,313l-1.321-4.018a.65.65,0,0,0-1.159-.132c-2.846.062-5.685.082-8.521.081a.231.231,0,0,0-.079,0c-10.991-.006-21.922-.446-32.9-1.1-.022-.062-.037-.128-.063-.187-.133-.3-.511-.1-.544.147v0c-1.1-.066-2.206-.131-3.31-.2,0-.055,0-.112,0-.167a.3.3,0,0,0-.588-.079c-.018.067-.032.137-.048.205q-.962-.061-1.924-.125c-.328-.022-.41.534-.079.581.622.087,1.247.166,1.871.248a24.875,24.875,0,0,0-.167,2.611c-.676-.063-1.351-.125-2.027-.19-.278-.027-.344.444-.066.491a233.992,233.992,0,0,0,50.312,2.637A.643.643,0,0,0,391.634,313Zm-44.865-1.84a.318.318,0,0,0,0,.06q-1.756-.151-3.514-.311a24.889,24.889,0,0,0,.447-2.557c1.114.141,2.232.271,3.35.4a5.961,5.961,0,0,1,.019.661A7.656,7.656,0,0,1,346.769,311.162Zm.645.115a8.069,8.069,0,0,0,.407-2.445q1.315.142,2.635.267c-.032.707.058,1.441.1,2.129a.25.25,0,0,0,.5,0c.037-.668.122-1.379.1-2.066,1.028.095,2.059.172,3.089.254a11.731,11.731,0,0,0,.095,2.395Q350.875,311.568,347.415,311.277Zm11,.8q-1.788-.108-3.576-.228a12.387,12.387,0,0,0,.1-2.373c1.053.08,2.109.146,3.164.212.056.368.185.717.254,1.085A5.013,5.013,0,0,1,358.412,312.074Zm.621.04a4.478,4.478,0,0,0-.209-2.381q1.645.1,3.292.172c.005.283.035.569.049.845.026.513.061,1.026.1,1.539Q360.648,312.207,359.033,312.115Zm3.852.209c.011-.524.021-1.048.022-1.572,0-.264.016-.537.01-.807.883.039,1.767.07,2.651.1a10.238,10.238,0,0,0,.424,2.3.29.29,0,0,0,.057.121Q364.466,312.4,362.885,312.324Zm3.707.164a.265.265,0,0,0,.077-.235,12.95,12.95,0,0,0-.335-2.182q1.56.048,3.12.077a6.76,6.76,0,0,0,.263,1.064c.134.467.263.935.417,1.4Q368.362,312.556,366.592,312.488Zm14.2.257q-1.332,0-2.661,0a1.851,1.851,0,0,0-.682-2.13c-.326-.189-.583.225-.377.488a1.968,1.968,0,0,1,.538,1.636q-1.725-.012-3.448-.041a3.94,3.94,0,0,0-.4-2.3c-.14-.23-.574-.155-.544.147.073.736.27,1.42.339,2.144-.944-.018-1.889-.032-2.833-.059a.324.324,0,0,0,0-.106c-.093-.5-.218-1-.335-1.492-.068-.288-.128-.585-.223-.867q5.245.089,10.474-.021A3.352,3.352,0,0,1,380.795,312.745Zm.806-2.63c.774-.017,1.547-.042,2.32-.065a.288.288,0,0,0,.016.274,17.54,17.54,0,0,1,1.336,2.371c-1.253.023-2.5.041-3.757.047A3.573,3.573,0,0,0,381.6,310.114Zm4.169,2.574a4.773,4.773,0,0,0-1.248-2.655c1.592-.049,3.181-.106,4.765-.182l.871,2.714Q387.962,312.646,385.77,312.688Z" transform="translate(-14.195 -59.106)" fill="#8e8f94"/><path d="M339.621,308.109a.28.28,0,0,0-.429.055c-.3.394-.191.774-.2,1.237a5.024,5.024,0,0,1-.279,1.547c-.141.421.542.721.727.307a6.026,6.026,0,0,0,.5-1.69C340.009,309.025,340.094,308.475,339.621,308.109Z" transform="translate(-13.152 -59.617)" fill="#8e8f94"/><path d="M374.969,333.822c-.73-2.955-1.51-5.9-2.271-8.846a.533.533,0,0,0-.5-.384c-12.971-.278-25.866-1.378-38.8-2.244-.34-.023-.426.554-.081.6.19.027.38.05.57.076-1.212,3.561-1.913,7.251-3.3,10.778a.585.585,0,0,0,.562.738,104.251,104.251,0,0,1,11.025-.331c.011.153.02.308.031.46.02.269.429.276.425,0,0-.15,0-.3,0-.449,2.02.04,4.04.118,6.059.21.01.079.022.16.032.239.034.283.473.3.455,0,0-.071-.006-.146-.01-.217q1.939.091,3.878.191c6.994.36,14.231.919,21.2-.073a.417.417,0,0,0,.213-.1A.524.524,0,0,0,374.969,333.822Zm-35.8-8.021q1.46.046,2.919.1c-.058.7-.1,1.4-.117,2.1-1.03.011-2.06.022-3.088.044C338.976,327.3,339.089,326.552,339.169,325.8Zm2.811,4.87q-1.669.016-3.338.031c.045-.628.093-1.255.153-1.882l0-.034c1.053.043,2.107.08,3.162.118C341.959,329.493,341.964,330.082,341.98,330.671Zm-7.719-5.009c.551.012,1.1.03,1.653.043-.178.8-.274,1.633-.429,2.43-.587.021-1.176.032-1.763.057A25.5,25.5,0,0,0,334.262,325.662Zm-.635,2.9c.584.029,1.168.053,1.752.08q-.226,1.054-.488,2.1c-.6.008-1.2.012-1.807.021a.27.27,0,0,0-.157.053C333.18,330.074,333.418,329.321,333.627,328.562Zm.767,4.606c-.793.039-1.587.086-2.379.147.275-.714.547-1.445.8-2.186a.265.265,0,0,0,.265.209c.55.007,1.1.009,1.65.016q-.2.784-.417,1.565A.223.223,0,0,0,334.395,333.168Zm.344-.017a.271.271,0,0,0,.063-.1c.186-.526.4-1.1.613-1.691.839.01,1.678.014,2.517.022.006.571.019,1.132.035,1.678C336.89,333.077,335.814,333.1,334.738,333.152Zm3.19-2.442c-.764.009-1.527.014-2.291.024.234-.666.461-1.355.657-2.05.56.025,1.12.046,1.68.069C337.942,329.406,337.929,330.062,337.928,330.71Zm.087-2.641c-.522.013-1.045.019-1.566.035a13.329,13.329,0,0,0,.4-2.375c.48.013.96.03,1.44.044C338.159,326.519,338.07,327.289,338.015,328.069Zm-1.153-3.045a6.6,6.6,0,0,0-.043-.66c-.025-.2-.322-.35-.431-.116a5.966,5.966,0,0,0-.294.783c-.582,0-1.165.009-1.747.018a17.538,17.538,0,0,0,.138-1.941c1.437.193,2.877.364,4.318.525a13.74,13.74,0,0,0-.376,1.4C337.907,325.032,337.384,325.022,336.862,325.024Zm1.613,8.03q.061-.832.117-1.665c1.139.011,2.278.018,3.416.027q.034.828.082,1.652Q340.283,333.039,338.476,333.055Zm3.688-7.969c-.977-.019-1.953-.04-2.927-.047a11.7,11.7,0,0,0,.019-1.356c1.014.111,2.031.207,3.047.3C342.248,324.351,342.2,324.718,342.163,325.085Zm30.254,3.032q.133.519.264,1.037a.41.41,0,0,0-.371-.265c-.7-.041-1.4-.072-2.1-.11q-.078-.412-.164-.82c.77.058,1.54.116,2.31.164A.335.335,0,0,0,372.417,328.118Zm-4.028-2.586c.682.022,2.394-.25,2.958.085a2.3,2.3,0,0,1,.909,1.73c-.8-.1-1.609-.194-2.415-.287-.09-.366-.185-.729-.29-1.086-.131-.448-.9-.387-.848.115.029.284.066.569.1.853q-1.269-.142-2.543-.278-.187-.629-.428-1.225C366.687,325.469,367.538,325.505,368.389,325.532Zm-2.322,4.987c-.96.024-1.917.05-2.865.057q-.093-.548-.185-1.1c.95.025,1.9.054,2.847.079Q365.969,330.038,366.067,330.519Zm-.422-1.97c-.936-.044-1.871-.089-2.808-.129q-.1-.553-.2-1.1,1.4.133,2.8.26Q365.539,328.062,365.645,328.549Zm-22.92.384c.724.025,1.45.043,2.175.066,0,.551.006,1.1.022,1.65-.751.006-1.5.008-2.253.015Q342.694,329.8,342.725,328.933Zm-.106,4.147q.007-.829.03-1.658c.766.006,1.532.007,2.3.012.02.516.042,1.029.064,1.529a.273.273,0,0,0,.078.182Q343.854,333.1,342.619,333.08Zm2.3-5.09c-.723,0-1.445,0-2.167,0q.033-1.032.052-2.065,1.141.045,2.281.1C345,326.67,344.95,327.326,344.923,327.99Zm.343-3.015c-.013.063-.021.13-.033.194-.8-.026-1.609-.054-2.413-.072,0-.352.006-.7,0-1.057,4.571.429,9.155.738,13.74.99,2.823.155,5.647.275,8.473.38q.089.578.2,1.15c-.94-.1-1.879-.2-2.821-.286-.047-.207-.092-.416-.145-.622a.3.3,0,0,0-.6.081c-.009.157-.013.316-.014.474-.883-.081-1.766-.16-2.651-.233-.025-.1-.049-.195-.078-.291a.244.244,0,0,0-.476.065c-.007.06-.01.121-.016.181-.876-.071-1.751-.144-2.627-.207-.036-.136-.067-.275-.106-.409a.3.3,0,0,0-.6.081c0,.093.006.188.007.282q-4.637-.321-9.279-.488c0-.045,0-.089,0-.135C345.843,324.73,345.334,324.646,345.266,324.974Zm16.548,3.4c-.809-.033-1.617-.073-2.427-.1-.047-.428-.1-.855-.168-1.279q1.235.114,2.47.232C361.716,327.608,361.758,327.992,361.814,328.377ZM347.851,328c-.712-.006-1.424-.013-2.135-.014.038-.642.075-1.283.1-1.928.679.032,1.358.071,2.037.107A16.479,16.479,0,0,0,347.851,328Zm.085,1.086c.051.512.118,1.027.19,1.54-.848.007-1.7.01-2.544.017.017-.542.043-1.083.073-1.622C346.415,329.046,347.175,329.065,347.936,329.088Zm-2.422,4.073a.252.252,0,0,0,.073-.2c-.024-.511-.027-1.019-.021-1.526.892.006,1.784.009,2.677.014.093.618.188,1.23.278,1.834C347.518,333.24,346.516,333.2,345.514,333.161Zm2.987-6.96q1.429.078,2.858.169a15.515,15.515,0,0,0,.005,1.675q-1.272-.022-2.545-.038A17.107,17.107,0,0,0,348.5,326.2Zm.429,2.915q1.263.036,2.526.067.074.711.174,1.421l-2.614.017C348.995,330.119,348.968,329.615,348.929,329.116Zm.175,4.193c-.021-.61-.037-1.229-.056-1.854l2.707.014c.1.673.2,1.338.288,1.988C351.063,333.406,350.084,333.355,349.1,333.309Zm2.987-6.891c.38.025.76.048,1.139.075.639.046,1.279.1,1.918.147.031.5.081,1,.144,1.5-.966-.026-1.932-.057-2.9-.077A16.356,16.356,0,0,0,352.091,326.419Zm.432,2.794,2.932.074q.1.654.223,1.305c-.938,0-1.875,0-2.812,0l-.243,0Q352.584,329.9,352.523,329.212Zm.248,4.281c-.041-.658-.072-1.334-.1-2.019h.2c.993,0,1.986,0,2.98,0,.142.734.286,1.46.419,2.169C355.1,333.6,353.938,333.554,352.771,333.493Zm3.272-6.779q1.174.1,2.348.206c0,.433.023.876.067,1.323-.719-.025-1.438-.052-2.157-.074Q356.192,327.432,356.043,326.714Zm.409,2.6,2.15.054c.064.408.141.816.225,1.221l-2.242,0Q356.525,329.951,356.452,329.312Zm.393,4.352a.258.258,0,0,0,0-.033c-.066-.7-.123-1.426-.185-2.156h2.363c.186.783.394,1.543.6,2.256C358.7,333.712,357.772,333.7,356.845,333.664Zm2.724-3.887c-.019-.128-.035-.258-.052-.388l2.486.064c.076.377.163.754.256,1.128l-2.561,0C359.652,330.317,359.608,330.048,359.568,329.778Zm.7,3.969c-.136-.758-.279-1.514-.414-2.271H362.5c.221.787.465,1.558.708,2.3C362.225,333.772,361.245,333.764,360.264,333.747Zm3.605.034c-.2-.761-.362-1.527-.5-2.3.96.013,1.928.04,2.9.061.123.689.228,1.384.294,2.088a.371.371,0,0,0,.039.13Q365.232,333.781,363.869,333.78Zm2.659-6.107q1.211.107,2.422.2c.047.282.1.564.153.846-.8-.041-1.588-.087-2.384-.125Q366.634,328.132,366.528,327.673Zm.354,1.914,2.413.067q.089.417.185.833c-.825-.011-1.653-.005-2.482.012C366.963,330.195,366.925,329.891,366.882,329.587Zm.224,1.975c.879.015,1.756.018,2.63,0,.176.715.357,1.424.537,2.126q-1.515.045-3.026.068a.345.345,0,0,0,.016-.119C367.218,332.964,367.169,332.268,367.106,331.562Zm3.853,2.1c-.1-.705-.194-1.42-.3-2.138.665-.03,1.328-.072,1.984-.144a.36.36,0,0,0,0-.72c-.7-.077-1.418-.118-2.135-.145-.044-.277-.088-.554-.135-.831.645.018,1.29.034,1.935.054a.387.387,0,0,0,.4-.485c.364,1.433.727,2.866,1.1,4.3C372.857,333.6,371.907,333.631,370.959,333.663Z" transform="translate(-8.518 -67.76)" fill="#8e8f94"/><path d="M449.263,336.4a76.506,76.506,0,0,1-4.178-7.646c.054-.012.111-.02.165-.033.365-.085.26-.6-.084-.625-.127-.008-.258-.006-.386-.013-.266-.575-.536-1.148-.789-1.73a.588.588,0,0,0-.53-.3q-2.492.323-4.989.444c-.022-.041-.041-.085-.063-.126a.291.291,0,0,0-.538.146c-1.346.054-2.694.075-4.048.043a.59.59,0,0,0-.254,1.113c.121.5.252,1,.389,1.5a.286.286,0,0,0,.106.373c.241.854.5,1.7.752,2.552l-.016,0c-.365.069-.2.6.151.548l.03,0c.085.282.171.565.255.847.037.127.072.263.106.4a.262.262,0,0,0,.1.41c.25,1.091.534,2.362,1.484,2.861,1.318.693,3.447.26,4.886.25,2.3-.015,4.6-.022,6.9-.048A.648.648,0,0,0,449.263,336.4Zm-4.254-5.34c.273.537.542,1.077.81,1.619-.779,0-1.565.035-2.355.094q-.221-.6-.432-1.194A4.011,4.011,0,0,0,445.01,331.057Zm-5.257-1.65c.507-.027,1.013-.063,1.517-.105.141.5.3,1,.48,1.5-.48.087-.961.172-1.442.26C440.137,330.5,439.951,329.952,439.752,329.407Zm.364,3.721c-.7.093-1.4.193-2.1.293q-.163-.578-.318-1.159c.658-.091,1.315-.188,1.973-.281Q439.893,332.556,440.116,333.128Zm1.665-1.448c.089-.013.186-.023.283-.032q.237.605.5,1.2c-.566.054-1.133.114-1.7.185q-.153-.589-.32-1.176C440.954,331.8,441.369,331.742,441.782,331.68Zm2.117-2.7c.19.33.373.664.553,1a.327.327,0,0,0-.121.185l-.03.137a.375.375,0,0,0,0,.158c-.6.024-1.407.13-1.56.157l-.033.006c-.15-.471-.291-.948-.435-1.424C442.822,329.144,443.365,329.074,443.9,328.985Zm-.551-.924c-.469.007-.942.031-1.417.06q-.113-.332-.238-.659c.056,0,.114,0,.17,0C442.8,327.5,442.91,327.389,443.348,328.061Zm-2.491-.56c.04.229.085.459.135.69q-.823.07-1.647.166c-.094-.229-.189-.457-.29-.68C439.643,327.646,440.253,327.556,440.857,327.5Zm-2.114,1.953q.308.892.644,1.779l-1.867.352c-.166-.682-.291-1.388-.453-2.08C437.622,329.491,438.182,329.475,438.743,329.453Zm-.558-1.74c.074.251.153.5.233.753-.526.068-1.05.14-1.57.213a7.29,7.29,0,0,0-.352-.926C437.058,327.75,437.621,327.734,438.184,327.714Zm-3.475,1.272c-.156-.418-.315-.836-.482-1.249.614.015,1.227.019,1.841.019a.206.206,0,0,0-.016.069,8.1,8.1,0,0,0,.017.967C435.613,328.857,435.158,328.923,434.709,328.986Zm.961,2.673c-.25-.7-.5-1.406-.752-2.107l1.232-.027a15.974,15.974,0,0,0,.5,2.223l-.895.168C435.728,331.827,435.7,331.74,435.671,331.658Zm.258.85.918-.127c.125.387.26.771.4,1.15-.329.047-.659.094-.986.138C436.137,333.276,436.032,332.879,435.929,332.508Zm2.229,3.7a2.874,2.874,0,0,1-1.694-1.95l1.035-.056c.278.717.562,1.4.825,2.039C438.271,336.228,438.21,336.222,438.158,336.207Zm.7.124c-.211-.723-.425-1.445-.634-2.169.747-.039,1.5-.081,2.248-.131.293.754.578,1.5.847,2.253A13.613,13.613,0,0,1,438.855,336.331Zm2.778-.075c-.168-.742-.342-1.5-.53-2.27q.953-.07,1.9-.174c.375.8.766,1.577,1.153,2.312l-.719.007C442.92,336.138,442.292,336.2,441.633,336.257Zm3.062-.137a.227.227,0,0,0-.011-.076c-.278-.779-.573-1.553-.865-2.327.723-.093,1.439-.2,2.142-.343a.3.3,0,0,0,.16-.09c.471.945.95,1.888,1.471,2.806Q446.144,336.1,444.7,336.12Z" transform="translate(-66.943 -69.862)" fill="#8e8f94"/></g></svg>