<svg xmlns="http://www.w3.org/2000/svg" xmlns:xlink="http://www.w3.org/1999/xlink" width="375" height="103" viewBox="0 0 375 103"><defs><clipPath id="a"><rect width="375" height="103" transform="translate(0 709)" fill="#fff"/></clipPath><linearGradient id="b" x1="-0.193" y1="0.5" x2="1.278" y2="0.5" gradientUnits="objectBoundingBox"><stop offset="0" stop-color="#6f6f6f"/><stop offset="0.108" stop-color="#5d5d5d"/><stop offset="0.22" stop-color="#363636"/><stop offset="0.338" stop-color="#131313"/><stop offset="0.402" stop-color="#060606"/><stop offset="0.465" stop-color="#0c0c0c"/><stop offset="0.556" stop-color="#1e1e1e"/><stop offset="0.66" stop-color="#3c3c3c"/><stop offset="0.752" stop-color="#5d5d5d"/><stop offset="1" stop-color="#6f6f6f"/></linearGradient><linearGradient id="c" x1="-0.178" y1="0.5" x2="1.252" y2="0.5" xlink:href="#b"/><linearGradient id="d" x1="-0.163" y1="0.5" x2="1.227" y2="0.5" xlink:href="#b"/><linearGradient id="e" x1="-0.148" y1="0.5" x2="1.203" y2="0.5" xlink:href="#b"/><linearGradient id="f" x1="-0.134" y1="0.5" x2="1.179" y2="0.5" xlink:href="#b"/><linearGradient id="g" x1="-0.12" y1="0.5" x2="1.155" y2="0.5" xlink:href="#b"/><linearGradient id="h" x1="-0.111" y1="0.5" x2="1.131" y2="0.5" xlink:href="#b"/><linearGradient id="i" x1="-0.103" y1="0.5" x2="1.108" y2="0.5" xlink:href="#b"/><linearGradient id="j" x1="-0.095" y1="0.5" x2="1.085" y2="0.5" xlink:href="#b"/><linearGradient id="k" x1="-0.087" y1="0.5" x2="1.069" y2="0.5" xlink:href="#b"/><linearGradient id="l" x1="-0.078" y1="0.5" x2="1.066" y2="0.5" xlink:href="#b"/></defs><g transform="translate(0 -709)" clip-path="url(#a)"><g transform="translate(18 28)"><path d="M443.474,34.44a27.389,27.389,0,0,0-3.362-3.2,21.742,21.742,0,0,0-7.779-4.063,52.5,52.5,0,0,0-12.361-1.42A62.7,62.7,0,0,1,410.818,25c-6.352-1.162-11.9-4.581-17.782-8.2-4.729-2.912-9.618-5.924-14.963-7.644-7.766-2.5-12.42,1.076-17.347,4.863-2.72,2.092-5.534,4.255-8.954,5.352a19.615,19.615,0,0,1-3.841.862c-4.459.494-7.565-1.259-11.161-3.285-.792-.446-1.6-.9-2.456-1.352a37.019,37.019,0,0,0-8.049-3.264c-6.446-1.691-11.546-2.133-16.051-1.393a25,25,0,0,0-10.454,4.386,34.669,34.669,0,0,0-7.5,7.559c-1.542,2.038-3.027,4.271-4.464,6.43-2.675,4.022-5.442,8.181-8.826,11.511-3.822,3.782-9.171,4.2-14.344,4.6-4.065.318-7.9.618-11,2.443-3.752,2.211-5.876,5.3-7.931,8.294-3.546,5.162-6.9,10.039-18.086,10.674-1.119.063-2.273.085-3.428.062-13.063-.247-24.514-7.989-33.992-15.529-1.227-.976-2.456-1.976-3.695-2.984l-1.932-1.57c-8.64-7-18.432-14.937-30.6-17.409-10.662-2.165-17.207,3.554-24.137,9.61a58.094,58.094,0,0,1-10.44,7.827c-13.059,6.947-32.165,9.081-49.023,10.964-7.043.786-13.695,1.529-19.65,2.563-6.958,1.221-15.617,2.742-21.369,8.186q-.49.465-.943.954c-3.882,4.2-5.723,9.712-7.5,15.043a78.435,78.435,0,0,1-3.18,8.43c-3.229,6.881-7.544,11.785-13.193,14.994-6.934,3.963-15.031,4.962-23.666,5.444v.587c8.511-.483,16.951-1.518,23.957-5.521,5.758-3.27,10.151-8.26,13.433-15.255a78.343,78.343,0,0,0,3.2-8.494c1.761-5.271,3.581-10.722,7.378-14.828q.438-.476.914-.928c5.624-5.322,14.187-6.826,21.067-8.034,5.937-1.031,12.581-1.773,19.615-2.558C87.337,56.5,106.5,54.363,119.66,47.363a58.5,58.5,0,0,0,10.552-7.9c6.816-5.958,13.257-11.584,23.633-9.476,12.025,2.443,21.758,10.33,30.346,17.29l1.93,1.568c1.241,1.01,2.472,2.012,3.7,2.989,9.555,7.6,21.108,15.406,34.346,15.656,1.173.023,2.339,0,3.473-.063,11.477-.651,15.066-5.876,18.537-10.928,2.019-2.938,4.1-5.975,7.746-8.121,2.978-1.755,6.751-2.05,10.745-2.363,5.279-.412,10.737-.839,14.711-4.772,3.427-3.371,6.211-7.556,8.9-11.6,1.432-2.153,2.912-4.378,4.443-6.4A34.1,34.1,0,0,1,300.1,15.8a24.438,24.438,0,0,1,10.211-4.286c4.421-.728,9.442-.289,15.807,1.382a36.425,36.425,0,0,1,7.924,3.216c.846.445,1.653.9,2.441,1.343,3.684,2.076,6.868,3.868,11.513,3.358a20.237,20.237,0,0,0,3.956-.886c3.518-1.129,6.373-3.324,9.133-5.446,4.8-3.691,9.335-7.176,16.809-4.771,5.277,1.7,10.136,4.692,14.835,7.586,5.666,3.489,11.524,7.1,17.984,8.279a63.923,63.923,0,0,0,9.24.764,52.13,52.13,0,0,1,12.224,1.4,21.167,21.167,0,0,1,7.571,3.958,27.628,27.628,0,0,1,3.727,3.63Z" transform="translate(-18 673)" opacity="0.7" fill="url(#b)" style="mix-blend-mode:screen;isolation:isolate"/><path d="M443.474,43.107a30.992,30.992,0,0,0-3.625-2.634,34.438,34.438,0,0,0-7.946-3.766A76.061,76.061,0,0,0,419.97,34.29a78.828,78.828,0,0,1-9.078-1.683c-5.8-1.565-10.884-5.1-16.267-8.845-4.789-3.331-9.742-6.775-15.316-8.78-8.061-2.9-13.256.769-18.754,4.651a39.926,39.926,0,0,1-8.071,4.8,28.1,28.1,0,0,1-3.66,1.219c-4.06.987-6.646-.017-9.92-1.291-.78-.3-1.593-.619-2.468-.924a52.252,52.252,0,0,0-8.022-2.236c-5.01-.917-10.846-1.684-16.155-.411a23.924,23.924,0,0,0-9.964,5.181,36.691,36.691,0,0,0-6.82,8.078c-1,1.528-1.959,3.1-2.972,4.764-2.953,4.854-6.006,9.873-10.136,13.5-4.31,3.783-9.948,3.632-15.4,3.486-3.532-.094-6.87-.184-9.566.848-3.732,1.429-5.913,3.748-8.222,6.2-3.7,3.935-7.528,8-18.341,9.2-1.1.123-2.255.224-3.428.3-13.561.883-25.214-5.951-34.823-12.751-1.556-1.1-3.084-2.231-4.7-3.427l-2.043-1.51c-9.308-6.886-18.932-14.006-30.66-16.175C145.033,36.6,138.655,41.8,131.9,47.3a57.97,57.97,0,0,1-10.083,7.081C108.9,60.933,90.332,62.961,73.946,64.751c-6.359.695-12.366,1.35-17.82,2.225C49.479,68.065,41.205,69.42,35.6,74.209q-.48.413-.923.845c-3.859,3.754-5.862,8.686-7.8,13.458a74.08,74.08,0,0,1-3.3,7.34,31.156,31.156,0,0,1-13.016,13.353c-7.743,4.085-17.283,4.756-26.508,5.4q-1.593.112-3.2.232v.589c1.085-.082,2.168-.16,3.243-.235,9.286-.654,18.888-1.329,26.741-5.472A31.723,31.723,0,0,0,24.1,96.131a74.773,74.773,0,0,0,3.323-7.4c1.914-4.715,3.893-9.59,7.664-13.257q.432-.421.9-.821c5.477-4.681,13.66-6.022,20.236-7.1,5.438-.872,11.437-1.527,17.789-2.22,16.435-1.8,35.063-3.83,48.074-10.432a58.46,58.46,0,0,0,10.188-7.15c6.647-5.411,12.927-10.522,22.8-8.7,11.593,2.145,21.163,9.224,30.417,16.07l2.042,1.51c1.621,1.2,3.152,2.33,4.713,3.434,9.693,6.86,21.469,13.755,35.2,12.858,1.182-.077,2.345-.177,3.455-.3,11.028-1.222,15.106-5.558,18.7-9.384,2.261-2.4,4.4-4.676,8-6.056,2.587-.991,5.867-.9,9.34-.81,5.306.142,11.319.3,15.8-3.631,4.2-3.684,7.275-8.742,10.251-13.633,1.01-1.661,1.964-3.228,2.961-4.748a36.091,36.091,0,0,1,6.709-7.951,23.328,23.328,0,0,1,9.72-5.059c5.2-1.246,10.964-.488,15.913.418a51.712,51.712,0,0,1,7.935,2.212c.868.3,1.675.617,2.448.918,3.238,1.259,6.034,2.347,10.271,1.313a28.606,28.606,0,0,0,3.739-1.243,40.33,40.33,0,0,0,8.192-4.861c5.37-3.792,10.441-7.375,18.217-4.578,5.5,1.979,10.422,5.4,15.18,8.709,5.426,3.774,10.551,7.338,16.449,8.93a79.57,79.57,0,0,0,9.146,1.7,75.757,75.757,0,0,1,11.842,2.4,33.863,33.863,0,0,1,7.812,3.705,30.623,30.623,0,0,1,3.935,2.906Z" transform="translate(-18 673)" opacity="0.7" fill="url(#c)" style="mix-blend-mode:screen;isolation:isolate"/><path d="M443.474,51.666c-1.121-.62-2.363-1.247-3.892-1.955l-.911-.423c-2.117-.986-4.517-2.1-7.2-3.047-3.62-1.268-7.247-2.223-10.754-3.146-3.487-.919-6.78-1.786-9.751-2.878-5.267-1.934-9.888-5.555-14.782-9.388-4.831-3.785-9.827-7.7-15.641-10.017-8.5-3.388-14.654.69-20.6,4.633a57.614,57.614,0,0,1-6.745,4.044c-1.186.567-2.415,1.153-3.482,1.58-3.848,1.536-5.959,1.147-9.156.559-.626-.115-1.289-.238-2.01-.353-.557-.089-1.147-.19-1.768-.3-1.821-.312-3.885-.664-6.218-.914-5.453-.584-11.2-1.022-16.259.571a22.839,22.839,0,0,0-9.47,5.976,40.09,40.09,0,0,0-6.139,8.6c-.576,1.024-1.151,2.083-1.735,3.158-3.1,5.709-6.3,11.613-11.192,15.422-4.909,3.829-11.18,2.911-16.71,2.1a28.441,28.441,0,0,0-7.862-.478c-3.978.624-6.345,2.343-9.086,4.334-3.774,2.74-8.052,5.847-18.038,7.5q-1.718.284-3.428.536c-14.183,2.1-26.5-4.228-35.654-9.975-1.869-1.174-3.719-2.418-5.677-3.734l-.466-.313q-1.284-.865-2.559-1.735c-9.106-6.188-18.523-12.587-29.882-14.482-9.64-1.609-15.865,3.074-22.457,8.031a58.783,58.783,0,0,1-9.695,6.332c-12.762,6.119-30.743,8.041-46.607,9.737-5.722.612-11.127,1.19-16.105,1.928-6.328.94-14.2,2.108-19.675,6.281q-.468.357-.905.734c-3.843,3.307-6.016,7.659-8.118,11.868-1.041,2.085-2.117,4.242-3.387,6.257a30.688,30.688,0,0,1-12.842,11.713c-6.992,3.376-15.419,4.207-23.569,5.01-4.052.4-8.191.815-12.186,1.537v.6c4.006-.731,8.169-1.149,12.244-1.551,8.2-.808,16.68-1.644,23.767-5.066A31.248,31.248,0,0,0,29.952,99.031c1.286-2.039,2.369-4.209,3.417-6.308,2.171-4.348,4.221-8.454,7.974-11.685.283-.243.575-.482.879-.713,5.352-4.08,13.145-5.236,19.406-6.165,4.965-.738,10.365-1.315,16.08-1.926,15.911-1.7,33.946-3.629,46.8-9.791A59.272,59.272,0,0,0,134.3,56.05c6.49-4.879,12.623-9.485,22.009-7.921,11.232,1.874,20.177,7.953,29.648,14.389q1.278.867,2.56,1.735l.467.313c1.962,1.32,3.816,2.566,5.693,3.745,9.237,5.8,21.683,12.187,36.052,10.058q1.716-.254,3.438-.537c10.123-1.681,14.65-4.968,18.287-7.61,2.68-1.946,4.994-3.626,8.831-4.227a27.965,27.965,0,0,1,7.687.478c5.647.825,12.048,1.761,17.156-2.221,4.984-3.885,8.219-9.843,11.347-15.6.583-1.073,1.156-2.129,1.731-3.151a39.553,39.553,0,0,1,6.044-8.471,22.276,22.276,0,0,1,9.229-5.83c4.952-1.558,10.63-1.124,16.02-.546,2.315.248,4.37.6,6.183.908.623.106,1.214.208,1.773.3.716.114,1.375.236,2,.35,3.176.584,5.473,1.008,9.48-.591,1.085-.433,2.322-1.024,3.519-1.6a58.343,58.343,0,0,0,6.815-4.083c6.091-4.039,11.846-7.854,20.061-4.577,5.736,2.286,10.7,6.174,15.5,9.933,4.929,3.863,9.587,7.511,14.94,9.478,3,1.1,6.3,1.972,9.8,2.893s7.11,1.873,10.709,3.132c2.653.935,5.039,2.046,7.144,3.026l.913.424c1.643.761,2.953,1.428,4.138,2.1Z" transform="translate(-18 673)" opacity="0.7" fill="url(#d)" style="mix-blend-mode:screen;isolation:isolate"/><path d="M443.474,60.106c-1.162-.287-2.474-.618-4.162-1.152-1.662-.526-3.475-1.258-5.393-2.034-.926-.374-1.884-.761-2.876-1.146-1.942-.75-3.888-1.481-5.8-2.2-5.23-1.965-10.17-3.82-14.2-5.744-4.748-2.267-8.912-5.938-13.322-9.823-4.855-4.279-9.876-8.7-15.941-11.365-9.189-4.032-16.289.551-23.158,4.984-1.542,1-3.138,2.026-4.713,2.924-.765.433-1.468.853-2.121,1.244-.414.247-.807.483-1.184.7-4.086,2.378-5.705,2.447-9.616,2.616l-.338.014c-1.51.066-3.3-.009-5.375-.094-.817-.033-1.672-.068-2.565-.1l-.165-.005c-5.55-.179-11.287-.365-16.2,1.557a21.725,21.725,0,0,0-8.977,6.774,43.261,43.261,0,0,0-5.457,9.112l-.733,1.545c-2.974,6.3-6.346,13.437-12.013,17.355s-12.664,1.906-18.289.291A35.154,35.154,0,0,0,265,74.2c-4.776-.437-7.4.789-11.389,2.646A70.736,70.736,0,0,1,237.3,82.461c-1.142.255-2.284.51-3.427.774-11.5,2.649-22.75.43-36.486-7.2-2.036-1.13-4.021-2.336-6.4-3.794-1.383-.851-2.756-1.713-4.125-2.572-9.344-5.865-18.17-11.4-29.236-13.048-9.128-1.361-15.21,2.817-21.645,7.236a60.536,60.536,0,0,1-9.293,5.59C113.927,75.181,96.344,77,80.831,78.613c-4.9.509-9.533.989-13.875,1.568-6.336.847-13.518,1.807-18.824,5.326-.306.2-.6.412-.887.625-3.841,2.859-6.195,6.629-8.471,10.274-1.074,1.72-2.186,3.5-3.444,5.174a30.943,30.943,0,0,1-12.67,10.077c-6.2,2.695-13.5,3.619-20.562,4.513-6.464.819-13.148,1.665-18.965,3.868a23.04,23.04,0,0,0-2.274,1.019v.672a22.078,22.078,0,0,1,2.482-1.141c5.751-2.18,12.4-3.021,18.831-3.835,7.1-.9,14.45-1.829,20.722-4.558A31.512,31.512,0,0,0,35.8,101.933c1.275-1.7,2.392-3.485,3.473-5.216C41.623,92.952,43.843,89.4,47.6,86.6c.279-.207.565-.41.861-.606,5.194-3.445,12.305-4.4,18.578-5.234,4.332-.578,8.959-1.058,13.857-1.565,15.557-1.614,33.191-3.443,46.038-9.215a60.985,60.985,0,0,0,9.386-5.641c6.338-4.351,12.321-8.462,21.226-7.14,10.944,1.626,19.719,7.134,29.01,12.965,1.37.86,2.745,1.723,4.13,2.575,2.389,1.462,4.378,2.671,6.424,3.808,13.874,7.7,25.256,9.943,36.9,7.257,1.142-.263,2.282-.518,3.422-.773a71.212,71.212,0,0,0,16.427-5.652c3.9-1.817,6.472-3.021,11.089-2.593a34.725,34.725,0,0,1,5.77,1.34c5.743,1.649,12.894,3.7,18.785-.372,5.8-4.007,9.2-11.222,12.21-17.587l.731-1.544a42.8,42.8,0,0,1,5.38-8.989,21.157,21.157,0,0,1,8.738-6.6c4.8-1.877,10.479-1.694,15.966-1.517l.164,0c.892.029,1.746.064,2.561.1,2.088.085,3.892.163,5.424.093l.338-.014c3.9-.167,5.675-.244,9.886-2.695q.568-.332,1.19-.706c.65-.389,1.349-.806,2.11-1.238,1.59-.906,3.192-1.941,4.742-2.941,6.736-4.349,13.7-8.846,22.6-4.939,5.981,2.625,10.968,7.019,15.789,11.267,4.441,3.914,8.635,7.61,13.456,9.913,4.052,1.935,9,3.794,14.245,5.764,1.912.717,3.856,1.447,5.8,2.2.989.384,1.944.77,2.868,1.144,1.93.78,3.752,1.517,5.436,2.049,1.773.561,3.135.9,4.339,1.2Z" transform="translate(-18 673)" opacity="0.7" fill="url(#e)" style="mix-blend-mode:screen;isolation:isolate"/><path d="M443.474,68.4a15.81,15.81,0,0,1-4.434-.2,42.391,42.391,0,0,1-8.428-2.893,161.975,161.975,0,0,1-19.493-9.86c-4.236-2.557-7.951-6.237-11.883-10.134-4.861-4.817-9.887-9.8-16.219-12.84-10.377-4.986-19.2.953-26.986,6.194l-1.408.946c-1.185.787-2.2,1.579-3.124,2.318l-.737.591c-3.277,2.631-4.381,3.518-8.01,4.47a40.493,40.493,0,0,1-7.894.816l-1.569.061c-5.144.193-10.463.392-14.895,2.472a21.041,21.041,0,0,0-8.483,7.57,48.807,48.807,0,0,0-4.776,9.627c-2.7,6.792-6.062,15.245-12.566,19.221-6.617,4.047-14.4.46-20.086-2.157-1.341-.618-2.608-1.2-3.675-1.591-6.447-2.357-9.587-1.312-17.172,1.211-2.872.956-6.448,2.146-11.1,3.449-1.2.335-2.318.666-3.424,1.012-11.932,3.725-23.442,2.36-37.32-4.424-2.077-1.015-4.165-2.15-6.661-3.543-1.88-1.053-3.76-2.148-5.578-3.207-9.191-5.353-17.871-10.41-28.7-11.818-8.622-1.118-14.563,2.553-20.851,6.44a63.538,63.538,0,0,1-8.872,4.849c-12.93,5.39-30.308,7.115-45.64,8.637-3.9.387-7.586.753-11.114,1.166-6.023.707-12.851,1.508-17.971,4.372-.3.166-.585.339-.867.515-3.862,2.41-6.416,5.6-8.886,8.677-1.086,1.356-2.208,2.757-3.439,4.092a32.384,32.384,0,0,1-12.5,8.443c-5.332,2.048-11.479,2.989-17.424,3.9C4.457,117.825-2.6,118.9-8.474,121.671c-4.5,2.117-7.859,5.6-10.667,9.855v1.066c2.855-4.518,6.281-8.206,10.917-10.39,5.8-2.729,12.811-3.8,19.6-4.841,5.975-.914,12.154-1.859,17.546-3.93a32.978,32.978,0,0,0,12.722-8.593c1.244-1.35,2.373-2.76,3.465-4.122,2.551-3.183,4.961-6.19,8.739-8.548.273-.17.554-.338.843-.5,5.018-2.806,11.492-3.566,17.753-4.3,3.523-.413,7.2-.778,11.1-1.166,15.373-1.526,32.8-3.255,45.808-8.678a64.17,64.17,0,0,0,8.954-4.892c6.2-3.832,12.049-7.451,20.468-6.357,10.716,1.392,19.347,6.42,28.485,11.742,1.82,1.061,3.7,2.157,5.587,3.213,2.5,1.4,4.6,2.537,6.689,3.557,14.022,6.856,25.666,8.23,37.753,4.457,1.1-.344,2.215-.673,3.407-1.007,4.666-1.306,8.248-2.5,11.127-3.457,7.664-2.551,10.53-3.5,16.785-1.217,1.045.382,2.3.961,3.631,1.573,5.8,2.673,13.756,6.332,20.638,2.126,6.671-4.08,10.072-12.633,12.806-19.506a48.281,48.281,0,0,1,4.714-9.511,20.478,20.478,0,0,1,8.249-7.372c4.323-2.029,9.582-2.226,14.667-2.416l1.572-.061a40.913,40.913,0,0,0,8.018-.835c3.75-.984,4.97-1.963,8.228-4.58l.737-.591c.912-.73,1.916-1.512,3.082-2.287l1.411-.947c7.654-5.153,16.329-11,26.4-6.153,6.243,3,11.234,7.945,16.061,12.728,3.958,3.922,7.7,7.627,11.993,10.219a162.619,162.619,0,0,0,19.567,9.9,42.865,42.865,0,0,0,8.552,2.93,16.533,16.533,0,0,0,4.539.212Z" transform="translate(-18 673)" opacity="0.7" fill="url(#f)" style="mix-blend-mode:screen;isolation:isolate"/><path d="M443.474,76.528a9.319,9.319,0,0,1-4.707.924c-2.916-.156-6.12-1.477-8.586-2.61a107.6,107.6,0,0,1-18.987-11.776c-3.725-2.788-6.995-6.434-10.457-10.294-4.85-5.408-9.866-11-16.484-14.467-11.063-5.792-21.8.863-28.916,6.374A24.568,24.568,0,0,0,352.4,47.37c-1.151,1.225-1.965,2.267-2.684,3.186a12.748,12.748,0,0,1-4.858,4.315,25.014,25.014,0,0,1-7.85,1.812c-.86.1-1.736.187-2.62.276-4.854.491-9.873,1-13.946,3.236a20.554,20.554,0,0,0-7.988,8.368,54.2,54.2,0,0,0-4.1,10.141c-2.632,8.1-5.955,16.078-12.387,19.543-7.869,4.243-16.741-1.861-22.041-5.508-.472-.325-.915-.629-1.325-.9-8.637-5.795-12.117-4.618-28.835,1.047-1.143.387-2.294.808-3.421,1.251-12.361,4.857-24.129,4.35-38.155-1.649-2.448-1.046-4.871-2.25-6.919-3.29-2.351-1.2-4.68-2.463-6.934-3.686-9.062-4.919-17.622-9.565-28.27-10.745-8.122-.9-13.939,2.277-20.092,5.641a69,69,0,0,1-8.416,4.112c-13.434,5.127-30.98,6.748-46.46,8.18-2.5.23-4.951.457-7.315.691l-.282.029C71.634,94,65.563,94.6,60.673,96.805c-.29.13-.571.267-.848.4a38.642,38.642,0,0,0-9.419,7.092c-1.056.987-2.149,2.008-3.312,3a36.116,36.116,0,0,1-12.339,6.811,102.4,102.4,0,0,1-14.043,3.14c-7.308,1.284-14.866,2.612-20.793,6.057-7.98,4.639-11.347,13.883-14.911,23.67-1.278,3.509-2.592,7.1-4.149,10.558v1.4c1.805-3.828,3.275-7.844,4.7-11.758,3.527-9.684,6.858-18.831,14.653-23.363,5.838-3.393,13.343-4.712,20.6-5.987a102.783,102.783,0,0,0,14.125-3.161,36.67,36.67,0,0,0,12.536-6.921c1.173-1,2.27-2.023,3.332-3.015a38.194,38.194,0,0,1,9.28-7q.4-.2.827-.394c4.8-2.163,10.825-2.762,16.649-3.34l.283-.028c2.362-.235,4.808-.46,7.31-.692,15.518-1.434,33.107-3.06,46.615-8.216a69.415,69.415,0,0,0,8.489-4.145c6.07-3.318,11.8-6.45,19.745-5.572,10.534,1.167,19.045,5.786,28.056,10.677,2.256,1.225,4.589,2.492,6.947,3.694,2.056,1.044,4.491,2.253,6.954,3.307,14.179,6.062,26.084,6.574,38.6,1.654,1.118-.439,2.26-.857,3.394-1.241,16.492-5.589,19.922-6.75,28.32-1.116.408.275.849.578,1.319.9,5.412,3.723,14.468,9.952,22.653,5.541,6.614-3.563,10-11.66,12.667-19.879a53.714,53.714,0,0,1,4.048-10.032,19.99,19.99,0,0,1,7.759-8.143c3.969-2.18,8.927-2.681,13.723-3.166.887-.09,1.766-.179,2.628-.277A25.478,25.478,0,0,0,345.12,55.4a13.215,13.215,0,0,0,5.057-4.478c.712-.909,1.517-1.941,2.65-3.147a24.054,24.054,0,0,1,2.869-2.627c6.988-5.412,17.521-11.955,28.284-6.318,6.525,3.416,11.5,8.968,16.32,14.338,3.482,3.882,6.77,7.549,10.542,10.373a108.144,108.144,0,0,0,19.094,11.838c2.513,1.156,5.784,2.5,8.8,2.663a9.763,9.763,0,0,0,4.738-.864Z" transform="translate(-18 673)" opacity="0.7" fill="url(#g)" style="mix-blend-mode:screen;isolation:isolate"/><path d="M443.474,84.467a7.961,7.961,0,0,1-4.976,2.241c-2.442.153-5.216-.584-8.749-2.332-6.841-3.373-13.471-9.087-18.482-13.687a88.718,88.718,0,0,1-9.031-10.269c-4.826-6.069-9.816-12.344-16.748-16.284-10.423-5.923-22.039-.985-29.436,5.608a18.283,18.283,0,0,0-2.748,3.065,25.96,25.96,0,0,0-2.592,4.69,11.915,11.915,0,0,1-3.739,5.257c-2.079,1.574-5.118,2.3-7.816,2.8-1.119.209-2.27.393-3.434.58-4.639.745-9.437,1.515-13.233,3.912-3.14,1.982-5.521,4.894-7.492,9.163a62.41,62.41,0,0,0-3.384,10.528l-.033.127c-1.775,6.892-4.973,16.449-12.21,19.867-6.446,3.049-13.968.08-22.988-9.071C267.972,92.13,263.03,91.7,247,98.093c-1.126.45-2.276.951-3.416,1.49-12.776,6.048-24.8,6.394-38.992,1.127-2.058-.763-4.339-1.73-7.177-3.039-2.8-1.3-5.547-2.691-8.205-4.041-8.957-4.547-17.417-8.841-27.921-9.8-7.653-.693-13.349,2-19.385,4.84A78.127,78.127,0,0,1,134,92.049c-14.776,5.077-34.217,6.623-49.839,7.866l-1.849.147c-5.3.418-10.773.85-15.362,2.393-.282.094-.557.193-.828.293a48.562,48.562,0,0,0-10.253,5.55c-.936.613-1.884,1.235-2.88,1.857a44.864,44.864,0,0,1-12.183,5.18c-3.227.876-6.772,1.55-10.2,2.2-8,1.523-16.279,3.1-22.3,7.407-6.757,4.838-9.18,13.181-11.746,22.014-1.628,5.6-3.311,11.4-6.194,16.574a62.785,62.785,0,0,1-4.481,6.712l-.505.69a45.4,45.4,0,0,0-4.525,7.316v1.462c.006-.014.009-.027.015-.041a40.139,40.139,0,0,1,4.984-8.391l.5-.689a63.228,63.228,0,0,0,4.521-6.774c2.915-5.233,4.608-11.061,6.245-16.695,2.537-8.733,4.932-16.982,11.524-21.7,5.913-4.233,14.124-5.8,22.065-7.307,3.438-.655,6.994-1.332,10.242-2.214A45.4,45.4,0,0,0,53.3,110.653c1-.624,1.952-1.248,2.891-1.864a48.089,48.089,0,0,1,10.135-5.49c.266-.1.535-.2.811-.288,4.521-1.519,9.961-1.949,15.222-2.364l1.849-.147c15.654-1.245,35.136-2.794,49.983-7.9a78.525,78.525,0,0,0,7.966-3.4c5.962-2.811,11.594-5.461,19.081-4.786,10.392.944,18.8,5.214,27.708,9.735,2.663,1.352,5.416,2.749,8.225,4.051,2.853,1.316,5.146,2.286,7.219,3.056,14.35,5.326,26.517,4.973,39.447-1.147,1.129-.534,2.267-1.031,3.383-1.476,16.68-6.657,20.884-5.538,28.744,2.438,9.218,9.352,16.956,12.357,23.658,9.19,7.46-3.524,10.723-13.245,12.528-20.251l.033-.127a61.87,61.87,0,0,1,3.348-10.428c1.922-4.162,4.233-7,7.272-8.914,3.695-2.332,8.432-3.093,13.013-3.828,1.169-.188,2.326-.373,3.448-.583,2.766-.515,5.887-1.263,8.064-2.911a12.389,12.389,0,0,0,3.919-5.482,25.382,25.382,0,0,1,2.534-4.591,17.753,17.753,0,0,1,2.662-2.968c7.243-6.458,18.6-11.308,28.755-5.536,6.834,3.883,11.787,10.113,16.578,16.138a89.281,89.281,0,0,0,9.094,10.336c5.04,4.627,11.711,10.376,18.619,13.781,3.629,1.8,6.511,2.555,9.047,2.392a8.173,8.173,0,0,0,4.938-2.057Z" transform="translate(-18 673)" opacity="0.7" fill="url(#h)" style="mix-blend-mode:screen;isolation:isolate"/><path d="M443.474,92.209c-1.34,1.756-2.734,3.319-5.243,3.759-2.546.446-5.459-.229-8.913-2.058-6.788-3.585-13.174-10.219-17.98-15.6a108.486,108.486,0,0,1-7.6-10.008C398.951,61.49,394,54.443,386.723,49.968c-10.33-6.349-22.889-2.37-29.954,4.843a15.773,15.773,0,0,0-2.554,3.437,22.963,22.963,0,0,0-2.1,5.9c-.61,2.441-1.137,4.55-3.01,6.495-1.605,1.666-3.935,2.8-7.793,3.792-1.316.338-2.655.628-4.073.936-4.482.97-9.117,1.975-12.695,4.534-3.069,2.194-5.292,5.359-7,9.96a68.642,68.642,0,0,0-2.588,10.4l-.149.767c-2.148,11-6.2,17.789-12.035,20.192-10.238,4.209-19.907-7.916-22.626-11.734-7.549-10.6-13.372-13.8-29.91-6.186-1.122.516-2.268,1.1-3.41,1.729-13.352,7.381-25.264,8.548-39.829,3.9-2.2-.7-4.63-1.612-7.437-2.787-3.224-1.355-6.36-2.849-9.392-4.294-8.876-4.23-17.259-8.225-27.656-8.949-7.21-.5-13.094,1.81-18.79,4.046-2.347.921-4.773,1.873-7.282,2.631-15.6,4.714-34.764,6.259-47.819,7.012l-1.939.108a89.049,89.049,0,0,0-13.451,1.4c-.273.059-.541.122-.806.184a77.545,77.545,0,0,0-12.173,4.17l-1.358.554a69.481,69.481,0,0,1-12.036,3.547c-1.745.365-3.516.7-5.392,1.047-9.116,1.707-18.542,3.472-24.764,8.979-5.722,5.062-7.332,12.751-9.037,20.892-1.281,6.113-2.605,12.434-5.772,17.95A48.227,48.227,0,0,1-3.223,172.4a84.651,84.651,0,0,0-5.954,7.755A15.02,15.02,0,0,0-11.8,187.74a40.971,40.971,0,0,0,.715,8.87c.106.721.216,1.463.322,2.227.65,4.646,1.308,13.453-1.587,20.245a16.628,16.628,0,0,1-4.463,6.216c-.752.821-1.538,1.635-2.329,2.45v.851c.937-.957,1.853-1.915,2.735-2.879a17.149,17.149,0,0,0,4.6-6.408c2.95-6.922,2.287-15.851,1.629-20.556-.107-.766-.217-1.509-.323-2.232a40.628,40.628,0,0,1-.711-8.738,14.471,14.471,0,0,1,2.528-7.309,84.051,84.051,0,0,1,5.914-7.7A48.757,48.757,0,0,0,2.4,165.721c3.213-5.6,4.548-11.964,5.837-18.121,1.685-8.043,3.276-15.64,8.852-20.574,6.1-5.4,15.446-7.149,24.483-8.84,1.879-.352,3.654-.684,5.4-1.05a70.153,70.153,0,0,0,12.137-3.578L60.474,113a76.037,76.037,0,0,1,12.086-4.142c.261-.061.526-.123.8-.181a88.814,88.814,0,0,1,13.359-1.391l1.941-.108c13.085-.754,32.292-2.3,47.954-7.035,2.532-.765,4.97-1.722,7.327-2.647,5.895-2.314,11.466-4.5,18.535-4.007,10.286.716,18.62,4.688,27.444,8.893,3.039,1.448,6.181,2.946,9.418,4.305,2.824,1.182,5.272,2.1,7.485,2.806,14.736,4.7,26.786,3.52,40.293-3.948,1.128-.624,2.262-1.2,3.37-1.71,15.928-7.335,21.493-4.807,29.186,5.994,2.783,3.907,12.687,16.316,23.329,11.935,6.032-2.482,10.2-9.42,12.388-20.622l.149-.767a68.209,68.209,0,0,1,2.562-10.31c1.661-4.485,3.818-7.562,6.787-9.686,3.479-2.488,8.053-3.479,12.476-4.437,1.362-.295,2.769-.6,4.1-.941,3.971-1.021,6.385-2.2,8.07-3.954,1.981-2.058,2.553-4.341,3.157-6.759a22.493,22.493,0,0,1,2.048-5.76,15.2,15.2,0,0,1,2.459-3.309c6.733-6.874,19.266-10.876,29.228-4.754,7.177,4.412,12.089,11.408,16.839,18.173A109.026,109.026,0,0,0,410.9,78.7c4.839,5.416,11.273,12.1,18.143,15.726,3.574,1.893,6.614,2.587,9.289,2.117a8.24,8.24,0,0,0,5.142-3.39Z" transform="translate(-18 673)" opacity="0.7" fill="url(#i)" style="mix-blend-mode:screen;isolation:isolate"/><path d="M438.124,105.795c2.628-.732,4.094-2.736,5.35-4.886V99.728c-1.377,2.46-2.743,4.731-5.508,5.5-2.664.74-5.635.158-9.08-1.786-5.232-2.946-11.113-8.836-17.479-17.508-2.165-2.947-4.108-6.1-6.165-9.443-4.726-7.674-9.613-15.608-17.284-20.693-10.281-6.814-24.056-3.393-30.471,4.078a14.393,14.393,0,0,0-2.355,3.807,24,24,0,0,0-1.514,6.963c-.315,2.829-.613,5.5-2.379,7.879-1.521,2.047-3.92,3.524-7.78,4.786-1.473.482-3.059.91-4.593,1.325-4.363,1.179-8.874,2.4-12.275,5.122-3.025,2.423-5.089,5.841-6.5,10.755a74,74,0,0,0-1.864,10.231l-.2,1.45c-1.073,7.819-4,17.726-11.859,20.518-8.97,3.189-17.605-5.766-22.276-14.4-7.034-13-13.968-18.414-30.428-9.8-1.116.585-2.261,1.247-3.4,1.968-13.734,8.676-25.9,10.674-40.67,6.678-2.349-.635-4.866-1.464-7.694-2.536-3.627-1.378-7.121-2.947-10.5-4.465-8.819-3.96-17.148-7.7-27.472-8.184-6.849-.322-12.742,1.505-18.446,3.271-2.077.643-4.226,1.309-6.406,1.868A214.839,214.839,0,0,1,94.038,113.2c-1.4.046-2.82.079-4.235.111-3.446.079-7.009.16-10.287.452l-.785.074a139.171,139.171,0,0,0-13.923,2.046c-3.781.742-7.785,1.326-11.9,1.908-10.653,1.507-21.577,3.555-27.818,10.444-4.813,5.311-5.708,12.533-6.656,20.177-.805,6.493-1.637,13.207-5.021,18.915a34.989,34.989,0,0,1-5.243,6.542C7,175.086,5.892,176.2,4.859,177.238c-1.27,1.277-2.469,2.484-3.539,3.632A18.952,18.952,0,0,0-3.347,188.4c-1.035,3.322-.954,7.143-.754,11.434.319,6.852.314,13.99-1.858,19.768a19.632,19.632,0,0,1-3.92,6.44,99.493,99.493,0,0,1-9.262,10.013v.819a102,102,0,0,0,9.709-10.451,20.173,20.173,0,0,0,4.022-6.613c2.21-5.879,2.217-13.088,1.895-20-.2-4.234-.278-8,.729-11.232a18.409,18.409,0,0,1,4.535-7.309c1.064-1.14,2.26-2.344,3.526-3.618,1.036-1.043,2.142-2.156,3.321-3.378a36.362,36.362,0,0,0,5.325-6.65c3.447-5.814,4.286-12.589,5.1-19.142.936-7.55,1.82-14.681,6.508-19.855,6.11-6.744,16.919-8.765,27.466-10.257,4.12-.583,8.132-1.168,11.927-1.914a138.642,138.642,0,0,1,13.868-2.036l.78-.074c3.259-.29,6.811-.371,10.248-.45,1.416-.032,2.835-.064,4.241-.111a215.5,215.5,0,0,0,44.968-6.1c2.194-.563,4.35-1.23,6.434-1.876,5.916-1.832,11.493-3.564,18.244-3.246,10.213.479,18.493,4.2,27.259,8.134,3.387,1.521,6.889,3.094,10.533,4.478,2.846,1.078,5.381,1.914,7.749,2.554,14.947,4.041,27.25,2.024,41.137-6.748,1.127-.713,2.259-1.367,3.361-1.945,16.034-8.394,22.784-3.116,29.639,9.555,4.781,8.838,13.671,17.984,22.988,14.675,8.136-2.89,11.149-13.011,12.244-20.991l.2-1.452a73.544,73.544,0,0,1,1.847-10.148c1.373-4.791,3.375-8.114,6.3-10.458,3.3-2.647,7.756-3.85,12.061-5.014,1.541-.416,3.135-.847,4.622-1.333,2.682-.877,6.022-2.237,8.07-4.994,1.86-2.5,2.167-5.254,2.49-8.164a23.566,23.566,0,0,1,1.472-6.8,13.8,13.8,0,0,1,2.259-3.652c6.253-7.281,19.681-10.615,29.7-3.971C395.2,61.3,400.049,69.182,404.742,76.8c1.973,3.2,4.013,6.516,6.191,9.483,6.416,8.739,12.36,14.684,17.664,17.672C432.184,105.979,435.3,106.582,438.124,105.795Z" transform="translate(-18 673)" opacity="0.7" fill="url(#j)" style="mix-blend-mode:screen;isolation:isolate"/><path d="M428.152,113.482c3.561,2.132,6.846,2.657,9.761,1.561,2.871-1.079,4.308-3.779,5.561-6.576v-1.452c-.032.072-.064.143-.1.215-1.383,3.159-2.691,6.143-5.672,7.264-2.78,1.045-5.806.548-9.254-1.516-7.459-4.46-14.361-15.064-16.981-19.416-1.643-2.728-3.211-5.661-4.727-8.5-4.64-8.677-9.438-17.649-17.552-23.433-9.517-6.783-24.576-5.175-30.986,3.313a13.914,13.914,0,0,0-2.155,4.175,26.731,26.731,0,0,0-.9,7.926c-.04,3.353-.078,6.521-1.765,9.362-1.447,2.436-3.844,4.22-7.772,5.783-1.589.626-3.313,1.182-4.981,1.718-4.287,1.381-8.72,2.808-11.989,5.707-2.99,2.665-4.9,6.335-6,11.549a79.336,79.336,0,0,0-1.21,10.021q-.084,1.094-.173,2.173c-.438,5.338-2.453,18.055-11.687,20.846-9.61,2.931-17.818-7.369-21.931-17.076-4.136-9.763-8.576-15.14-13.973-16.925-4.723-1.56-10.273-.407-16.965,3.527-1.08.635-2.222,1.377-3.394,2.206-14.053,10.016-26.469,12.839-41.51,9.454a76.317,76.317,0,0,1-7.953-2.285c-4.01-1.373-7.835-3-11.534-4.572-8.784-3.733-17.082-7.261-27.363-7.485-6.782-.15-12.97,1.24-18.957,2.582-1.548.347-3.1.695-4.672,1.02-10.5,2.172-26.264,5.068-41.865,5.15-4.541.021-9.233-.174-13.652-.381l-.763-.033c-1.587-.074-3.122-.161-4.631-.245-3.291-.187-6.4-.362-9.684-.385-3.5-.021-7.6-.025-11.759.26-8.5.583-19.817,2.942-25.481,10.865-3.99,5.582-4.251,12.8-4.5,19.777-.246,6.773-.5,13.776-4.045,19.561a27.713,27.713,0,0,1-5.367,6.113c-1.844,1.637-3.678,3.066-5.451,4.448-.786.613-1.557,1.214-2.3,1.814a24.363,24.363,0,0,0-6.7,7.487c-1.927,3.647-2.365,7.807-2.552,11.759-.053,1.1-.091,2.219-.131,3.358-.185,5.4-.378,10.983-2,15.936A24.55,24.55,0,0,1-2.945,226.8c-4.165,6.3-10.115,11.854-16.2,17.163v.779c6.244-5.437,12.391-11.12,16.68-17.609a25.157,25.157,0,0,0,3.449-6.814c1.65-5.033,1.843-10.658,2.031-16.1.038-1.136.077-2.256.129-3.351.184-3.883.612-7.967,2.486-11.512a23.81,23.81,0,0,1,6.551-7.3c.745-.6,1.513-1.2,2.3-1.807,1.78-1.389,3.622-2.823,5.48-4.473a28.267,28.267,0,0,0,5.478-6.246c3.626-5.916,3.883-13,4.13-19.846.261-7.209.508-14.019,4.4-19.456,5.53-7.737,16.671-10.046,25.043-10.621,4.142-.284,8.22-.282,11.715-.258,3.268.022,6.371.2,9.656.382,1.51.086,3.047.173,4.636.246l.764.034c4.425.206,9.114.4,13.682.382,15.653-.083,31.456-2.986,41.981-5.163,1.572-.325,3.129-.674,4.68-1.022,6.227-1.4,12.105-2.718,18.817-2.568,10.168.222,18.414,3.728,27.145,7.438,3.709,1.577,7.544,3.208,11.574,4.587a76.938,76.938,0,0,0,8.014,2.3c15.224,3.431,27.778.574,41.979-9.548,1.158-.819,2.286-1.552,3.352-2.18,6.537-3.844,11.928-4.982,16.483-3.474,5.225,1.727,9.551,7,13.617,16.6,4.207,9.931,12.656,20.451,22.641,17.408,9.58-2.9,11.654-15.9,12.1-21.359.061-.72.118-1.446.175-2.176a78.65,78.65,0,0,1,1.2-9.946c1.075-5.085,2.922-8.654,5.814-11.232,3.176-2.816,7.55-4.224,11.779-5.586,1.676-.54,3.41-1.1,5.017-1.731,2.732-1.087,6.117-2.755,8.061-6.029,1.767-2.977,1.806-6.221,1.848-9.655a26.284,26.284,0,0,1,.874-7.755,13.288,13.288,0,0,1,2.063-4c6.232-8.254,20.9-9.8,30.178-3.188,8,5.7,12.765,14.614,17.374,23.231,1.52,2.843,3.092,5.782,4.742,8.522C414.253,99.317,420.852,109.117,428.152,113.482Z" transform="translate(-18 673)" opacity="0.7" fill="url(#k)" style="mix-blend-mode:screen;isolation:isolate"/><path d="M411.007,101.445c1.3,2.647,11.97,23.677,23.015,23.675a8.6,8.6,0,0,0,3.677-.83c3.153-1.474,4.522-5,5.775-8.508v-1.739q-.192.53-.38,1.061c-1.321,3.711-2.568,7.216-5.644,8.654-9.527,4.456-20.773-12.093-25.915-22.572-1.138-2.316-2.245-4.735-3.315-7.074-4.513-9.861-9.179-20.058-17.792-26.647a25.976,25.976,0,0,0-23.344-3.531c-5.364,1.92-8.954,5.692-10.108,10.617a30.482,30.482,0,0,0-.3,8.818c.244,3.9.475,7.585-1.145,10.917-2.4,4.951-7.628,6.89-13.157,8.945-4.2,1.562-8.553,3.177-11.681,6.239-5.732,5.613-5.938,14.164-6.138,22.433-.021.881-.042,1.755-.07,2.617-.14,4.314-1.385,18.588-11.515,21.176s-17.959-9.025-21.589-19.755c-4.074-12.04-9.181-18.821-15.614-20.732-5.476-1.627-11.942.452-19.215,6.179-16.916,13.321-31.091,16.181-50.565,10.2-4.367-1.342-8.5-3.012-12.489-4.628-8.691-3.514-16.9-6.837-27.035-6.837h-.3c-10.169.065-20.005,1.653-29.517,3.19-14.453,2.335-29.4,4.75-45.3,1.633-2.579-.5-5.194-1.124-7.721-1.722-6.044-1.43-12.294-2.908-18.6-2.974-8.11-.071-18.5,2.835-23.143,11.287-3.221,5.865-2.855,12.857-2.5,19.62.366,6.975.744,14.189-2.919,19.961-2.72,4.286-7.243,7.019-11.617,9.663-4.134,2.5-8.41,5.083-11.269,8.995-3.955,5.412-4.505,12.274-5.036,18.91a63.843,63.843,0,0,1-1.722,11.978C3.337,233.129-7.446,241.606-17.874,249.8c-.426.335-.843.667-1.267,1v.749c.545-.43,1.082-.858,1.63-1.289,10.5-8.255,21.362-16.792,24.895-29.444a64.293,64.293,0,0,0,1.742-12.089c.549-6.857,1.067-13.333,4.924-18.61,2.791-3.818,7.015-6.371,11.1-8.839,4.433-2.679,9.016-5.449,11.81-9.852,3.763-5.93,3.38-13.238,3.009-20.306-.349-6.681-.711-13.588,2.43-19.307,4.454-8.108,14.361-10.984,22.28-10.984l.342,0c6.246.065,12.463,1.536,18.476,2.958,2.533.6,5.153,1.219,7.743,1.727,16,3.137,31,.713,45.508-1.629,9.49-1.533,19.3-3.118,29.427-3.183h.292c10.016,0,18.18,3.3,26.816,6.795,4,1.62,8.145,3.295,12.537,4.644,19.425,5.97,34.231,2.987,51.1-10.3,7.114-5.6,13.4-7.645,18.684-6.077,6.237,1.852,11.216,8.511,15.224,20.357,3.711,10.968,11.771,22.821,22.291,20.136s11.813-17.309,11.957-21.725c.028-.864.049-1.74.071-2.623.2-8.152.4-16.582,5.96-22.027,3.039-2.975,7.328-4.569,11.475-6.109,5.643-2.1,10.973-4.076,13.482-9.238,1.687-3.472,1.44-7.406,1.2-11.211a30.031,30.031,0,0,1,.282-8.647c1.106-4.725,4.564-8.347,9.734-10.2a25.36,25.36,0,0,1,22.789,3.446c8.5,6.5,13.132,16.629,17.615,26.425C408.758,96.7,409.867,99.121,411.007,101.445Z" transform="translate(-18 673)" opacity="0.7" fill="url(#l)" style="mix-blend-mode:screen;isolation:isolate"/></g></g></svg>