<svg xmlns="http://www.w3.org/2000/svg" xmlns:xlink="http://www.w3.org/1999/xlink" width="375.141" height="197.24" viewBox="0 0 375.141 197.24"><defs><linearGradient id="a" x1="-0.193" y1="0.5" x2="1.278" y2="0.5" gradientUnits="objectBoundingBox"><stop offset="0" stop-color="#6f6f6f"/><stop offset="0.108" stop-color="#5d5d5d"/><stop offset="0.22" stop-color="#363636"/><stop offset="0.338" stop-color="#131313"/><stop offset="0.402" stop-color="#060606"/><stop offset="0.465" stop-color="#0c0c0c"/><stop offset="0.556" stop-color="#1e1e1e"/><stop offset="0.66" stop-color="#3c3c3c"/><stop offset="0.752" stop-color="#5d5d5d"/><stop offset="1" stop-color="#6f6f6f"/></linearGradient><linearGradient id="b" x1="-0.178" y1="0.5" x2="1.252" y2="0.5" xlink:href="#a"/><linearGradient id="c" x1="-0.163" y1="0.5" x2="1.227" y2="0.5" xlink:href="#a"/><linearGradient id="d" x1="-0.148" y1="0.5" x2="1.203" y2="0.5" xlink:href="#a"/><linearGradient id="e" x1="-0.134" y1="0.5" x2="1.179" y2="0.5" xlink:href="#a"/><linearGradient id="f" x1="-0.12" y1="0.5" x2="1.155" y2="0.5" xlink:href="#a"/><linearGradient id="g" x1="-0.111" y1="0.5" x2="1.131" y2="0.5" xlink:href="#a"/><linearGradient id="h" x1="-0.103" y1="0.5" x2="1.108" y2="0.5" xlink:href="#a"/><linearGradient id="i" x1="-0.095" y1="0.5" x2="1.085" y2="0.5" xlink:href="#a"/><linearGradient id="j" x1="-0.087" y1="0.5" x2="1.069" y2="0.5" xlink:href="#a"/><linearGradient id="k" x1="-0.078" y1="0.5" x2="1.066" y2="0.5" xlink:href="#a"/></defs><g transform="translate(19.141 92.232)"><path d="M356,72.845a22.209,22.209,0,0,1-2.726,2.6,17.631,17.631,0,0,1-6.308,3.295,42.575,42.575,0,0,1-10.024,1.151,50.841,50.841,0,0,0-7.423.613c-5.151.942-9.653,3.715-14.42,6.65-3.835,2.361-7.8,4.8-12.134,6.2-6.3,2.027-10.072-.873-14.067-3.943a24.429,24.429,0,0,0-7.261-4.34,15.906,15.906,0,0,0-3.115-.7c-3.616-.4-6.135,1.021-9.051,2.664-.642.362-1.3.733-1.992,1.1a30.019,30.019,0,0,1-6.527,2.647c-5.227,1.371-9.363,1.73-13.016,1.13a20.276,20.276,0,0,1-8.477-3.557,28.113,28.113,0,0,1-6.084-6.13c-1.25-1.653-2.455-3.463-3.62-5.214A57.961,57.961,0,0,0,222.6,67.67c-3.1-3.067-7.437-3.407-11.632-3.734-3.3-.258-6.409-.5-8.919-1.981-3.043-1.793-4.765-4.3-6.431-6.726-2.876-4.186-5.593-8.141-14.666-8.656-.907-.051-1.843-.069-2.78-.05-10.593.2-19.879,6.478-27.565,12.593-.995.791-1.992,1.6-3,2.42l-1.567,1.273c-7.006,5.677-14.947,12.113-24.812,14.117-8.646,1.756-13.953-2.882-19.573-7.793a47.109,47.109,0,0,0-8.466-6.347C82.6,57.152,67.109,55.422,53.438,53.9c-5.711-.637-11.105-1.24-15.934-2.078-5.642-.99-12.664-2.224-17.328-6.638q-.4-.377-.765-.774c-3.148-3.406-4.641-7.876-6.083-12.2a63.6,63.6,0,0,0-2.579-6.836C8.13,19.79,4.631,15.814.05,13.211-5.573,10-12.139,9.188-19.141,8.8V8.321C-12.239,8.713-5.4,9.552.286,12.8c4.669,2.652,8.232,6.7,10.893,12.37a63.53,63.53,0,0,1,2.6,6.888c1.428,4.274,2.9,8.695,5.983,12.024q.355.386.741.753c4.561,4.316,11.5,5.535,17.084,6.515,4.814.836,10.2,1.438,15.906,2.074,13.712,1.532,29.254,3.267,39.923,8.944a47.433,47.433,0,0,1,8.557,6.409c5.527,4.831,10.75,9.394,19.164,7.684,9.751-1.981,17.644-8.377,24.608-14.021l1.565-1.272c1.006-.819,2-1.632,3-2.424,7.748-6.164,17.117-12.493,27.852-12.7.951-.019,1.9,0,2.816.051,9.307.528,12.217,4.765,15.032,8.862,1.637,2.382,3.329,4.845,6.281,6.585,2.415,1.423,5.474,1.662,8.713,1.916,4.281.334,8.707.68,11.929,3.87a58.28,58.28,0,0,1,7.22,9.409c1.161,1.746,2.361,3.55,3.6,5.191a27.648,27.648,0,0,0,5.98,6.029,19.817,19.817,0,0,0,8.28,3.476c3.585.59,7.657.234,12.818-1.121a29.537,29.537,0,0,0,6.426-2.608c.686-.361,1.34-.73,1.979-1.089,2.987-1.683,5.569-3.137,9.336-2.723a16.41,16.41,0,0,1,3.208.718,24.813,24.813,0,0,1,7.406,4.416c3.893,2.993,7.57,5.819,13.631,3.869,4.279-1.378,8.219-3.8,12.03-6.152,4.595-2.829,9.345-5.755,14.583-6.714a51.836,51.836,0,0,1,7.493-.62,42.273,42.273,0,0,0,9.913-1.134,17.165,17.165,0,0,0,6.139-3.21A22.4,22.4,0,0,0,356,72.126Z" transform="translate(0 10.983)" opacity="0.7" fill="url(#a)" style="mix-blend-mode:screen;isolation:isolate"/><path d="M356,72.589a25.132,25.132,0,0,1-2.94,2.136,27.927,27.927,0,0,1-6.443,3.054,61.68,61.68,0,0,1-9.677,1.96,63.921,63.921,0,0,0-7.361,1.365c-4.7,1.269-8.826,4.136-13.191,7.173-3.883,2.7-7.9,5.494-12.42,7.12-6.537,2.35-10.749-.624-15.208-3.772a32.376,32.376,0,0,0-6.545-3.888,22.784,22.784,0,0,0-2.968-.989c-3.292-.8-5.389.014-8.044,1.047-.633.245-1.292.5-2,.749a42.374,42.374,0,0,1-6.505,1.813c-4.063.744-8.8,1.366-13.1.333a19.4,19.4,0,0,1-8.08-4.2,29.753,29.753,0,0,1-5.53-6.551c-.813-1.239-1.589-2.515-2.41-3.863-2.395-3.936-4.87-8.006-8.219-10.945-3.5-3.068-8.067-2.945-12.487-2.827-2.864.076-5.571.149-7.757-.688-3.026-1.159-4.795-3.039-6.667-5.03-3-3.191-6.1-6.491-14.873-7.462-.893-.1-1.829-.182-2.78-.242-11-.716-20.446,4.826-28.238,10.34-1.262.893-2.5,1.809-3.813,2.779l-1.657,1.224c-7.548,5.584-15.352,11.358-24.863,13.117-8.231,1.527-13.4-2.691-18.88-7.151a47.009,47.009,0,0,0-8.176-5.742c-10.474-5.315-25.532-6.959-38.82-8.411-5.157-.564-10.028-1.095-14.45-1.8-5.39-.883-12.1-1.982-16.642-5.865q-.389-.335-.748-.685c-3.129-3.044-4.754-7.044-6.324-10.913a60.072,60.072,0,0,0-2.673-5.952A25.265,25.265,0,0,0,4.951,18.989c-6.279-3.313-14.015-3.857-21.5-4.383q-1.292-.091-2.6-.188V13.94c.88.066,1.758.13,2.63.191,7.53.53,15.317,1.078,21.685,4.437A25.725,25.725,0,0,1,15.925,29.591a60.635,60.635,0,0,1,2.695,6c1.552,3.823,3.157,7.777,6.215,10.75q.35.342.727.666C30,50.8,36.639,51.89,41.971,52.764c4.41.707,9.274,1.238,14.425,1.8C69.724,56.02,84.83,57.67,95.38,63.023a47.407,47.407,0,0,1,8.262,5.8c5.39,4.388,10.483,8.532,18.493,7.052,9.4-1.739,17.161-7.48,24.666-13.031l1.656-1.224c1.314-.971,2.556-1.889,3.822-2.785,7.86-5.563,17.41-11.154,28.544-10.427.958.062,1.9.144,2.8.244,8.943.991,12.25,4.507,15.167,7.61,1.833,1.949,3.566,3.792,6.491,4.911,2.1.8,4.758.733,7.574.657,4.3-.115,9.179-.246,12.814,2.944,3.4,2.987,5.9,7.089,8.313,11.055.819,1.347,1.593,2.618,2.4,3.85a29.266,29.266,0,0,0,5.44,6.448,18.917,18.917,0,0,0,7.882,4.1c4.219,1.01,8.891.4,12.9-.339a41.935,41.935,0,0,0,6.435-1.794c.7-.246,1.358-.5,1.985-.744,2.626-1.021,4.893-1.9,8.329-1.065a23.2,23.2,0,0,1,3.032,1.008,32.7,32.7,0,0,1,6.643,3.942c4.355,3.075,8.467,5.98,14.772,3.712,4.461-1.6,8.451-4.379,12.31-7.062,4.4-3.06,8.556-5.95,13.339-7.241a64.524,64.524,0,0,1,7.417-1.376,61.433,61.433,0,0,0,9.6-1.943,27.459,27.459,0,0,0,6.335-3A24.832,24.832,0,0,0,356,71.964Z" transform="translate(0 4.211)" opacity="0.7" fill="url(#b)" style="mix-blend-mode:screen;isolation:isolate"/><path d="M356,73c-.909.5-1.916,1.011-3.156,1.585l-.739.343c-1.717.8-3.663,1.706-5.837,2.471-2.935,1.028-5.877,1.8-8.721,2.551-2.828.745-5.5,1.448-7.907,2.334-4.271,1.568-8.018,4.5-11.987,7.613-3.918,3.069-7.969,6.243-12.683,8.123-6.893,2.747-11.883-.56-16.708-3.757a46.72,46.72,0,0,0-5.47-3.279c-.962-.46-1.958-.935-2.824-1.281-3.12-1.246-4.832-.93-7.425-.453-.508.093-1.045.193-1.63.286-.452.072-.93.154-1.434.239-1.477.253-3.15.538-5.042.741-4.422.474-9.08.829-13.185-.463a18.521,18.521,0,0,1-7.679-4.846,32.511,32.511,0,0,1-4.978-6.971c-.467-.83-.933-1.689-1.407-2.561-2.513-4.63-5.112-9.417-9.076-12.506-3.981-3.1-9.066-2.361-13.55-1.705a23.064,23.064,0,0,1-6.375.388c-3.226-.506-5.145-1.9-7.368-3.515-3.06-2.222-6.529-4.741-14.627-6.086q-1.393-.23-2.78-.435c-11.5-1.7-21.491,3.429-28.912,8.089-1.516.952-3.016,1.961-4.6,3.028l-.378.254q-1.041.7-2.075,1.407c-7.384,5.018-15.021,10.207-24.232,11.744-7.817,1.3-12.865-2.493-18.211-6.512a47.669,47.669,0,0,0-7.862-5.135c-10.349-4.962-24.93-6.521-37.794-7.9-4.64-.5-9.023-.965-13.06-1.563-5.131-.762-11.517-1.709-15.955-5.093q-.38-.289-.734-.6c-3.116-2.682-4.878-6.211-6.583-9.624-.844-1.691-1.717-3.44-2.747-5.074a24.885,24.885,0,0,0-10.414-9.5c-5.67-2.738-12.5-3.412-19.112-4.063-3.286-.324-6.642-.661-9.882-1.246V19.55c3.249.593,6.624.932,9.929,1.258,6.649.655,13.526,1.333,19.273,4.108a25.34,25.34,0,0,1,10.608,9.673C21.712,36.242,22.59,38,23.44,39.7c1.76,3.526,3.423,6.855,6.466,9.476.229.2.466.391.713.578,4.34,3.309,10.659,4.246,15.737,5,4.026.6,8.405,1.066,13.04,1.562,12.9,1.379,27.527,2.943,37.95,7.94a48.064,48.064,0,0,1,7.941,5.184c5.263,3.956,10.236,7.692,17.847,6.423,9.108-1.52,16.362-6.449,24.042-11.668q1.036-.7,2.076-1.407l.379-.254c1.591-1.07,3.094-2.081,4.617-3.037,7.49-4.7,17.583-9.883,29.235-8.156q1.392.206,2.788.435c8.209,1.363,11.88,4.029,14.829,6.171,2.173,1.578,4.05,2.94,7.161,3.428a22.677,22.677,0,0,0,6.233-.388c4.579-.669,9.77-1.428,13.912,1.8,4.042,3.15,6.665,7.982,9.2,12.654.473.87.937,1.726,1.4,2.555a32.074,32.074,0,0,0,4.9,6.869A18.064,18.064,0,0,0,251.4,89.6c4.016,1.263,8.62.911,12.991.443,1.877-.2,3.544-.485,5.014-.736.505-.086.984-.169,1.438-.241.581-.092,1.115-.191,1.619-.284,2.575-.474,4.438-.817,7.687.479.88.351,1.883.83,2.854,1.294a47.306,47.306,0,0,1,5.526,3.311c4.939,3.275,9.606,6.369,16.268,3.712,4.651-1.854,8.675-5.007,12.568-8.055,4-3.133,7.774-6.091,12.115-7.686,2.43-.893,5.112-1.6,7.951-2.346s5.766-1.519,8.684-2.54c2.151-.758,4.086-1.659,5.793-2.454l.74-.344c1.332-.617,2.395-1.158,3.356-1.7Z" transform="translate(0 -3.138)" opacity="0.7" fill="url(#c)" style="mix-blend-mode:screen;isolation:isolate"/><path d="M356,75.06c-.942.233-2.006.5-3.375.934-1.348.427-2.818,1.02-4.373,1.649-.751.3-1.528.617-2.332.929-1.575.608-3.153,1.2-4.7,1.783-4.241,1.593-8.247,3.1-11.513,4.658-3.85,1.838-7.227,4.815-10.8,7.966-3.937,3.47-8.009,7.057-12.927,9.216-7.451,3.27-13.209-.447-18.779-4.042-1.25-.808-2.545-1.643-3.822-2.371-.62-.351-1.19-.692-1.72-1.009-.336-.2-.654-.392-.96-.57-3.313-1.928-4.626-1.984-7.8-2.121l-.274-.011c-1.224-.054-2.677.007-4.359.076-.663.027-1.356.055-2.08.079l-.134,0c-4.5.145-9.153.3-13.135-1.263a17.617,17.617,0,0,1-7.28-5.493,35.081,35.081,0,0,1-4.425-7.389l-.594-1.253c-2.412-5.108-5.146-10.9-9.742-14.073s-10.269-1.546-14.831-.236a28.507,28.507,0,0,1-4.767,1.1c-3.873.354-6-.64-9.236-2.146a57.361,57.361,0,0,0-13.224-4.55c-.926-.207-1.852-.414-2.779-.628-9.323-2.148-18.448-.349-29.587,5.838-1.651.916-3.261,1.894-5.192,3.077-1.122.69-2.235,1.389-3.345,2.086-7.577,4.756-14.734,9.248-23.708,10.581-7.4,1.1-12.334-2.284-17.552-5.868a49.09,49.09,0,0,0-7.536-4.533c-10.349-4.649-24.607-6.127-37.187-7.432-3.977-.413-7.73-.8-11.251-1.272-5.138-.687-10.962-1.465-15.265-4.319-.248-.164-.487-.334-.719-.507-3.115-2.318-5.024-5.376-6.869-8.331-.871-1.395-1.773-2.837-2.793-4.2a25.092,25.092,0,0,0-10.274-8.172C9.732,31.071,3.809,30.321-1.918,29.6-7.16,28.932-12.58,28.246-17.3,26.46a18.685,18.685,0,0,1-1.844-.826v-.545a17.9,17.9,0,0,0,2.013.925c4.664,1.768,10.056,2.45,15.27,3.11,5.761.729,11.718,1.483,16.8,3.7a25.554,25.554,0,0,1,10.465,8.322c1.034,1.375,1.94,2.826,2.816,4.23,1.906,3.053,3.707,5.937,6.749,8.2.226.168.458.332.7.491,4.212,2.794,9.978,3.564,15.065,4.244,3.513.469,7.265.858,11.237,1.269,12.615,1.309,26.915,2.792,37.333,7.473a49.454,49.454,0,0,1,7.611,4.574c5.14,3.528,9.991,6.862,17.212,5.79,8.875-1.319,15.99-5.785,23.525-10.514,1.111-.7,2.226-1.4,3.349-2.088,1.937-1.186,3.55-2.166,5.209-3.088,11.251-6.247,20.48-8.063,29.926-5.885.926.213,1.851.42,2.775.627a57.746,57.746,0,0,1,13.321,4.583c3.161,1.473,5.248,2.45,8.992,2.1a28.158,28.158,0,0,0,4.679-1.087c4.657-1.337,10.456-3,15.233.3,4.7,3.249,7.464,9.1,9.9,14.262l.593,1.252A34.709,34.709,0,0,0,246,85.171a17.156,17.156,0,0,0,7.086,5.354c3.893,1.522,8.5,1.374,12.947,1.23l.133,0c.723-.024,1.416-.052,2.077-.079,1.693-.069,3.156-.132,4.4-.075l.274.011c3.159.135,4.6.2,8.017,2.185q.461.269.965.573c.527.315,1.094.654,1.711,1,1.289.735,2.588,1.574,3.845,2.385,5.462,3.527,11.111,7.173,18.329,4.005,4.85-2.129,8.894-5.692,12.8-9.137,3.6-3.174,7-6.171,10.912-8.039,3.286-1.569,7.3-3.077,11.551-4.674,1.55-.581,3.127-1.173,4.7-1.781.8-.311,1.576-.624,2.326-.928,1.565-.633,3.043-1.23,4.408-1.662,1.438-.455,2.542-.73,3.519-.971Z" transform="translate(0 -12.045)" opacity="0.7" fill="url(#d)" style="mix-blend-mode:screen;isolation:isolate"/><path d="M356,82.649a12.822,12.822,0,0,0-3.6.162,34.377,34.377,0,0,0-6.834,2.346,131.348,131.348,0,0,0-15.807,8c-3.435,2.074-6.448,5.058-9.636,8.218-3.942,3.906-8.018,7.945-13.152,10.412-8.415,4.043-15.57-.773-21.883-5.023l-1.142-.767c-.961-.638-1.786-1.28-2.533-1.88l-.6-.479c-2.657-2.134-3.553-2.853-6.5-3.625a32.836,32.836,0,0,0-6.4-.662l-1.272-.049c-4.171-.157-8.485-.318-12.079-2a17.063,17.063,0,0,1-6.879-6.139,39.579,39.579,0,0,1-3.873-7.807c-2.19-5.508-4.916-12.362-10.19-15.587-5.366-3.282-11.679-.373-16.288,1.749-1.087.5-2.115.974-2.98,1.29-5.228,1.911-7.774,1.064-13.925-.982-2.329-.775-5.229-1.74-9-2.8-.971-.272-1.88-.54-2.777-.821-9.676-3.021-19.009-1.914-30.263,3.587-1.684.823-3.377,1.743-5.4,2.873-1.525.854-3.049,1.742-4.523,2.6-7.453,4.341-14.492,8.442-23.277,9.583-6.992.907-11.809-2.07-16.908-5.222a51.524,51.524,0,0,0-7.194-3.932c-10.485-4.371-24.577-5.77-37.01-7-3.164-.314-6.152-.611-9.012-.946-4.884-.573-10.421-1.223-14.573-3.545-.241-.135-.474-.275-.7-.418a28.9,28.9,0,0,1-7.206-7.036c-.881-1.1-1.79-2.236-2.789-3.318A26.261,26.261,0,0,0,19.66,46.578c-4.324-1.661-9.308-2.424-14.129-3.161-5.535-.847-11.26-1.722-16.021-3.965a21.413,21.413,0,0,1-8.65-7.992V30.6c2.315,3.664,5.093,6.654,8.853,8.425C-5.589,41.234.1,42.1,5.6,42.946c4.845.741,9.856,1.507,14.228,3.187A26.742,26.742,0,0,1,30.147,53.1c1.009,1.095,1.924,2.238,2.81,3.343,2.069,2.581,4.023,5.02,7.087,6.932.221.138.449.274.684.405,4.069,2.275,9.319,2.892,14.4,3.487,2.857.335,5.842.631,9,.946,12.466,1.237,26.6,2.64,37.146,7.037a52.037,52.037,0,0,1,7.261,3.967c5.025,3.107,9.771,6.042,16.6,5.155,8.69-1.129,15.689-5.206,23.1-9.522,1.476-.86,3-1.749,4.531-2.605,2.031-1.133,3.731-2.057,5.424-2.884C169.556,63.8,179,62.687,188.8,65.747c.893.279,1.8.546,2.763.817,3.784,1.059,6.688,2.026,9.023,2.8,6.215,2.069,8.539,2.841,13.611.987.847-.31,1.866-.779,2.944-1.276,4.707-2.168,11.155-5.135,16.736-1.724,5.41,3.309,8.168,10.244,10.385,15.818a39.151,39.151,0,0,0,3.823,7.713,16.606,16.606,0,0,0,6.689,5.978c3.506,1.645,7.77,1.805,11.894,1.959l1.275.049a33.178,33.178,0,0,1,6.5.677c3.041.8,4.03,1.592,6.672,3.714l.6.479c.74.592,1.554,1.226,2.5,1.855l1.144.768c6.207,4.179,13.241,8.917,21.411,4.99,5.063-2.433,9.11-6.443,13.024-10.321,3.21-3.18,6.242-6.185,9.725-8.287a131.872,131.872,0,0,1,15.867-8.027,34.761,34.761,0,0,1,6.935-2.376A13.407,13.407,0,0,1,356,82.17Z" transform="translate(0 -26.36)" opacity="0.7" fill="url(#e)" style="mix-blend-mode:screen;isolation:isolate"/><path d="M356,102.893a7.557,7.557,0,0,0-3.817-.749,20.586,20.586,0,0,0-6.962,2.116,87.254,87.254,0,0,0-15.4,9.549,61.458,61.458,0,0,0-8.48,8.348c-3.933,4.385-8,8.921-13.367,11.732-8.971,4.7-17.679-.7-23.448-5.169a19.924,19.924,0,0,1-2.383-2.182c-.933-.993-1.593-1.838-2.176-2.584a10.337,10.337,0,0,0-3.939-3.5,20.284,20.284,0,0,0-6.366-1.469c-.7-.08-1.408-.152-2.125-.224-3.936-.4-8.006-.81-11.309-2.624a16.668,16.668,0,0,1-6.478-6.786,43.948,43.948,0,0,1-3.321-8.223c-2.134-6.57-4.829-13.038-10.045-15.848-6.381-3.441-13.576,1.509-17.873,4.467-.383.264-.742.51-1.074.733-7,4.7-9.826,3.745-23.383-.849-.927-.314-1.86-.655-2.774-1.014-10.024-3.939-19.567-3.527-30.94,1.337-1.985.848-3.95,1.825-5.611,2.668-1.906.971-3.8,2-5.623,2.989-7.348,3.989-14.29,7.756-22.925,8.713-6.586.731-11.3-1.846-16.293-4.574a55.951,55.951,0,0,0-6.825-3.334c-10.894-4.158-25.122-5.472-37.675-6.633-2.031-.187-4.015-.371-5.932-.56l-.229-.024c-4.761-.473-9.684-.962-13.649-2.748-.235-.105-.463-.217-.688-.328a31.336,31.336,0,0,1-7.638-5.751c-.856-.8-1.743-1.628-2.686-2.43a29.287,29.287,0,0,0-10.006-5.523,83.035,83.035,0,0,0-11.388-2.546C7.25,68.83,1.121,67.753-3.685,64.96c-6.471-3.762-9.2-11.258-12.092-19.194-1.036-2.845-2.1-5.758-3.364-8.562V36.068c1.464,3.1,2.656,6.361,3.812,9.535,2.86,7.853,5.561,15.27,11.882,18.945C1.288,67.3,7.373,68.369,13.259,69.4a83.348,83.348,0,0,1,11.454,2.563,29.736,29.736,0,0,1,10.166,5.612c.951.808,1.841,1.64,2.7,2.445A30.973,30.973,0,0,0,45.106,85.7q.327.163.671.32c3.895,1.754,8.778,2.24,13.5,2.708l.229.023c1.915.191,3.9.373,5.928.561,12.584,1.163,26.847,2.481,37.8,6.662a56.289,56.289,0,0,1,6.884,3.361c4.922,2.691,9.569,5.23,16.012,4.518,8.542-.946,15.444-4.692,22.751-8.658,1.829-.993,3.721-2.021,5.633-3,1.667-.847,3.642-1.827,5.639-2.682,11.5-4.916,21.152-5.331,31.3-1.341.907.356,1.833.695,2.752,1.006,13.374,4.532,16.155,5.474,22.965.9.331-.223.688-.469,1.07-.731,4.389-3.019,11.732-8.07,18.37-4.493,5.363,2.889,8.107,9.455,10.272,16.12a43.557,43.557,0,0,0,3.283,8.135,16.211,16.211,0,0,0,6.292,6.6c3.219,1.768,7.239,2.174,11.128,2.567.719.073,1.432.145,2.131.225a20.661,20.661,0,0,1,6.525,1.517,10.717,10.717,0,0,1,4.1,3.631c.577.737,1.23,1.574,2.149,2.552a19.508,19.508,0,0,0,2.327,2.13c5.667,4.389,14.208,9.694,22.936,5.123,5.291-2.77,9.329-7.272,13.234-11.627a61.846,61.846,0,0,1,8.549-8.412,87.7,87.7,0,0,1,15.484-9.6,20.971,20.971,0,0,1,7.136-2.159,7.917,7.917,0,0,1,3.842.7Z" transform="translate(0 -53.195)" opacity="0.7" fill="url(#f)" style="mix-blend-mode:screen;isolation:isolate"/><path d="M356,118.72a6.455,6.455,0,0,0-4.035-1.817c-1.98-.124-4.23.474-7.095,1.891-5.547,2.735-10.924,7.369-14.987,11.1a71.944,71.944,0,0,0-7.323,8.327c-3.913,4.921-7.96,10.01-13.581,13.2-8.452,4.8-17.872.8-23.87-4.548a14.824,14.824,0,0,1-2.228-2.485,21.05,21.05,0,0,1-2.1-3.8,9.662,9.662,0,0,0-3.032-4.263,15.479,15.479,0,0,0-6.338-2.272c-.907-.169-1.841-.319-2.785-.47-3.762-.6-7.653-1.229-10.731-3.172a16.388,16.388,0,0,1-6.075-7.43,50.61,50.61,0,0,1-2.744-8.537l-.027-.1c-1.439-5.589-4.033-13.339-9.9-16.11-5.227-2.472-11.327-.065-18.641,7.356-6.821,6.92-10.828,7.271-23.825,2.085-.913-.365-1.846-.771-2.77-1.208-10.36-4.9-20.111-5.185-31.619-.914-1.669.619-3.519,1.4-5.82,2.464-2.27,1.051-4.5,2.182-6.654,3.277-7.263,3.687-14.124,7.169-22.642,7.944-6.206.562-10.825-1.618-15.72-3.925a63.355,63.355,0,0,0-6.411-2.737c-11.982-4.117-27.747-5.371-40.415-6.379l-1.5-.119c-4.295-.339-8.736-.689-12.457-1.941-.229-.076-.452-.157-.671-.238a39.38,39.38,0,0,1-8.314-4.5c-.759-.5-1.528-1-2.335-1.506a36.381,36.381,0,0,0-9.879-4.2c-2.617-.71-5.492-1.257-8.271-1.786C14.711,90.668,8,89.39,3.119,85.9-2.36,81.973-4.325,75.208-6.406,68.045-7.726,63.5-9.091,58.8-11.428,54.6a50.913,50.913,0,0,0-3.634-5.443l-.41-.56a36.812,36.812,0,0,1-3.669-5.933V41.484c0,.011.007.022.012.033a32.549,32.549,0,0,0,4.042,6.8l.409.559a51.272,51.272,0,0,1,3.666,5.493c2.364,4.243,3.737,8.97,5.064,13.538,2.057,7.082,4,13.771,9.345,17.6,4.795,3.433,11.453,4.7,17.893,5.925,2.788.531,5.672,1.08,8.305,1.8A36.816,36.816,0,0,1,39.6,97.486c.81.506,1.583,1.012,2.344,1.512a39,39,0,0,0,8.219,4.452c.216.079.434.158.658.234,3.666,1.232,8.078,1.58,12.344,1.917l1.5.119c12.694,1.01,28.492,2.266,40.532,6.4a63.671,63.671,0,0,1,6.46,2.756c4.835,2.279,9.4,4.428,15.473,3.881,8.427-.766,15.248-4.228,22.469-7.894,2.159-1.1,4.392-2.229,6.67-3.285,2.314-1.067,4.173-1.854,5.854-2.478,11.637-4.319,21.5-4.033,31.988.93.916.433,1.838.836,2.743,1.2,13.526,5.4,16.935,4.491,23.309-1.977,7.475-7.584,13.75-10.02,19.185-7.452,6.049,2.858,8.7,10.741,10.159,16.422l.027.1a50.168,50.168,0,0,0,2.715,8.456,15.946,15.946,0,0,0,5.9,7.228c3,1.891,6.838,2.508,10.552,3.1.948.152,1.886.3,2.8.473a15.886,15.886,0,0,1,6.539,2.361,10.046,10.046,0,0,1,3.178,4.445,20.58,20.58,0,0,0,2.055,3.723,14.4,14.4,0,0,0,2.159,2.407c5.873,5.237,15.085,9.17,23.318,4.489,5.542-3.149,9.558-8.2,13.443-13.087a72.4,72.4,0,0,1,7.374-8.382c4.087-3.752,9.5-8.414,15.1-11.175,2.943-1.456,5.28-2.072,7.336-1.94a6.627,6.627,0,0,1,4,1.668Z" transform="translate(0 -75.46)" opacity="0.7" fill="url(#g)" style="mix-blend-mode:screen;isolation:isolate"/><path d="M356,157.393c-1.087-1.424-2.217-2.691-4.252-3.048-2.065-.362-4.427.186-7.228,1.669-5.5,2.907-10.683,8.287-14.58,12.649a87.972,87.972,0,0,0-6.165,8.116c-3.88,5.526-7.893,11.24-13.8,14.869-8.377,5.148-18.561,1.922-24.29-3.927a12.792,12.792,0,0,1-2.071-2.787,18.622,18.622,0,0,1-1.706-4.784c-.495-1.979-.922-3.69-2.441-5.267-1.3-1.351-3.191-2.271-6.319-3.075-1.067-.274-2.153-.509-3.3-.759-3.635-.787-7.393-1.6-10.295-3.677-2.489-1.779-4.291-4.346-5.673-8.077a55.665,55.665,0,0,1-2.1-8.434l-.121-.622c-1.742-8.917-5.025-14.425-9.759-16.374-8.3-3.413-16.143,6.419-18.348,9.515-6.122,8.594-10.844,11.192-24.254,5.016-.91-.418-1.839-.89-2.765-1.4-10.827-5.985-20.487-6.932-32.3-3.164-1.782.568-3.755,1.307-6.031,2.26-2.614,1.1-5.157,2.31-7.616,3.482-7.2,3.43-14,6.67-22.427,7.257-5.847.407-10.618-1.468-15.237-3.281-1.9-.747-3.87-1.519-5.905-2.134-12.653-3.823-28.191-5.076-38.777-5.686l-1.572-.088A72.211,72.211,0,0,1,55.765,144.5c-.221-.048-.439-.1-.654-.149a62.881,62.881,0,0,1-9.871-3.382l-1.1-.449a56.343,56.343,0,0,0-9.76-2.876c-1.415-.3-2.851-.564-4.372-.849-7.392-1.384-15.036-2.815-20.081-7.281-4.64-4.1-5.946-10.34-7.328-16.942C1.558,107.617.484,102.491-2.084,98.018a39.107,39.107,0,0,0-4.149-5.654,68.643,68.643,0,0,1-4.828-6.289,12.18,12.18,0,0,1-2.126-6.15,33.224,33.224,0,0,1,.58-7.193c.086-.585.175-1.186.261-1.806.527-3.768,1.061-10.909-1.287-16.417a13.484,13.484,0,0,0-3.619-5.041c-.61-.666-1.247-1.326-1.889-1.987v-.69c.76.776,1.5,1.553,2.218,2.335a13.906,13.906,0,0,1,3.728,5.2c2.392,5.613,1.855,12.854,1.321,16.669-.087.621-.176,1.224-.262,1.81a32.946,32.946,0,0,0-.577,7.086,11.735,11.735,0,0,0,2.05,5.927,68.155,68.155,0,0,0,4.8,6.243,39.539,39.539,0,0,1,4.2,5.723c2.605,4.538,3.688,9.7,4.733,14.695C4.428,119,5.718,125.159,10.24,129.16c4.947,4.378,12.525,5.8,19.854,7.168,1.524.285,2.963.555,4.382.851a56.888,56.888,0,0,1,9.842,2.9l1.1.45a61.663,61.663,0,0,0,9.8,3.359c.212.049.427.1.645.147A72.02,72.02,0,0,0,66.7,145.165l1.574.088c10.611.611,26.186,1.868,38.887,5.7,2.053.62,4.03,1.4,5.942,2.146,4.78,1.876,9.3,3.652,15.03,3.249,8.341-.581,15.1-3.8,22.255-7.211,2.464-1.174,5.012-2.389,7.637-3.491,2.29-.959,4.275-1.7,6.07-2.275,11.95-3.811,21.721-2.854,32.674,3.2.915.506,1.834.972,2.733,1.387,12.916,5.948,17.429,3.9,23.667-4.861,2.257-3.168,10.288-13.231,18.918-9.678,4.891,2.013,8.271,7.639,10.046,16.723l.121.622a55.313,55.313,0,0,0,2.078,8.361c1.347,3.637,3.1,6.132,5.5,7.855,2.821,2.018,6.53,2.821,10.117,3.6,1.1.239,2.245.487,3.322.763,3.22.828,5.178,1.787,6.544,3.206a10.951,10.951,0,0,1,2.56,5.481,18.24,18.24,0,0,0,1.661,4.671,12.324,12.324,0,0,0,1.994,2.683c5.46,5.574,15.623,8.82,23.7,3.855,5.82-3.578,9.8-9.251,13.655-14.737a88.414,88.414,0,0,1,6.2-8.159c3.924-4.392,9.141-9.81,14.712-12.752,2.9-1.535,5.363-2.1,7.533-1.717a6.682,6.682,0,0,1,4.17,2.749Z" transform="translate(0 -120.411)" opacity="0.7" fill="url(#h)" style="mix-blend-mode:screen;isolation:isolate"/><path d="M351.662,158.424c2.131.594,3.32,2.219,4.338,3.962v.958c-1.117-1.995-2.224-3.836-4.466-4.462-2.16-.6-4.569-.128-7.363,1.448-4.243,2.389-9.012,7.165-14.174,14.2-1.756,2.39-3.331,4.948-5,7.657-3.832,6.223-7.8,12.657-14.016,16.78-8.337,5.526-19.507,2.751-24.709-3.307a11.67,11.67,0,0,1-1.91-3.087,19.461,19.461,0,0,1-1.228-5.646c-.255-2.294-.5-4.462-1.929-6.389-1.233-1.66-3.179-2.858-6.309-3.881-1.194-.391-2.481-.738-3.725-1.074-3.538-.956-7.2-1.945-9.954-4.154-2.453-1.965-4.127-4.737-5.269-8.721a60,60,0,0,1-1.512-8.3l-.159-1.176c-.87-6.341-3.244-14.374-9.617-16.638-7.274-2.586-14.276,4.676-18.064,11.678-5.7,10.544-11.327,14.932-24.674,7.944-.9-.474-1.833-1.011-2.759-1.6-11.137-7.035-21-8.656-32.98-5.415-1.9.515-3.946,1.187-6.239,2.056-2.941,1.117-5.775,2.39-8.515,3.621-7.151,3.211-13.906,6.245-22.277,6.637-5.554.261-10.333-1.22-14.958-2.652-1.684-.521-3.427-1.062-5.195-1.515a174.216,174.216,0,0,0-36.363-4.931c-1.138-.037-2.287-.064-3.434-.09-2.794-.064-5.684-.13-8.342-.367l-.637-.06a112.859,112.859,0,0,1-11.29-1.659c-3.066-.6-6.313-1.075-9.647-1.547-8.639-1.222-17.5-2.883-22.558-8.469-3.9-4.307-4.629-10.163-5.4-16.362C10.679,118.6,10,113.157,7.26,108.528a28.374,28.374,0,0,0-4.252-5.305c-.954-.988-1.85-1.89-2.687-2.734-1.03-1.036-2-2.014-2.87-2.945a15.368,15.368,0,0,1-3.785-6.11c-.839-2.694-.774-5.792-.611-9.272.259-5.556.255-11.345-1.507-16.03A15.92,15.92,0,0,0-11.63,60.91a80.679,80.679,0,0,0-7.511-8.12v-.664A82.716,82.716,0,0,1-11.268,60.6a16.358,16.358,0,0,1,3.261,5.363c1.792,4.767,1.8,10.613,1.537,16.222-.16,3.433-.225,6.488.591,9.108A14.928,14.928,0,0,0-2.2,97.22c.863.924,1.833,1.9,2.859,2.934C1.5,101,2.4,101.9,3.351,102.893a29.487,29.487,0,0,1,4.318,5.393c2.8,4.715,3.476,10.209,4.135,15.523.759,6.122,1.476,11.905,5.277,16.1,4.955,5.469,13.72,7.108,22.273,8.318,3.341.473,6.594.947,9.672,1.552a112.427,112.427,0,0,0,11.246,1.651l.633.06c2.643.235,5.523.3,8.31.365,1.148.026,2.3.052,3.439.09a174.754,174.754,0,0,1,36.465,4.946c1.779.457,3.527,1,5.217,1.521,4.8,1.486,9.32,2.89,14.794,2.632,8.282-.388,15-3.4,22.1-6.6,2.747-1.233,5.586-2.509,8.541-3.631,2.308-.874,4.364-1.552,6.284-2.071,12.121-3.277,22.1-1.641,33.359,5.472.914.578,1.832,1.109,2.725,1.577,13,6.807,18.476,2.527,24.035-7.748,3.877-7.167,11.086-14.583,18.641-11.9,6.6,2.344,9.041,10.551,9.929,17.022l.16,1.177a59.635,59.635,0,0,0,1.5,8.229c1.113,3.885,2.737,6.58,5.109,8.481,2.68,2.146,6.289,3.122,9.78,4.066,1.25.337,2.542.687,3.748,1.081,2.175.711,4.883,1.814,6.544,4.05,1.508,2.031,1.757,4.261,2.019,6.62a19.111,19.111,0,0,0,1.194,5.514,11.192,11.192,0,0,0,1.832,2.961c5.071,5.9,15.96,8.608,24.086,3.22,6.133-4.064,10.068-10.454,13.873-16.633,1.6-2.6,3.254-5.284,5.02-7.69,5.2-7.087,10.023-11.907,14.324-14.33C346.845,158.275,349.373,157.786,351.662,158.424Z" transform="translate(0 -132.459)" opacity="0.7" fill="url(#i)" style="mix-blend-mode:screen;isolation:isolate"/><path d="M343.575,163.854c2.888-1.729,5.552-2.155,7.915-1.266,2.328.875,3.493,3.064,4.509,5.333V169.1c-.026-.058-.052-.116-.077-.174-1.121-2.562-2.182-4.981-4.6-5.89-2.254-.847-4.708-.444-7.5,1.229-6.049,3.617-11.646,12.216-13.77,15.745-1.332,2.212-2.6,4.591-3.833,6.89-3.763,7.036-7.653,14.312-14.233,19-7.717,5.5-19.929,4.2-25.127-2.687a11.283,11.283,0,0,1-1.748-3.386,21.677,21.677,0,0,1-.731-6.427c-.032-2.719-.063-5.288-1.431-7.592-1.173-1.975-3.117-3.422-6.3-4.69-1.289-.508-2.687-.958-4.039-1.393-3.476-1.12-7.071-2.277-9.722-4.628-2.425-2.161-3.971-5.137-4.865-9.365a64.332,64.332,0,0,1-.981-8.126q-.068-.887-.14-1.762c-.355-4.329-1.989-14.641-9.477-16.9-7.793-2.377-14.449,5.976-17.784,13.847-3.354,7.917-6.954,12.277-11.331,13.725-3.83,1.265-8.331.33-13.757-2.86-.876-.515-1.8-1.117-2.752-1.789-11.4-8.122-21.464-10.411-33.661-7.666a61.888,61.888,0,0,0-6.449,1.853c-3.252,1.113-6.354,2.432-9.353,3.708-7.123,3.027-13.852,5.888-22.189,6.07-5.5.122-10.518-1.006-15.373-2.094-1.255-.281-2.515-.564-3.789-.827-8.515-1.761-21.3-4.11-33.949-4.176-3.682-.017-7.487.141-11.071.309l-.619.027c-1.287.06-2.532.131-3.755.2-2.669.152-5.191.294-7.853.312-2.842.017-6.161.02-9.536-.211-6.891-.473-16.07-2.386-20.663-8.811-3.236-4.527-3.447-10.378-3.652-16.037-.2-5.492-.4-11.171-3.28-15.862a22.473,22.473,0,0,0-4.352-4.957c-1.5-1.327-2.983-2.486-4.42-3.607-.637-.5-1.263-.984-1.868-1.471a19.757,19.757,0,0,1-5.436-6.071c-1.563-2.957-1.918-6.331-2.069-9.536-.043-.889-.074-1.8-.106-2.723-.15-4.378-.307-8.906-1.623-12.923a19.908,19.908,0,0,0-2.737-5.4c-3.377-5.11-8.2-9.613-13.134-13.918v-.632c5.063,4.409,10.048,9.017,13.526,14.279a20.4,20.4,0,0,1,2.8,5.526C-1.48,81.3-1.324,85.862-1.171,90.274c.031.921.062,1.829.1,2.717.149,3.149.5,6.461,2.016,9.335a19.308,19.308,0,0,0,5.312,5.923c.6.485,1.227.97,1.863,1.465,1.443,1.126,2.937,2.289,4.444,3.627a22.922,22.922,0,0,1,4.442,5.065c2.94,4.8,3.149,10.54,3.349,16.093.212,5.846.412,11.368,3.564,15.777,4.484,6.274,13.519,8.146,20.308,8.613,3.359.23,6.666.229,9.5.209,2.65-.018,5.166-.16,7.83-.31,1.224-.07,2.471-.14,3.759-.2l.62-.028c3.588-.167,7.391-.327,11.095-.31,12.693.067,25.508,2.421,34.043,4.187,1.275.264,2.537.547,3.8.829,5.05,1.131,9.816,2.2,15.259,2.082,8.245-.18,14.932-3.023,22.012-6.032,3.008-1.279,6.118-2.6,9.386-3.72a62.389,62.389,0,0,1,6.5-1.868c12.345-2.782,22.526-.465,34.041,7.743.939.664,1.854,1.259,2.718,1.768,5.3,3.117,9.673,4.04,13.366,2.817,4.237-1.4,7.745-5.677,11.042-13.459,3.412-8.053,10.263-16.584,18.36-14.116,7.769,2.348,9.45,12.9,9.813,17.32.049.584.1,1.173.142,1.765a63.788,63.788,0,0,0,.972,8.065c.872,4.124,2.369,7.018,4.715,9.108,2.576,2.284,6.122,3.425,9.552,4.53,1.359.438,2.765.89,4.068,1.4,2.215.881,4.96,2.234,6.537,4.889,1.433,2.414,1.465,5.045,1.5,7.829a21.314,21.314,0,0,0,.709,6.289,10.776,10.776,0,0,0,1.673,3.243c5.054,6.693,16.947,7.949,24.472,2.585,6.488-4.625,10.351-11.851,14.089-18.838,1.233-2.305,2.507-4.689,3.845-6.911C332.3,175.34,337.656,167.393,343.575,163.854Z" transform="translate(0 -144.122)" opacity="0.7" fill="url(#j)" style="mix-blend-mode:screen;isolation:isolate"/><path d="M329.672,184.319c1.053-2.146,9.707-19.2,18.663-19.2a6.971,6.971,0,0,1,2.982.673c2.557,1.2,3.667,4.055,4.683,6.9v1.41q-.156-.429-.308-.86c-1.071-3.009-2.082-5.852-4.577-7.018-7.726-3.613-16.845,9.806-21.015,18.3-.923,1.878-1.82,3.84-2.688,5.736-3.66,8-7.443,16.265-14.428,21.608a21.065,21.065,0,0,1-18.93,2.863c-4.35-1.557-7.261-4.616-8.2-8.609a24.719,24.719,0,0,1-.24-7.151c.2-3.163.385-6.151-.928-8.853-1.95-4.015-6.186-5.587-10.669-7.254-3.41-1.267-6.936-2.576-9.472-5.059-4.648-4.552-4.815-11.486-4.977-18.191-.017-.714-.034-1.423-.057-2.122-.114-3.5-1.123-15.073-9.338-17.172s-14.563,7.318-17.507,16.02c-3.3,9.763-7.445,15.262-12.662,16.812-4.441,1.319-9.684-.367-15.582-5.011-13.717-10.8-25.212-13.121-41-8.269-3.541,1.088-6.89,2.442-10.128,3.753-7.048,2.85-13.709,5.544-21.923,5.544h-.241c-8.246-.053-16.222-1.34-23.936-2.587-11.72-1.893-23.839-3.852-36.735-1.324-2.091.41-4.212.911-6.261,1.4-4.9,1.16-9.969,2.358-15.087,2.412-6.577.058-15-2.3-18.767-9.153-2.612-4.756-2.315-10.426-2.028-15.91.3-5.656.6-11.506-2.367-16.187-2.206-3.476-5.873-5.692-9.42-7.836-3.352-2.026-6.82-4.122-9.138-7.294-3.207-4.389-3.653-9.953-4.084-15.334a51.771,51.771,0,0,0-1.4-9.713C-.913,77.534-9.657,70.66-18.114,64.013c-.345-.272-.684-.541-1.027-.812v-.607c.442.349.877.7,1.322,1.045C-9.3,70.333-.5,77.256,2.368,87.516a52.136,52.136,0,0,1,1.413,9.8c.445,5.56.865,10.812,3.993,15.091,2.263,3.1,5.689,5.166,9,7.168,3.595,2.172,7.311,4.419,9.577,7.989,3.051,4.809,2.741,10.735,2.44,16.466-.283,5.418-.577,11.019,1.971,15.656,3.612,6.575,11.646,8.907,18.067,8.907l.277,0c5.065-.053,10.106-1.246,14.982-2.4,2.054-.487,4.179-.988,6.279-1.4,12.978-2.544,25.14-.578,36.9,1.321,7.7,1.243,15.653,2.528,23.863,2.581h.237c8.122,0,14.742-2.677,21.745-5.51,3.247-1.314,6.6-2.672,10.166-3.766,15.752-4.841,27.758-2.422,41.439,8.35,5.769,4.542,10.867,6.2,15.151,4.928,5.058-1.5,9.1-6.9,12.345-16.508,3.009-8.894,9.545-18.506,18.076-16.329s9.579,14.036,9.7,17.617c.023.7.04,1.411.058,2.127.159,6.611.324,13.447,4.833,17.862,2.464,2.412,5.942,3.705,9.305,4.954,4.576,1.7,8.9,3.305,10.933,7.491,1.368,2.815,1.168,6.006.975,9.091a24.354,24.354,0,0,0,.229,7.012c.9,3.832,3.7,6.769,7.893,8.271a20.565,20.565,0,0,0,18.48-2.794c6.89-5.27,10.649-13.485,14.284-21.428C327.848,188.167,328.748,186.2,329.672,184.319Z" transform="translate(0 -154.826)" opacity="0.7" fill="url(#k)" style="mix-blend-mode:screen;isolation:isolate"/></g></svg>