<svg xmlns="http://www.w3.org/2000/svg" width="54.003" height="72.568" viewBox="0 0 54.003 72.568"><g transform="translate(-601.663 -414.514) rotate(19)"><path d="M757.27,197.919c-.521-5.834-3.4-8.215-9.16-8.582a89.354,89.354,0,0,0-23.343,1.8,1.321,1.321,0,0,0-.376,2.412c-.041.3-.062.622-.084.946a107.962,107.962,0,0,0,.284,11.174c.255,7.13.578,14.257.872,21.386.272,6.569-.1,13.557.97,20.049.787,4.781,4.2,6.564,8.745,6.747,3.584.144,7.2.03,10.786.049,2.617.013,5.5.286,8.005-.65,4.785-1.785,4.376-6.938,4.473-11.192A395.465,395.465,0,0,0,757.27,197.919Zm-4.953,52.935c-2.858.757-6.214.295-9.14.288-3.326-.008-7.487.627-10.709-.371-4.018-1.244-3.5-5.943-3.644-9.293q-.232-5.5-.464-10.991-.435-10.315-.871-20.63-.207-4.889-.46-9.777c-.1-1.847-.1-3.757-.376-5.587-.035-.291-.083-.581-.141-.868a97.843,97.843,0,0,1,20.241-1.48c1.74.065,3.911-.027,5.463.887,2.3,1.355,2.117,4.062,2.3,6.286.264,3.26.441,6.531.608,9.8q.538,10.5.591,21.024.029,5.258-.056,10.516C755.6,244.013,756.544,249.734,752.317,250.854Z" fill="#8e8f94"/><path d="M733.514,201.135a.187.187,0,0,0,0,.373A.187.187,0,0,0,733.514,201.135Z" transform="translate(-2.798 -3.497)" fill="#8e8f94"/><path d="M746.221,196.3a15.782,15.782,0,0,0-4.739.3,7.182,7.182,0,0,0-3.381.809c-1.262.907-1.282,3.163.5,3.269a.612.612,0,0,0,.562.4c1.873.12,3.749.213,5.626.241a4.762,4.762,0,0,0,3.19-.65C749.811,199.11,748.109,196.668,746.221,196.3Zm-.236,3.257q-.423.013-.845.014c-.586.012-1.172.029-1.758.047-1.409.044-2.812.108-4.219.2a.71.71,0,0,0-.2.051c-1.066-1.147,2.814-1.584,3.237-1.636.514-.064,3.472-.745,3.852-.254Q746.017,198.763,745.984,199.553Z" transform="translate(-3.93 -2.051)" fill="#8e8f94"/><path d="M754.285,224.8c-.139-5.428.122-11.043-.639-16.421a.651.651,0,0,0-.113-.289.874.874,0,0,0-.657-1.464c-6.574.175-13.215.575-19.759,1.226a.774.774,0,0,0-.253.075l0-.013a.388.388,0,0,0-.758.1c-.519,5.7.739,11.76,1.133,17.459.4,5.843.552,11.681.792,17.53a.916.916,0,0,0,1.307.8l0,0c5.5,1.437,12.464.349,18.094.046a.957.957,0,0,0,.912-1.045.655.655,0,0,0,.127-.363C754.713,236.576,754.433,230.665,754.285,224.8ZM735.77,243.365a.95.95,0,0,0,.072-.359c.075-6.06-.248-12.162-.7-18.2-.371-5.016-.427-10.62-1.856-15.536,6.307-.036,12.676-.318,18.968-.8a.581.581,0,0,0-.028.1c-.5,5.565.1,11.352.243,16.935.143,5.472.185,10.992.665,16.448C747.678,242.093,740.994,241.674,735.77,243.365Z" transform="translate(-2.402 -5.104)" fill="#8e8f94"/><path d="M748.174,265.1c-1.3-1.1-3.359.139-3.793,1.623a3.8,3.8,0,0,0,2.815,4.724,3.229,3.229,0,1,0,.978-6.347Zm-.487,4.648a2.135,2.135,0,0,1-1.789-1.984,2.338,2.338,0,0,1,.811-1.787.736.736,0,0,0,.716.972c.857.018,1.962.115,2.052,1.248C749.551,269.107,748.508,269.78,747.688,269.745Z" transform="translate(-5.99 -22.093)" fill="#8e8f94"/></g></svg>