<svg xmlns="http://www.w3.org/2000/svg" width="34.044" height="40.941" viewBox="0 0 34.044 40.941"><g transform="matrix(0.07, -0.998, 0.998, 0.07, -74.868, 579.725)"><path d="M564.663,93.341a3.386,3.386,0,0,0-2.229-1.789.378.378,0,0,0-.322-.239c-3.846-.548-6.092,4.708-2.549,6.76a3.866,3.866,0,0,0,4.523-.362A3.762,3.762,0,0,0,564.663,93.341Z" transform="translate(-6.775 -28.495)" fill="#8e8f94"/><path d="M565.879,69.518a17.239,17.239,0,0,0-14.8-3.3.979.979,0,0,0-1.641.666c-.082,2.018-.037,4.048.019,6.066a.743.743,0,0,0,.806.759.42.42,0,0,0,.647.344c3.183-2.112,7.034-.711,9.93,1.281a13.136,13.136,0,0,1,3.587,3.542c.893,1.366,1.068,2.873,1.728,4.313a.562.562,0,0,0,.069.1.367.367,0,0,0,.123.209c1.251,1.034,3.037.793,4.561.6a1.149,1.149,0,0,0,.9-.537.657.657,0,0,0,.76-.547C573.6,78.239,569.395,72.3,565.879,69.518Zm3.351,7.311a.838.838,0,0,0-.484.135l-.834-2.429a17.248,17.248,0,0,1,.986,1.608C569.021,76.371,569.129,76.6,569.23,76.829Zm-17.908-9.092c.273.513.549,1.025.823,1.538l-.845-.8Q551.313,68.106,551.322,67.738Zm1.442,4.056c-.174-.279-.346-.558-.512-.84l.785.762C552.945,71.742,552.853,71.764,552.763,71.794Zm1.888-.329c-.158-.3-.318-.606-.477-.91l.891.908C554.927,71.462,554.788,71.46,554.651,71.465Zm2.511.262a8.765,8.765,0,0,1-.782-1.743q.751.932,1.437,1.912C557.6,71.835,557.381,71.778,557.162,71.728Zm1.5-2.9a.615.615,0,0,0-1.118.471c.015.088.038.171.054.258-.534-.679-1.087-1.345-1.672-1.992a18.4,18.4,0,0,1,4.433,1.033,26.313,26.313,0,0,0,.73,3.394Q559.88,70.411,558.665,68.829Zm1.222,3.85c-.1-.208-.193-.416-.281-.626l.6.779C560.1,72.78,559.994,72.73,559.887,72.68Zm3.629,2.362a24.6,24.6,0,0,1-.968-2.5q.657,1.361,1.253,2.749C563.707,75.207,563.612,75.123,563.516,75.042Zm2.93-2.348a.671.671,0,0,0-.457.876c.337,1.1.621,2.2.863,3.3q-1.016-2.7-2.026-5.4a.69.69,0,0,0-1.338.11q-.5-1.018-1.031-2.022a15.394,15.394,0,0,1,2.323,1.565A16.046,16.046,0,0,1,566.446,72.693Zm-11.541-5.218a.519.519,0,0,0-.143.387,10.96,10.96,0,0,0,.271,1.82l-2.205-2.245C553.524,67.423,554.217,67.433,554.905,67.476Zm-3.78,4.224c.206.185.412.371.619.555a5.459,5.459,0,0,0-.692.461Q551.09,72.208,551.125,71.7Z" transform="translate(-2.369 -15.083)" fill="#8e8f94"/><path d="M581.923,54.484a29.532,29.532,0,0,0-7.354-11.513c-7.4-7.051-19.161-7.314-28.349-3.845a.721.721,0,0,0-.5.651.414.414,0,0,0-.119.064c-.927.716-.766,2.024-.606,3.092a6.7,6.7,0,0,0,.508,1.749,3.232,3.232,0,0,0,.847,1.113c-.012.449.345.914.858.712a20.809,20.809,0,0,1,19.728,2.6,19.579,19.579,0,0,1,6.188,7.543c1.59,3.406,1.558,6.661,1.846,10.3a.919.919,0,0,0,.927.84c.69.578,1.652.251,2.509.2a25.878,25.878,0,0,1,3.381.025.9.9,0,0,0,1.54-.377C584.306,63.463,583.329,58.451,581.923,54.484ZM550.972,43.511l-.347-1.184,1.156,1.021C551.51,43.394,551.24,43.45,550.972,43.511Zm-2.345-.125a2.067,2.067,0,0,1-1-1.1q.811.863,1.625,1.724c-.157.056-.312.115-.468.176A.515.515,0,0,0,548.627,43.386Zm7.6-3.663c.135.484.239.963.328,1.443-.431-.578-.863-1.154-1.291-1.734a.846.846,0,0,0-.185-.183c.412-.032.824-.061,1.235-.081A.7.7,0,0,0,556.224,39.723Zm-2.33.286c.1.426.2.851.3,1.277-.58-.587-1.162-1.172-1.739-1.763q.789-.1,1.58-.181A.725.725,0,0,0,553.894,40.009Zm-2.809.12c.149.354.3.7.455,1.058l-1.493-1.311q.506-.083,1.013-.159A.592.592,0,0,0,551.085,40.129Zm-2.566.182q.2.671.4,1.342c-.436-.448-.87-.9-1.31-1.345q.441-.084.886-.165A.721.721,0,0,0,548.519,40.311Zm9.724,2.14q.367.536.712,1.089c-.219-.045-.439-.086-.659-.125C558.285,43.091,558.27,42.768,558.242,42.451Zm15.213,6.34a20.406,20.406,0,0,0,1.1-2.1.979.979,0,0,0,.06-.692c.394.446.77.908,1.133,1.381a1,1,0,0,0-.291.166A8.51,8.51,0,0,1,573.455,48.79Zm-2.894-4.726c.01-.378.017-.756.007-1.142a.827.827,0,0,0-1.53-.414l-.533.93a16.955,16.955,0,0,0-.136-2.273,18.1,18.1,0,0,1,3.262,2A8.7,8.7,0,0,0,570.562,44.064Zm-4.31-2.284a12.774,12.774,0,0,0-.809-1.719c.382.11.762.229,1.137.362Q566.415,41.1,566.252,41.781Zm-2.66-1.885c-.009.405-.014.81-.021,1.215-.259-.555-.533-1.1-.832-1.649q.454.072.9.162A.853.853,0,0,0,563.592,39.9Zm-2.308.127a13.369,13.369,0,0,1,.271,2.124c-.528-.992-1.061-1.983-1.583-2.979q.768.043,1.528.125A.8.8,0,0,0,561.284,40.023Zm1.8,4.022c.1.281.181.57.269.857-.117-.048-.233-.1-.351-.145Q563.048,44.4,563.081,44.045Zm2,1.221c.014-.586.027-1.172.042-1.759a11.264,11.264,0,0,1,.32,1.7.893.893,0,0,0,1.2.73c-.038.191-.075.382-.121.575-.5-.3-1.015-.59-1.545-.858A.787.787,0,0,0,565.085,45.266Zm3.638,1.1c-.07.481-.157.964-.267,1.449q-.195-.148-.4-.292Zm9.124,4.165c.212.373.412.751.607,1.133q-.849.312-1.7.552A16.13,16.13,0,0,0,577.848,50.531Zm2.063,4.507c.19.539.352,1.075.495,1.608q-.678.009-1.352-.005l.148-.059a.92.92,0,0,0-.243-1.8l-1.167-.065c.519-.393,1.016-.818,1.5-1.267C579.513,53.975,579.722,54.5,579.911,55.038Zm1.369,9.228a.922.922,0,0,0-.833-1.293c-.128,0-.251-.009-.372-.016l.552-.122a.766.766,0,0,0,.639-.706c.053.728.091,1.46.122,2.2A.853.853,0,0,0,581.279,64.266Zm-.04-2.477a1.028,1.028,0,0,0-.614-.725l-.038-.013.154-.035a.844.844,0,0,0,.406-.213Q581.2,61.295,581.24,61.789Zm-.277-2.444a.882.882,0,0,0-.466-.141,10.429,10.429,0,0,1-1.511-.134l1.811-.624.015-.007C580.868,58.741,580.917,59.043,580.963,59.345Zm-6.857-13.91a.93.93,0,0,0-.943.174l-.585.473q.3-.807.548-1.644c.09.086.182.166.271.254C573.64,44.933,573.871,45.185,574.105,45.435Zm-15.586-6.312a.759.759,0,0,0-.039.447c.068.324.138.648.207.972-.357-.478-.723-.951-1.1-1.416Q558.052,39.119,558.519,39.123Zm-11.35,5.814a4.328,4.328,0,0,0-.118-.518,9.759,9.759,0,0,1-.325-1.227,3.17,3.17,0,0,0,1.332,1.169.618.618,0,0,0,.175.053C547.872,44.574,547.517,44.746,547.169,44.937Zm25.839,7.622,1.762-.779a14.982,14.982,0,0,1-1.187,1.261,1.011,1.011,0,0,0-.134.154C573.3,52.981,573.158,52.769,573.008,52.559Zm3.828,13.831c.03-.152.054-.3.078-.457l.157,0a1.1,1.1,0,0,0,.211.349C577.131,66.316,576.98,66.348,576.836,66.39Z" transform="translate(0)" fill="#8e8f94"/></g></svg>