<svg xmlns="http://www.w3.org/2000/svg" width="68.537" height="70.39" viewBox="0 0 68.537 70.39"><g transform="translate(-719.878 -100.325)"><path d="M786.811,117.914a201.542,201.542,0,0,1-37.088-17.3,2.226,2.226,0,0,0-3.243,1.32c-3.237,15.811-7.849,35.09-24.966,41.121a2.253,2.253,0,0,0-1.329,3.265,69.584,69.584,0,0,0,22.885,23.806,1.917,1.917,0,0,0,2.279-.042,1.041,1.041,0,0,0,1,.634c10.32-.055,21.071-10.073,27.061-17.613,7.519-9.465,12.076-20.83,14.937-32.485A2.254,2.254,0,0,0,786.811,117.914Zm-15.795,31.335a55.957,55.957,0,0,1-11.555,11.6c-4.111,3.033-8.924,4.652-13.139,7.368a2.137,2.137,0,0,0-1.016-1.921,66.97,66.97,0,0,1-19.92-20.052c15.722-7.106,21.3-24.3,24.753-40.293a207.18,207.18,0,0,0,33.469,15.465C781.01,131.342,777.177,140.96,771.016,149.249Z" fill="#8e8f94"/><path d="M750.111,155.8c-2.26-2.19-5.794-3.274-8.452-5.016-2.931-1.923-5.451-4.686-8.531-6.319a.523.523,0,0,0-.71.71c1.591,3.055,4.85,5.327,7.589,7.32,2.685,1.955,6.035,4.64,9.42,4.955A.976.976,0,0,0,750.111,155.8Z" fill="#8e8f94"/><path d="M758.073,151.806c-2.807-2.3-6.3-3.825-9.326-5.848a110.6,110.6,0,0,1-10.409-8.123c-.706-.6-1.7.357-1.032,1.032a90.8,90.8,0,0,0,9.335,8.04c3.171,2.419,6.639,5.3,10.44,6.6C758.014,153.829,758.862,152.452,758.073,151.806Z" fill="#8e8f94"/><path d="M766.832,145.719c-3.244-2.461-7.244-4.092-10.706-6.272-3.5-2.2-6.766-4.718-10.1-7.161-.646-.474-1.434.568-.852,1.1a93.151,93.151,0,0,0,9.951,7.766c3.368,2.348,7,5.115,10.933,6.394C767.228,147.93,767.669,146.353,766.832,145.719Z" fill="#8e8f94"/><path d="M775.249,137.852c-.436-1.275-.669-1.221-1.688-1.94-1.847-1.3-5.539-2.067-7.723-3.112-5.455-2.609-10.923-5.736-16.7-7.561-.713-.225-1.029.753-.481,1.141,4.362,3.084,9.459,5.3,14.2,7.744,2.242,1.155,4.462,2.48,6.773,3.49a17.709,17.709,0,0,0,2.2.749v.013a1.177,1.177,0,0,0,.6,1.046,2.075,2.075,0,0,0,2.174.008A1.4,1.4,0,0,0,775.249,137.852Z" fill="#8e8f94"/><path d="M777.531,128.284c-3.687-2.536-8.3-3.9-12.423-5.618-4.071-1.7-8.125-3.5-12.275-5-.624-.224-5.425-1.476-3.383,1.092a.407.407,0,0,0,.4.106l.291-.076a.369.369,0,0,0,.124-.667c1.115.474,4.383,2.562,5.228,2.966,2.565,1.226,5.146,2.423,7.723,3.623,4.314,2.008,8.747,4.686,13.393,5.756A1.2,1.2,0,0,0,777.531,128.284Z" fill="#8e8f94"/></g></svg>