<svg xmlns="http://www.w3.org/2000/svg" width="8.118" height="8.813" viewBox="0 0 8.118 8.813"><path d="M527.7,285.024a2.409,2.409,0,0,0,.054-.268,3.233,3.233,0,0,0-.515-2.011,13.569,13.569,0,0,0-1.28-2.191.392.392,0,0,0-.092-.078.451.451,0,0,0-.683-.416c-1.3.912-2.58,2.13-2.7,3.814,0,.02,0,.04,0,.059-.232.013-.381.35-.128.474l.143.068a2.74,2.74,0,0,0,2.274,2.577,2.815,2.815,0,0,0,2.635-1.332C527.763,285.787,527.912,285.292,527.7,285.024Zm-3.021-2.893c.053.086.112.167.17.247a3.652,3.652,0,0,0-.5.012c.091-.143.189-.283.295-.418A.241.241,0,0,0,524.683,282.131Zm1.083,1.208a.333.333,0,0,0,.123.022,4.539,4.539,0,0,1,.25.5q-.487-.347-.977-.691A3.278,3.278,0,0,1,525.766,283.339Zm-.884.623c-.314-.119-.628-.238-.941-.355a.306.306,0,0,0-.056-.008,2.483,2.483,0,0,1,.067-.326Z" transform="matrix(-0.899, -0.438, 0.438, -0.899, 351.647, 489.386)" fill="#8e8f94"/></svg>