<svg xmlns="http://www.w3.org/2000/svg" width="13.405" height="11.53" viewBox="0 0 13.405 11.53"><path d="M553.029,291.556c-.125-2.659-1.88-5.189-3.668-7.036-.48-.5-1.42.179-.983.759l.161.216a7.793,7.793,0,0,0-2.784,5.982.268.268,0,0,0,0,.038,4.763,4.763,0,0,0,.052.483c.321,1.953,2.149,3.879,4.245,3.7C552.186,295.51,553.119,293.476,553.029,291.556Zm-5.227-.312c.442.4.887.789,1.336,1.177a8.913,8.913,0,0,1-1.192-.415A5.106,5.106,0,0,1,547.8,291.243Zm.073-1.294h0a4.982,4.982,0,0,1,.193-.53,4.715,4.715,0,0,1,1.33,1.145A5.772,5.772,0,0,1,547.875,289.95Zm1.157-1.892a4.734,4.734,0,0,1,.481.4l-.9-.1c.09-.154.181-.306.272-.459A.593.593,0,0,0,549.033,288.058Zm-.665,4.961a15.074,15.074,0,0,0,1.977.511A1.3,1.3,0,0,1,548.368,293.02Zm2.692-.209a.084.084,0,0,0-.006-.009c-.367-.37-.75-.724-1.138-1.073.185.028.369.059.561.075.445.036.608-.47.46-.8a5.607,5.607,0,0,0-.828-1.332l.688.079a.461.461,0,0,0,.168-.011A3.717,3.717,0,0,1,551.06,292.81Z" transform="matrix(0.438, -0.899, 0.899, 0.438, -494.81, 372.414)" fill="#8e8f94"/></svg>