<svg xmlns="http://www.w3.org/2000/svg" width="22.104" height="20.262" viewBox="0 0 22.104 20.262"><path d="M579.9,282.685a1.41,1.41,0,0,0-.141-.125c.558-1-.846-1.88-1.673-1.175-3.241,2.766-6.232,6.7-5.976,11.179a7.044,7.044,0,0,0,6.083,6.794,5.623,5.623,0,0,0,6.328-5.075C584.965,290.473,582.426,285.35,579.9,282.685Zm-4.4,7.56v0c1.2,1.081,2.4,2.169,3.613,3.239a34.986,34.986,0,0,0-3.691-.99A8,8,0,0,1,575.5,290.245Zm.71-2.233c.385.284.774.564,1.16.846-.31-.076-.62-.15-.929-.227a.911.911,0,0,0-.5.029Q576.06,288.331,576.206,288.012Zm3.5,3.439c.343.087.686.172,1.029.26.087.307.162.606.223.9Q580.34,292.027,579.71,291.451Zm-1.538,4.54a3.191,3.191,0,0,1-2.329-1.908c1.545.6,3.161,1.065,4.75,1.559A2.572,2.572,0,0,1,578.172,295.992Z" transform="matrix(0.53, 0.848, -0.848, 0.53, -49.26, -634.138)" fill="#8e8f94"/></svg>