<svg xmlns="http://www.w3.org/2000/svg" width="48.111" height="40.495" viewBox="0 0 48.111 40.495"><g transform="translate(-313.879 -303.841) rotate(-34)"><path d="M89.647,455.957c-.051-1.032.048-2.329-1.039-2.857a1.467,1.467,0,0,0-1.983.52l-.06.137a1.588,1.588,0,0,0,.159,1.662,15.475,15.475,0,0,1-.029,1.825q.015,1.287-.071,2.573c-.044.65-.157,4.4-.664,4.54-.823.228-1.612-1.708-1.777-2.235a10.5,10.5,0,0,1-.407-2.623c-.006-.331-.018-.66-.035-.984-.1-1.9-3.022-1.926-2.975,0,.013.538.034,1.089.075,1.641a3.978,3.978,0,0,1-.824,2.829c-.925.976-1.954.635-2.435-.565-.991-2.473.071-5.454.152-7.985a.882.882,0,0,0-1.629-.442c-1.947,2.99-2.954,9.763.718,12.011a4.288,4.288,0,0,0,5.295-.918c.039-.041.074-.083.111-.125,1.021,1.546,3.017,2.942,4.912,2.179,2.282-.919,2.246-4.639,2.423-6.681A33.108,33.108,0,0,0,89.647,455.957Z" transform="translate(0 -1.857)" fill="#8e8f94"/><path d="M132.968,454.016c-.1-.954-1.184-1.941-2.15-1.233l-.2.143a1.393,1.393,0,0,0-.615,1.511l.048.178c-.2,2.315.017,4.685-.081,7-.048,1.139-.462,2.207-1.672,1.232-.886-.714-1.036-2.22-1.2-3.262-.267-1.7-2.9-1.231-2.93.4-.01.611.056,2.926-1.013,2.821-.8-.079-1.314-2.363-1.452-2.912a35.431,35.431,0,0,1-.538-6.626c-.065-1.1-1.811-1.492-2.04-.276-.673,3.57-1.108,9.024,1.8,11.816a3.341,3.341,0,0,0,4.464.137,4.048,4.048,0,0,0,.413-.386,4.55,4.55,0,0,0,.821.774,4.169,4.169,0,0,0,4.362.455c1.64-.9,1.94-2.706,1.982-4.42A59.782,59.782,0,0,0,132.968,454.016Z" transform="translate(-26.326 -1.451)" fill="#8e8f94"/><path d="M172.06,452.741c-.555-1.839-3.446-1.055-2.885.8a12.214,12.214,0,0,1,.568,5.832c-.172.836-.814,2.335-1.812,1.361-.689-.673-.692-2.119-.653-2.989.086-1.916-2.846-1.895-2.967,0-.071,1.112-.194,2.922-1.428,3.433-1.423.59-2.218-1.119-2.47-2.216-.608-2.647-.283-5.532-.438-8.225a.949.949,0,0,0-1.855-.251,25.852,25.852,0,0,0-.608,7.777,6.593,6.593,0,0,0,2.421,5.167,4.134,4.134,0,0,0,5.058-.1,4.892,4.892,0,0,0,.75-.727,3.24,3.24,0,0,0,4.574.97C173.876,461.555,173.032,455.964,172.06,452.741Z" transform="translate(-49.4)" fill="#8e8f94"/></g></svg>